<?xml version="1.0" encoding="utf-8"?>
<svg  xmlns="http://www.w3.org/2000/svg" xmlns:xlink="http://www.w3.org/1999/xlink" viewBox="0 0 34 34" >
<style type="text/css">
   .st0{fill:#FFFFFF;}
</style>
<g>
   <path class="st0" d="M30.4,0.8H3.6C2,0.8,0.8,2,0.8,3.6v26.8c0,1.6,1.3,2.8,2.8,2.8h26.8c1.6,0,2.8-1.3,2.8-2.8V3.6
   C33.2,2,32,0.8,30.4,0.8z"/>
   <path fill="#00263E" d="M31.5,0h-29C1.1,0,0,1.1,0,2.5v29.1C0,32.9,1.1,34,2.5,34h29c1.4,0,2.5-1.1,2.5-2.5V2.5C34,1.1,32.9,0,31.5,0 M10.1,29H5
   V12.7h5V29z M7.6,10.5c-1.6,0-2.9-1.3-2.9-2.9c0-1.6,1.3-2.9,2.9-2.9c1.6,0,2.9,1.3,2.9,2.9C10.5,9.2,9.2,10.5,7.6,10.5 M29,29h-5
   v-7.9c0-1.9,0-4.3-2.6-4.3c-2.6,0-3,2-3,4.2v8h-5V12.7h4.8V15h0.1c0.7-1.3,2.3-2.6,4.8-2.6c5.1,0,6,3.4,6,7.7V29z"/>
</g>
</svg>


