<svg width="32" height="30" fill="none" xmlns="http://www.w3.org/2000/svg"><path d="M0 11.743a2 2 0 01.838-1.627l7.837-5.598C11.322 2.627 15 4.519 15 7.773V28a2 2 0 01-2 2H2a2 2 0 01-2-2V11.743z" fill="#FE6748"/><rect x="4" y="15" width="7" height="2" rx="1" fill="#fff"/><rect x="4" y="21" width="7" height="2" rx="1" fill="#fff"/><path d="M32 17.067a2 2 0 00-1.072-1.771l-8.072-4.229C20.193 9.672 17 11.604 17 14.611V28a2 2 0 002 2h11a2 2 0 002-2V17.067z" fill="#FFDA7D"/><rect width="7" height="2" rx="1" transform="matrix(-1 0 0 1 28 22)" fill="#fff"/></svg>
