<?xml version="1.0" standalone="no"?>
<!DOCTYPE svg PUBLIC "-//W3C//DTD SVG 1.1//EN" "http://www.w3.org/Graphics/SVG/1.1/DTD/svg11.dtd" >
<svg xmlns="http://www.w3.org/2000/svg" xmlns:xlink="http://www.w3.org/1999/xlink" version="1.1">
<metadata>
Created by FontForge 20170731 at Tue Jun  5 18:52:00 2018
 By Aleksey,,,
(c) 2015-2017 Apple Inc. All rights reserved.
</metadata>
<defs>
<font id="SFProText-Light" horiz-adv-x="1800" >
  <font-face 
    font-family="SF Pro Text"
    font-weight="300"
    font-stretch="normal"
    units-per-em="2048"
    panose-1="0 0 4 0 0 0 0 0 0 0"
    ascent="1638"
    descent="-410"
    x-height="1075"
    cap-height="1443"
    bbox="-832 -590 2662 2183"
    underline-thickness="95"
    underline-position="-557"
    unicode-range="U+0020-1F189"
  />
<missing-glyph horiz-adv-x="2048" 
d="M100 -494v308h1848v-308h-1848zM100 -67v308h1848v-308h-1848zM100 361v307h1848v-307h-1848zM100 788v307h1848v-307h-1848zM100 1215v308h1848v-308h-1848zM100 1642v308h1848v-308h-1848z" />
    <glyph glyph-name="uni2460" unicode="&#x31;&#x20dd;" 
d="M983 390h-102v589h-5l-170 -114v95l175 119h102v-689zM900 55q181 0 333 89t239.5 242t87.5 334t-87.5 334t-239.5 242t-333 89t-333 -89t-239.5 -242t-87.5 -334t87.5 -334t239.5 -242t333 -89zM900 -46q-155 0 -297 61t-245 164t-164 245t-61 297t61 297t164 245
t245 164t297 61t297 -61t245 -164t164 -245t61 -297t-61 -297t-164 -245t-245 -164t-297 -61z" />
    <glyph glyph-name="uni2461" unicode="&#x32;&#x20dd;" 
d="M765 884h-99v5q0 83 63.5 143t171.5 60q103 0 166 -53t63 -136q0 -56 -28.5 -102t-92.5 -114l-194 -209v-5h331v-83h-472v64l271 289q41 44 62 78.5t21 74.5q0 51 -36 83t-93 32q-60 0 -97 -35t-37 -87v-5zM900 55q181 0 333 89t239.5 242t87.5 334t-87.5 334t-239.5 242
t-333 89t-333 -89t-239.5 -242t-87.5 -334t87.5 -334t239.5 -242t333 -89zM900 -46q-155 0 -297 61t-245 164t-164 245t-61 297t61 297t164 245t245 164t297 61t297 -61t245 -164t164 -245t61 -297t-61 -297t-164 -245t-245 -164t-297 -61z" />
    <glyph glyph-name="uni2462" unicode="&#x33;&#x20dd;" 
d="M822 706v79h78q56 0 93.5 33.5t37.5 83.5q-1 49 -38 80t-95 31q-55 0 -92.5 -29t-40.5 -71h-96q2 77 65 128t166 51t167 -49.5t66 -126.5q1 -65 -41.5 -109.5t-94.5 -53.5v-5q62 -7 110 -51t49 -117q1 -91 -73 -147t-185 -56q-107 0 -173.5 52t-71.5 129h96
q4 -43 46.5 -72t103.5 -30q69 0 112 35.5t43 91.5q-2 54 -43.5 88.5t-106.5 34.5h-82zM900 55q181 0 333 89t239.5 242t87.5 334t-87.5 334t-239.5 242t-333 89t-333 -89t-239.5 -242t-87.5 -334t87.5 -334t239.5 -242t333 -89zM900 -46q-155 0 -297 61t-245 164t-164 245
t-61 297t61 297t164 245t245 164t297 61t297 -61t245 -164t164 -245t61 -297t-61 -297t-164 -245t-245 -164t-297 -61z" />
    <glyph glyph-name="uni2463" unicode="&#x34;&#x20dd;" 
d="M898 1079h151v-465h97v-82h-97v-142h-97v142h-349v84q27 47 68 113t73.5 116t83 127t70.5 107zM701 614h251v387h-6q-161 -238 -245 -383v-4zM900 55q181 0 333 89t239.5 242t87.5 334t-87.5 334t-239.5 242t-333 89t-333 -89t-239.5 -242t-87.5 -334t87.5 -334
t239.5 -242t333 -89zM900 -46q-155 0 -297 61t-245 164t-164 245t-61 297t61 297t164 245t245 164t297 61t297 -61t245 -164t164 -245t61 -297t-61 -297t-164 -245t-245 -164t-297 -61z" />
    <glyph glyph-name="uni2464" unicode="&#x35;&#x20dd;" 
d="M659 557h96q9 -46 51 -72.5t97 -26.5q64 0 109.5 43t45.5 113q0 65 -44 105.5t-109 40.5q-91 0 -141 -76h-90l31 395h416v-82h-332l-19 -225h5q19 27 59.5 47t94.5 20q99 0 164.5 -61t65.5 -162q0 -107 -72.5 -173t-188.5 -66q-100 0 -167 51.5t-72 128.5zM900 55
q181 0 333 89t239.5 242t87.5 334t-87.5 334t-239.5 242t-333 89t-333 -89t-239.5 -242t-87.5 -334t87.5 -334t239.5 -242t333 -89zM900 -46q-155 0 -297 61t-245 164t-164 245t-61 297t61 297t164 245t245 164t297 61t297 -61t245 -164t164 -245t61 -297t-61 -297
t-164 -245t-245 -164t-297 -61z" />
    <glyph glyph-name="uni2465" unicode="&#x36;&#x20dd;" 
d="M910 374q-122 0 -197.5 88.5t-75.5 258.5q0 172 74.5 270t201.5 98q96 0 161 -49.5t78 -131.5h-102q-9 46 -45.5 72.5t-89.5 26.5q-86 0 -133.5 -74t-47.5 -211h7q23 55 74 86t117 31q100 0 165.5 -64.5t65.5 -162.5q0 -104 -71 -171t-182 -67zM909 456q65 0 109.5 44
t44.5 110q0 67 -43 109.5t-110 42.5t-111.5 -42.5t-44.5 -106.5q0 -67 44.5 -112t110.5 -45zM900 55q181 0 333 89t239.5 242t87.5 334t-87.5 334t-239.5 242t-333 89t-333 -89t-239.5 -242t-87.5 -334t87.5 -334t239.5 -242t333 -89zM900 -46q-155 0 -297 61t-245 164
t-164 245t-61 297t61 297t164 245t245 164t297 61t297 -61t245 -164t164 -245t61 -297t-61 -297t-164 -245t-245 -164t-297 -61z" />
    <glyph glyph-name="uni2466" unicode="&#x37;&#x20dd;" 
d="M680 1066h473v-85l-296 -604h-109l301 601v5h-369v83zM900 55q181 0 333 89t239.5 242t87.5 334t-87.5 334t-239.5 242t-333 89t-333 -89t-239.5 -242t-87.5 -334t87.5 -334t239.5 -242t333 -89zM900 -46q-155 0 -297 61t-245 164t-164 245t-61 297t61 297t164 245
t245 164t297 61t297 -61t245 -164t164 -245t61 -297t-61 -297t-164 -245t-245 -164t-297 -61z" />
    <glyph glyph-name="uni2467" unicode="&#x38;&#x20dd;" 
d="M901 452q70 0 116 37.5t46 94.5t-45.5 94t-116.5 37t-117.5 -37.5t-46.5 -93.5q0 -57 46.5 -94.5t117.5 -37.5zM901 786q59 0 97.5 33t38.5 83q0 51 -38 83t-98 32t-98.5 -32t-38.5 -83q0 -50 38.5 -83t98.5 -33zM899 377q-117 0 -190 56t-73 146q0 63 42 111t108 62v4
q-56 17 -88.5 58.5t-32.5 96.5q0 79 66 130t170 51q103 0 169.5 -51t66.5 -130q0 -54 -33.5 -96.5t-88.5 -58.5v-4q66 -14 108 -61.5t42 -110.5q0 -90 -74 -146.5t-192 -56.5zM900 55q181 0 333 89t239.5 242t87.5 334t-87.5 334t-239.5 242t-333 89t-333 -89t-239.5 -242
t-87.5 -334t87.5 -334t239.5 -242t333 -89zM900 -46q-155 0 -297 61t-245 164t-164 245t-61 297t61 297t164 245t245 164t297 61t297 -61t245 -164t164 -245t61 -297t-61 -297t-164 -245t-245 -164t-297 -61z" />
    <glyph glyph-name="uni2468" unicode="&#x39;&#x20dd;" 
d="M886 374q-93 0 -158.5 49.5t-79.5 130.5h102q11 -45 48 -71.5t90 -26.5q83 0 130.5 73.5t47.5 210.5h-7q-23 -54 -74 -85t-117 -31q-100 0 -165.5 64t-65.5 162q0 104 71 171.5t182 67.5q124 0 198.5 -89.5t74.5 -257.5q0 -173 -73.5 -270.5t-203.5 -97.5zM890 702
q67 0 111.5 42.5t44.5 105.5q0 67 -44 112t-111 45t-110.5 -44t-43.5 -110t43 -108.5t110 -42.5zM900 55q181 0 333 89t239.5 242t87.5 334t-87.5 334t-239.5 242t-333 89t-333 -89t-239.5 -242t-87.5 -334t87.5 -334t239.5 -242t333 -89zM900 -46q-155 0 -297 61t-245 164
t-164 245t-61 297t61 297t164 245t245 164t297 61t297 -61t245 -164t164 -245t61 -297t-61 -297t-164 -245t-245 -164t-297 -61z" />
    <glyph glyph-name="uni24B6" unicode="A&#x20dd;" 
d="M788 682h225l-109 312h-8zM694 406h-104l251 689h118l252 -689h-105l-69 199h-273zM900 55q181 0 333 89t239.5 242t87.5 334t-87.5 334t-239.5 242t-333 89t-333 -89t-239.5 -242t-87.5 -334t87.5 -334t239.5 -242t333 -89zM900 -46q-155 0 -297 61t-245 164t-164 245
t-61 297t61 297t164 245t245 164t297 61t297 -61t245 -164t164 -245t61 -297t-61 -297t-164 -245t-245 -164t-297 -61z" />
    <glyph glyph-name="uni24B7" unicode="B&#x20dd;" 
d="M670 389v689h277q94 0 150 -46.5t56 -123.5q0 -60 -32.5 -100t-85.5 -52v-5q69 -8 113 -52t44 -117q0 -90 -67 -141.5t-179 -51.5h-276zM771 999v-218h126q76 0 115.5 29.5t39.5 80.5t-33 79.5t-93 28.5h-155zM771 707v-239h134q94 0 138 29t44 88q0 57 -38.5 89.5
t-108.5 32.5h-169zM900 55q181 0 333 89t239.5 242t87.5 334t-87.5 334t-239.5 242t-333 89t-333 -89t-239.5 -242t-87.5 -334t87.5 -334t239.5 -242t333 -89zM900 -46q-155 0 -297 61t-245 164t-164 245t-61 297t61 297t164 245t245 164t297 61t297 -61t245 -164t164 -245
t61 -297t-61 -297t-164 -245t-245 -164t-297 -61z" />
    <glyph glyph-name="uni24B8" unicode="C&#x20dd;" 
d="M1088 596h104q-14 -100 -93.5 -162t-197.5 -62q-142 0 -229 99t-87 259t87 259t229 99q120 0 200.5 -64.5t91.5 -168.5h-102q-7 66 -60 107.5t-128 41.5q-96 0 -155.5 -76t-59.5 -198t59.5 -198t155.5 -76q74 0 125 39.5t60 100.5zM900 55q181 0 333 89t239.5 242
t87.5 334t-87.5 334t-239.5 242t-333 89t-333 -89t-239.5 -242t-87.5 -334t87.5 -334t239.5 -242t333 -89zM900 -46q-155 0 -297 61t-245 164t-164 245t-61 297t61 297t164 245t245 164t297 61t297 -61t245 -164t164 -245t61 -297t-61 -297t-164 -245t-245 -164t-297 -61z
" />
    <glyph glyph-name="uni24B9" unicode="D&#x20dd;" 
d="M667 1071h238q154 0 235 -88.5t81 -250.5q0 -164 -81 -253t-235 -89h-238v681zM769 988v-515h123q222 0 222 258q0 125 -56.5 191t-165.5 66h-123zM900 55q181 0 333 89t239.5 242t87.5 334t-87.5 334t-239.5 242t-333 89t-333 -89t-239.5 -242t-87.5 -334t87.5 -334
t239.5 -242t333 -89zM900 -46q-155 0 -297 61t-245 164t-164 245t-61 297t61 297t164 245t245 164t297 61t297 -61t245 -164t164 -245t61 -297t-61 -297t-164 -245t-245 -164t-297 -61z" />
    <glyph glyph-name="uni24BA" unicode="E&#x20dd;" 
d="M1127 469v-83h-444v689h444v-83h-343v-216h324v-79h-324v-228h343zM900 55q181 0 333 89t239.5 242t87.5 334t-87.5 334t-239.5 242t-333 89t-333 -89t-239.5 -242t-87.5 -334t87.5 -334t239.5 -242t333 -89zM900 -46q-155 0 -297 61t-245 164t-164 245t-61 297t61 297
t164 245t245 164t297 61t297 -61t245 -164t164 -245t61 -297t-61 -297t-164 -245t-245 -164t-297 -61z" />
    <glyph glyph-name="uni24BB" unicode="F&#x20dd;" 
d="M813 386h-103v689h439v-84h-336v-229h308v-82h-308v-294zM900 55q181 0 333 89t239.5 242t87.5 334t-87.5 334t-239.5 242t-333 89t-333 -89t-239.5 -242t-87.5 -334t87.5 -334t239.5 -242t333 -89zM900 -46q-155 0 -297 61t-245 164t-164 245t-61 297t61 297t164 245
t245 164t297 61t297 -61t245 -164t164 -245t61 -297t-61 -297t-164 -245t-245 -164t-297 -61z" />
    <glyph glyph-name="uni24BC" unicode="G&#x20dd;" 
d="M1091 616v52h-183v77h280v-108q0 -120 -75 -192.5t-210 -72.5q-142 0 -230 99t-88 259t88 259t230 99q117 0 196.5 -62t92.5 -161h-102q-10 61 -61.5 100t-124.5 39q-97 0 -156.5 -75t-59.5 -199q0 -123 59.5 -198.5t156.5 -75.5q88 0 137.5 43.5t49.5 116.5zM900 55
q181 0 333 89t239.5 242t87.5 334t-87.5 334t-239.5 242t-333 89t-333 -89t-239.5 -242t-87.5 -334t87.5 -334t239.5 -242t333 -89zM900 -46q-155 0 -297 61t-245 164t-164 245t-61 297t61 297t164 245t245 164t297 61t297 -61t245 -164t164 -245t61 -297t-61 -297
t-164 -245t-245 -164t-297 -61z" />
    <glyph glyph-name="uni24BD" unicode="H&#x20dd;" 
d="M1180 386h-102v314h-355v-314h-102v689h102v-292h355v292h102v-689zM900 55q181 0 333 89t239.5 242t87.5 334t-87.5 334t-239.5 242t-333 89t-333 -89t-239.5 -242t-87.5 -334t87.5 -334t239.5 -242t333 -89zM900 -46q-155 0 -297 61t-245 164t-164 245t-61 297t61 297
t164 245t245 164t297 61t297 -61t245 -164t164 -245t61 -297t-61 -297t-164 -245t-245 -164t-297 -61z" />
    <glyph glyph-name="uni24BE" unicode="I&#x20dd;" 
d="M952 386h-104v689h104v-689zM900 55q181 0 333 89t239.5 242t87.5 334t-87.5 334t-239.5 242t-333 89t-333 -89t-239.5 -242t-87.5 -334t87.5 -334t239.5 -242t333 -89zM900 -46q-155 0 -297 61t-245 164t-164 245t-61 297t61 297t164 245t245 164t297 61t297 -61
t245 -164t164 -245t61 -297t-61 -297t-164 -245t-245 -164t-297 -61z" />
    <glyph glyph-name="uni24BF" unicode="J&#x20dd;" 
d="M651 566h99q1 -46 34 -75.5t83 -29.5q57 0 87.5 34.5t30.5 94.5v485h102v-482q0 -104 -58.5 -162t-161.5 -58q-99 0 -157.5 55t-58.5 138zM900 55q181 0 333 89t239.5 242t87.5 334t-87.5 334t-239.5 242t-333 89t-333 -89t-239.5 -242t-87.5 -334t87.5 -334t239.5 -242
t333 -89zM900 -46q-155 0 -297 61t-245 164t-164 245t-61 297t61 297t164 245t245 164t297 61t297 -61t245 -164t164 -245t61 -297t-61 -297t-164 -245t-245 -164t-297 -61z" />
    <glyph glyph-name="uni24C0" unicode="&#x212a;&#x20dd;" 
d="M1190 1075l-270 -295l285 -394h-127l-234 327l-87 -91v-236h-102v689h102v-333h5l310 333h118zM900 55q181 0 333 89t239.5 242t87.5 334t-87.5 334t-239.5 242t-333 89t-333 -89t-239.5 -242t-87.5 -334t87.5 -334t239.5 -242t333 -89zM900 -46q-155 0 -297 61t-245 164
t-164 245t-61 297t61 297t164 245t245 164t297 61t297 -61t245 -164t164 -245t61 -297t-61 -297t-164 -245t-245 -164t-297 -61z" />
    <glyph glyph-name="uni24C1" unicode="L&#x20dd;" 
d="M1157 472v-86h-434v689h103v-603h331zM900 55q181 0 333 89t239.5 242t87.5 334t-87.5 334t-239.5 242t-333 89t-333 -89t-239.5 -242t-87.5 -334t87.5 -334t239.5 -242t333 -89zM900 -46q-155 0 -297 61t-245 164t-164 245t-61 297t61 297t164 245t245 164t297 61
t297 -61t245 -164t164 -245t61 -297t-61 -297t-164 -245t-245 -164t-297 -61z" />
    <glyph glyph-name="uni24C2" unicode="M&#x20dd;" 
d="M654 386h-92v689h110l227 -565h4l227 565h108v-689h-92v521h-5l-202 -507h-77l-202 507h-6v-521zM900 55q181 0 333 89t239.5 242t87.5 334t-87.5 334t-239.5 242t-333 89t-333 -89t-239.5 -242t-87.5 -334t87.5 -334t239.5 -242t333 -89zM900 -46q-155 0 -297 61
t-245 164t-164 245t-61 297t61 297t164 245t245 164t297 61t297 -61t245 -164t164 -245t61 -297t-61 -297t-164 -245t-245 -164t-297 -61z" />
    <glyph glyph-name="uni24C3" unicode="N&#x20dd;" 
d="M721 386h-98v689h95l356 -528h5v528h98v-689h-95l-356 529h-5v-529zM900 55q181 0 333 89t239.5 242t87.5 334t-87.5 334t-239.5 242t-333 89t-333 -89t-239.5 -242t-87.5 -334t87.5 -334t239.5 -242t333 -89zM900 -46q-155 0 -297 61t-245 164t-164 245t-61 297t61 297
t164 245t245 164t297 61t297 -61t245 -164t164 -245t61 -297t-61 -297t-164 -245t-245 -164t-297 -61z" />
    <glyph glyph-name="uni24C4" unicode="O&#x20dd;" 
d="M900 456q96 0 157 74t61 200t-61 200t-157 74t-157 -74t-61 -200t61 -200t157 -74zM900 372q-140 0 -230.5 97t-90.5 261t90.5 261t230.5 97t230.5 -97t90.5 -261t-90.5 -261t-230.5 -97zM900 55q181 0 333 89t239.5 242t87.5 334t-87.5 334t-239.5 242t-333 89t-333 -89
t-239.5 -242t-87.5 -334t87.5 -334t239.5 -242t333 -89zM900 -46q-155 0 -297 61t-245 164t-164 245t-61 297t61 297t164 245t245 164t297 61t297 -61t245 -164t164 -245t61 -297t-61 -297t-164 -245t-245 -164t-297 -61z" />
    <glyph glyph-name="uni24C5" unicode="P&#x20dd;" 
d="M956 1075q106 0 169 -62t63 -158t-63 -157.5t-169 -61.5h-165v-250h-102v689h267zM1083 855q0 64 -38 101t-103 37h-151v-276h151q65 0 103 37t38 101zM900 55q181 0 333 89t239.5 242t87.5 334t-87.5 334t-239.5 242t-333 89t-333 -89t-239.5 -242t-87.5 -334t87.5 -334
t239.5 -242t333 -89zM900 -46q-155 0 -297 61t-245 164t-164 245t-61 297t61 297t164 245t245 164t297 61t297 -61t245 -164t164 -245t61 -297t-61 -297t-164 -245t-245 -164t-297 -61z" />
    <glyph glyph-name="uni24C6" unicode="Q&#x20dd;" 
d="M1185 311h-102l-61 84q-57 -23 -122 -23q-140 0 -230.5 97t-90.5 261t90.5 261t230.5 97t230.5 -97t90.5 -261q0 -196 -127 -294zM900 456q38 0 68 12l-88 122h101l57 -78q80 75 80 218q0 126 -61 200t-157 74t-157 -74t-61 -200t61 -200t157 -74zM900 55q181 0 333 89
t239.5 242t87.5 334t-87.5 334t-239.5 242t-333 89t-333 -89t-239.5 -242t-87.5 -334t87.5 -334t239.5 -242t333 -89zM900 -46q-155 0 -297 61t-245 164t-164 245t-61 297t61 297t164 245t245 164t297 61t297 -61t245 -164t164 -245t61 -297t-61 -297t-164 -245t-245 -164
t-297 -61z" />
    <glyph glyph-name="uni24C7" unicode="R&#x20dd;" 
d="M929 1075q109 0 173 -57.5t64 -153.5q0 -72 -40 -123.5t-102 -70.5l153 -284h-115l-140 269h-159v-269h-100v689h266zM763 733h151q68 0 107 34t39 95q0 62 -39 97t-104 35h-154v-261zM900 55q181 0 333 89t239.5 242t87.5 334t-87.5 334t-239.5 242t-333 89t-333 -89
t-239.5 -242t-87.5 -334t87.5 -334t239.5 -242t333 -89zM900 -46q-155 0 -297 61t-245 164t-164 245t-61 297t61 297t164 245t245 164t297 61t297 -61t245 -164t164 -245t61 -297t-61 -297t-164 -245t-245 -164t-297 -61z" />
    <glyph glyph-name="uni24C8" unicode="S&#x20dd;" 
d="M627 575h101q5 -53 54.5 -87.5t120.5 -34.5t117.5 33.5t46.5 85.5q0 77 -130 109l-115 27q-175 41 -175 181q0 89 71.5 145t184.5 56t183.5 -54.5t71.5 -142.5h-98q-5 51 -49.5 84t-108.5 33t-108 -33.5t-44 -82.5q0 -34 30 -60.5t83 -39.5l114 -26q101 -24 146.5 -68.5
t45.5 -118.5q0 -96 -74 -152t-200 -56q-119 0 -192 55t-76 147zM900 55q181 0 333 89t239.5 242t87.5 334t-87.5 334t-239.5 242t-333 89t-333 -89t-239.5 -242t-87.5 -334t87.5 -334t239.5 -242t333 -89zM900 -46q-155 0 -297 61t-245 164t-164 245t-61 297t61 297t164 245
t245 164t297 61t297 -61t245 -164t164 -245t61 -297t-61 -297t-164 -245t-245 -164t-297 -61z" />
    <glyph glyph-name="uni24C9" unicode="T&#x20dd;" 
d="M952 366h-103v605h-219v84h541v-84h-219v-605zM900 55q181 0 333 89t239.5 242t87.5 334t-87.5 334t-239.5 242t-333 89t-333 -89t-239.5 -242t-87.5 -334t87.5 -334t239.5 -242t333 -89zM900 -46q-155 0 -297 61t-245 164t-164 245t-61 297t61 297t164 245t245 164
t297 61t297 -61t245 -164t164 -245t61 -297t-61 -297t-164 -245t-245 -164t-297 -61z" />
    <glyph glyph-name="uni24CA" unicode="U&#x20dd;" 
d="M900 436q79 0 128 46t49 125v446h102v-453q0 -113 -76.5 -181t-202.5 -68t-202.5 68t-76.5 181v453h102v-446q0 -79 49 -125t128 -46zM900 55q181 0 333 89t239.5 242t87.5 334t-87.5 334t-239.5 242t-333 89t-333 -89t-239.5 -242t-87.5 -334t87.5 -334t239.5 -242
t333 -89zM900 -46q-155 0 -297 61t-245 164t-164 245t-61 297t61 297t164 245t245 164t297 61t297 -61t245 -164t164 -245t61 -297t-61 -297t-164 -245t-245 -164t-297 -61z" />
    <glyph glyph-name="uni24CB" unicode="V&#x20dd;" 
d="M837 364l-253 689h118l195 -581h6l195 581h118l-253 -689h-126zM900 55q181 0 333 89t239.5 242t87.5 334t-87.5 334t-239.5 242t-333 89t-333 -89t-239.5 -242t-87.5 -334t87.5 -334t239.5 -242t333 -89zM900 -46q-155 0 -297 61t-245 164t-164 245t-61 297t61 297
t164 245t245 164t297 61t297 -61t245 -164t164 -245t61 -297t-61 -297t-164 -245t-245 -164t-297 -61z" />
    <glyph glyph-name="uni24CC" unicode="W&#x20dd;" 
d="M900 903l-148 -539h-100l-188 689h112l129 -554h6l145 554h93l145 -554h5l129 554h112l-187 -689h-101l-148 539h-4zM900 55q181 0 333 89t239.5 242t87.5 334t-87.5 334t-239.5 242t-333 89t-333 -89t-239.5 -242t-87.5 -334t87.5 -334t239.5 -242t333 -89zM900 -46
q-155 0 -297 61t-245 164t-164 245t-61 297t61 297t164 245t245 164t297 61t297 -61t245 -164t164 -245t61 -297t-61 -297t-164 -245t-245 -164t-297 -61z" />
    <glyph glyph-name="uni24CD" unicode="X&#x20dd;" 
d="M1187 1079l-231 -346l227 -343h-119l-173 268h-5l-174 -268h-114l228 346l-226 343h122l171 -271h6l171 271h117zM900 55q181 0 333 89t239.5 242t87.5 334t-87.5 334t-239.5 242t-333 89t-333 -89t-239.5 -242t-87.5 -334t87.5 -334t239.5 -242t333 -89zM900 -46
q-155 0 -297 61t-245 164t-164 245t-61 297t61 297t164 245t245 164t297 61t297 -61t245 -164t164 -245t61 -297t-61 -297t-164 -245t-245 -164t-297 -61z" />
    <glyph glyph-name="uni24CE" unicode="Y&#x20dd;" 
d="M952 387h-103v281l-251 407h115l186 -308h4l186 308h113l-250 -405v-283zM900 55q181 0 333 89t239.5 242t87.5 334t-87.5 334t-239.5 242t-333 89t-333 -89t-239.5 -242t-87.5 -334t87.5 -334t239.5 -242t333 -89zM900 -46q-155 0 -297 61t-245 164t-164 245t-61 297
t61 297t164 245t245 164t297 61t297 -61t245 -164t164 -245t61 -297t-61 -297t-164 -245t-245 -164t-297 -61z" />
    <glyph glyph-name="uni24CF" unicode="Z&#x20dd;" 
d="M637 390v71l388 528v6h-376v84h499v-71l-385 -528v-6h394v-84h-520zM900 55q181 0 333 89t239.5 242t87.5 334t-87.5 334t-239.5 242t-333 89t-333 -89t-239.5 -242t-87.5 -334t87.5 -334t239.5 -242t333 -89zM900 -46q-155 0 -297 61t-245 164t-164 245t-61 297t61 297
t164 245t245 164t297 61t297 -61t245 -164t164 -245t61 -297t-61 -297t-164 -245t-245 -164t-297 -61z" />
    <glyph glyph-name="uni24EA" unicode="&#x23;&#x20dd;" 
d="M900 461q73 0 117 72.5t44 197.5q0 124 -44 197t-117 73t-117 -73t-44 -197q0 -125 44 -197.5t117 -72.5zM900 373q-116 0 -187.5 96t-71.5 262q0 165 71.5 261t187.5 96t187.5 -96t71.5 -261q0 -166 -71.5 -262t-187.5 -96zM900 55q181 0 333 89t239.5 242t87.5 334
t-87.5 334t-239.5 242t-333 89t-333 -89t-239.5 -242t-87.5 -334t87.5 -334t239.5 -242t333 -89zM900 -46q-155 0 -297 61t-245 164t-164 245t-61 297t61 297t164 245t245 164t297 61t297 -61t245 -164t164 -245t61 -297t-61 -297t-164 -245t-245 -164t-297 -61z" />
    <glyph glyph-name="uni24FF" unicode="&#x30;&#x20dd;&#x25cf;" 
d="M897 441q-76 0 -120 77t-44 213q0 135 44 212.5t120 77.5q77 0 121 -77.5t44 -212.5q0 -136 -44 -213t-121 -77zM897 340q131 0 209 105.5t78 285.5q0 179 -78 284.5t-209 105.5q-130 0 -208.5 -105.5t-78.5 -284.5q0 -180 78.5 -285.5t208.5 -105.5zM900 -46
q-155 0 -297 61t-245 164t-164 245t-61 297t61 297t164 245t245 164t297 61t297 -61t245 -164t164 -245t61 -297t-61 -297t-164 -245t-245 -164t-297 -61z" />
    <glyph glyph-name="uni278A" unicode="&#x31;&#x20dd;&#x25cf;" 
d="M994 360v751h-117l-191 -130v-114l187 126h2v-633h119zM900 -46q-155 0 -297 61t-245 164t-164 245t-61 297t61 297t164 245t245 164t297 61t297 -61t245 -164t164 -245t61 -297t-61 -297t-164 -245t-245 -164t-297 -61z" />
    <glyph glyph-name="uni278B" unicode="&#x32;&#x20dd;&#x25cf;" 
d="M757 892v8q1 55 38.5 91.5t99.5 36.5q57 0 95.5 -33.5t38.5 -85.5q0 -43 -21.5 -79.5t-65.5 -82.5l-294 -313v-75h518v99h-354v1l216 231q63 69 92 117.5t29 108.5q0 91 -70.5 149.5t-181.5 58.5q-119 0 -187 -65.5t-70 -158.5v-8h117zM900 -46q-155 0 -297 61t-245 164
t-164 245t-61 297t61 297t164 245t245 164t297 61t297 -61t245 -164t164 -245t61 -297t-61 -297t-164 -245t-245 -164t-297 -61z" />
    <glyph glyph-name="uni278C" unicode="&#x33;&#x20dd;&#x25cf;" 
d="M810 699h93q67 0 110 -36t44 -92q0 -58 -44.5 -94t-117.5 -36q-63 1 -107 32t-51 75h-112q5 -88 78 -145.5t191 -57.5q122 0 203.5 61.5t80.5 162.5q-1 79 -51.5 127t-115.5 56v1q54 12 98.5 60.5t43.5 117.5q-2 84 -72.5 139.5t-182.5 55.5q-114 -1 -182.5 -57.5
t-73.5 -143.5h115q5 45 42.5 75t95.5 30q61 0 99.5 -32.5t38.5 -82.5q0 -51 -38 -85.5t-97 -34.5h-88v-96zM900 -46q-155 0 -297 61t-245 164t-164 245t-61 297t61 297t164 245t245 164t297 61t297 -61t245 -164t164 -245t61 -297t-61 -297t-164 -245t-245 -164t-297 -61z
" />
    <glyph glyph-name="uni278D" unicode="&#x34;&#x20dd;&#x25cf;" 
d="M893 1111q-265 -408 -319 -502v-97h375v-152h116v152h104v98h-104v501h-172zM949 610h-259v2q88 150 258 401h1v-403zM900 -46q-155 0 -297 61t-245 164t-164 245t-61 297t61 297t164 245t245 164t297 61t297 -61t245 -164t164 -245t61 -297t-61 -297t-164 -245
t-245 -164t-297 -61z" />
    <glyph glyph-name="uni278E" unicode="&#x35;&#x20dd;&#x25cf;" 
d="M632 547q5 -86 79 -143.5t185 -57.5q126 0 205 72t79 190q0 110 -72.5 177.5t-179.5 67.5q-56 0 -99 -20.5t-65 -49.5h-1l19 231h355v97h-455l-34 -434h106q51 80 148 80q68 0 113.5 -42.5t45.5 -110.5q0 -72 -47 -116.5t-113 -44.5q-57 0 -102 28.5t-54 75.5h-113z
M900 -46q-155 0 -297 61t-245 164t-164 245t-61 297t61 297t164 245t245 164t297 61t297 -61t245 -164t164 -245t61 -297t-61 -297t-164 -245t-245 -164t-297 -61z" />
    <glyph glyph-name="uni278F" unicode="&#x36;&#x20dd;&#x25cf;" 
d="M928 343q127 0 209 73.5t82 187.5q0 107 -75 177.5t-189 70.5q-74 0 -132 -33t-84 -91h-9q1 143 54 220.5t149 77.5q59 0 100 -27.5t52 -73.5h121q-14 90 -89 145t-186 55q-147 0 -232 -107t-85 -294t86.5 -284t227.5 -97zM927 441q-74 0 -123.5 47t-49.5 117
q0 66 49 110.5t124 44.5t123.5 -45t48.5 -113q0 -69 -49.5 -115t-122.5 -46zM900 -46q-155 0 -297 61t-245 164t-164 245t-61 297t61 297t164 245t245 164t297 61t297 -61t245 -164t164 -245t61 -297t-61 -297t-164 -245t-245 -164t-297 -61z" />
    <glyph glyph-name="uni2790" unicode="&#x37;&#x20dd;&#x25cf;" 
d="M652 1104v-100h395v-2l-328 -649h129l322 652v99h-518zM900 -46q-155 0 -297 61t-245 164t-164 245t-61 297t61 297t164 245t245 164t297 61t297 -61t245 -164t164 -245t61 -297t-61 -297t-164 -245t-245 -164t-297 -61z" />
    <glyph glyph-name="uni2791" unicode="&#x38;&#x20dd;&#x25cf;" 
d="M898 796q-62 0 -101.5 33.5t-39.5 85.5q0 53 39.5 86t101.5 33t101.5 -33t39.5 -86q0 -52 -40 -85.5t-101 -33.5zM898 436q-74 0 -122 39t-48 98t48.5 97.5t121.5 38.5t121 -38.5t48 -97.5t-48 -98t-121 -39zM898 345q128 0 208.5 61.5t80.5 160.5q0 68 -44 119.5
t-117 67.5v1q61 19 95.5 65t34.5 106q0 88 -72 144t-186 56t-186 -56t-72 -144q0 -60 34.5 -105.5t95.5 -65.5v-1q-73 -16 -117 -67.5t-44 -119.5q0 -99 80.5 -160.5t208.5 -61.5zM900 -46q-155 0 -297 61t-245 164t-164 245t-61 297t61 297t164 245t245 164t297 61t297 -61
t245 -164t164 -245t61 -297t-61 -297t-164 -245t-245 -164t-297 -61z" />
    <glyph glyph-name="uni2792" unicode="&#x39;&#x20dd;&#x25cf;" 
d="M901 343q149 0 233.5 106.5t84.5 294.5q0 183 -85.5 282t-228.5 99q-127 0 -209 -73.5t-82 -188.5q0 -107 74 -177t189 -70q74 0 132 33t84 90h9q0 -143 -53 -220.5t-147 -77.5q-58 0 -99.5 27.5t-54.5 73.5h-122q17 -90 92 -144.5t183 -54.5zM905 709q-75 0 -123 44
t-48 113q0 68 49 114t123 46t123.5 -47t49.5 -116q0 -66 -49.5 -110t-124.5 -44zM900 -46q-155 0 -297 61t-245 164t-164 245t-61 297t61 297t164 245t245 164t297 61t297 -61t245 -164t164 -245t61 -297t-61 -297t-164 -245t-245 -164t-297 -61z" />
    <glyph glyph-name="uni1F130" unicode="A&#x20de;" 
d="M788 668h225l-109 312h-8zM694 392h-104l251 689h118l252 -689h-105l-69 199h-273zM399 1462h1002q101 0 170 -68t69 -168v-1009q0 -100 -69 -167.5t-170 -67.5h-1002q-101 0 -170 67.5t-69 167.5v1009q0 100 69 168t170 68zM1538 1225q0 62 -41.5 103t-105.5 41h-982
q-64 0 -105.5 -40.5t-41.5 -103.5v-1006q0 -63 41.5 -103.5t105.5 -40.5h982q64 0 105.5 40.5t41.5 103.5v1006z" />
    <glyph glyph-name="uni1F131" unicode="B&#x20de;" 
d="M670 389v689h277q94 0 150 -46.5t56 -123.5q0 -60 -32.5 -100t-85.5 -52v-5q69 -8 113 -52t44 -117q0 -90 -67 -141.5t-179 -51.5h-276zM771 999v-218h126q76 0 115.5 29.5t39.5 80.5t-33 79.5t-93 28.5h-155zM771 707v-239h134q94 0 138 29t44 88q0 57 -38.5 89.5
t-108.5 32.5h-169zM399 1462h1002q101 0 170 -68t69 -168v-1009q0 -100 -69 -167.5t-170 -67.5h-1002q-101 0 -170 67.5t-69 167.5v1009q0 100 69 168t170 68zM1538 1225q0 62 -41.5 103t-105.5 41h-982q-64 0 -105.5 -40.5t-41.5 -103.5v-1006q0 -63 41.5 -103.5
t105.5 -40.5h982q64 0 105.5 40.5t41.5 103.5v1006z" />
    <glyph glyph-name="uni1F132" unicode="C&#x20de;" 
d="M1088 596h104q-14 -100 -93.5 -162t-197.5 -62q-142 0 -229 99t-87 259t87 259t229 99q120 0 200.5 -64.5t91.5 -168.5h-102q-7 66 -60 107.5t-128 41.5q-96 0 -155.5 -76t-59.5 -198t59.5 -198t155.5 -76q74 0 125 39.5t60 100.5zM399 1462h1002q101 0 170 -68t69 -168
v-1009q0 -100 -69 -167.5t-170 -67.5h-1002q-101 0 -170 67.5t-69 167.5v1009q0 100 69 168t170 68zM1538 1225q0 62 -41.5 103t-105.5 41h-982q-64 0 -105.5 -40.5t-41.5 -103.5v-1006q0 -63 41.5 -103.5t105.5 -40.5h982q64 0 105.5 40.5t41.5 103.5v1006z" />
    <glyph glyph-name="uni1F133" unicode="D&#x20de;" 
d="M651 1071h238q154 0 235 -88.5t81 -250.5q0 -164 -81 -253t-235 -89h-238v681zM753 988v-515h123q222 0 222 258q0 125 -56.5 191t-165.5 66h-123zM399 1462h1002q101 0 170 -68t69 -168v-1009q0 -100 -69 -167.5t-170 -67.5h-1002q-101 0 -170 67.5t-69 167.5v1009
q0 100 69 168t170 68zM1538 1225q0 62 -41.5 103t-105.5 41h-982q-64 0 -105.5 -40.5t-41.5 -103.5v-1006q0 -63 41.5 -103.5t105.5 -40.5h982q64 0 105.5 40.5t41.5 103.5v1006z" />
    <glyph glyph-name="uni1F134" unicode="E&#x20de;" 
d="M1127 469v-83h-444v689h444v-83h-343v-216h324v-79h-324v-228h343zM399 1462h1002q101 0 170 -68t69 -168v-1009q0 -100 -69 -167.5t-170 -67.5h-1002q-101 0 -170 67.5t-69 167.5v1009q0 100 69 168t170 68zM1538 1225q0 62 -41.5 103t-105.5 41h-982
q-64 0 -105.5 -40.5t-41.5 -103.5v-1006q0 -63 41.5 -103.5t105.5 -40.5h982q64 0 105.5 40.5t41.5 103.5v1006z" />
    <glyph glyph-name="uni1F135" unicode="F&#x20de;" 
d="M813 386h-103v689h439v-84h-336v-229h308v-82h-308v-294zM399 1462h1002q101 0 170 -68t69 -168v-1009q0 -100 -69 -167.5t-170 -67.5h-1002q-101 0 -170 67.5t-69 167.5v1009q0 100 69 168t170 68zM1538 1225q0 62 -41.5 103t-105.5 41h-982q-64 0 -105.5 -40.5
t-41.5 -103.5v-1006q0 -63 41.5 -103.5t105.5 -40.5h982q64 0 105.5 40.5t41.5 103.5v1006z" />
    <glyph glyph-name="uni1F136" unicode="G&#x20de;" 
d="M1091 616v52h-183v77h280v-108q0 -120 -75 -192.5t-210 -72.5q-142 0 -230 99t-88 259t88 259t230 99q117 0 196.5 -62t92.5 -161h-102q-10 61 -61.5 100t-124.5 39q-97 0 -156.5 -75t-59.5 -199q0 -123 59.5 -198.5t156.5 -75.5q88 0 137.5 43.5t49.5 116.5zM399 1462
h1002q101 0 170 -68t69 -168v-1009q0 -100 -69 -167.5t-170 -67.5h-1002q-101 0 -170 67.5t-69 167.5v1009q0 100 69 168t170 68zM1538 1225q0 62 -41.5 103t-105.5 41h-982q-64 0 -105.5 -40.5t-41.5 -103.5v-1006q0 -63 41.5 -103.5t105.5 -40.5h982q64 0 105.5 40.5
t41.5 103.5v1006z" />
    <glyph glyph-name="uni1F137" unicode="H&#x20de;" 
d="M1180 386h-102v314h-355v-314h-102v689h102v-292h355v292h102v-689zM399 1462h1002q101 0 170 -68t69 -168v-1009q0 -100 -69 -167.5t-170 -67.5h-1002q-101 0 -170 67.5t-69 167.5v1009q0 100 69 168t170 68zM1538 1225q0 62 -41.5 103t-105.5 41h-982
q-64 0 -105.5 -40.5t-41.5 -103.5v-1006q0 -63 41.5 -103.5t105.5 -40.5h982q64 0 105.5 40.5t41.5 103.5v1006z" />
    <glyph glyph-name="uni1F138" unicode="I&#x20de;" 
d="M952 386h-104v689h104v-689zM399 1462h1002q101 0 170 -68t69 -168v-1009q0 -100 -69 -167.5t-170 -67.5h-1002q-101 0 -170 67.5t-69 167.5v1009q0 100 69 168t170 68zM1538 1225q0 62 -41.5 103t-105.5 41h-982q-64 0 -105.5 -40.5t-41.5 -103.5v-1006
q0 -63 41.5 -103.5t105.5 -40.5h982q64 0 105.5 40.5t41.5 103.5v1006z" />
    <glyph glyph-name="uni1F139" unicode="J&#x20de;" 
d="M651 566h99q1 -46 34 -75.5t83 -29.5q57 0 87.5 34.5t30.5 94.5v485h102v-482q0 -104 -58.5 -162t-161.5 -58q-99 0 -157.5 55t-58.5 138zM399 1462h1002q101 0 170 -68t69 -168v-1009q0 -100 -69 -167.5t-170 -67.5h-1002q-101 0 -170 67.5t-69 167.5v1009q0 100 69 168
t170 68zM1538 1225q0 62 -41.5 103t-105.5 41h-982q-64 0 -105.5 -40.5t-41.5 -103.5v-1006q0 -63 41.5 -103.5t105.5 -40.5h982q64 0 105.5 40.5t41.5 103.5v1006z" />
    <glyph glyph-name="uni1F13A" unicode="&#x212a;&#x20de;" 
d="M1190 1075l-270 -295l285 -394h-127l-234 327l-87 -91v-236h-102v689h102v-333h5l310 333h118zM399 1462h1002q101 0 170 -68t69 -168v-1009q0 -100 -69 -167.5t-170 -67.5h-1002q-101 0 -170 67.5t-69 167.5v1009q0 100 69 168t170 68zM1538 1225q0 62 -41.5 103
t-105.5 41h-982q-64 0 -105.5 -40.5t-41.5 -103.5v-1006q0 -63 41.5 -103.5t105.5 -40.5h982q64 0 105.5 40.5t41.5 103.5v1006z" />
    <glyph glyph-name="uni1F13B" unicode="L&#x20de;" 
d="M1163 472v-86h-433v689h103v-603h330zM399 1462h1002q101 0 170 -68t69 -168v-1009q0 -100 -69 -167.5t-170 -67.5h-1002q-101 0 -170 67.5t-69 167.5v1009q0 100 69 168t170 68zM1538 1225q0 62 -41.5 103t-105.5 41h-982q-64 0 -105.5 -40.5t-41.5 -103.5v-1006
q0 -63 41.5 -103.5t105.5 -40.5h982q64 0 105.5 40.5t41.5 103.5v1006z" />
    <glyph glyph-name="uni1F13C" unicode="M&#x20de;" 
d="M654 386h-92v689h110l227 -565h4l227 565h108v-689h-92v521h-5l-202 -507h-77l-202 507h-6v-521zM399 1462h1002q101 0 170 -68t69 -168v-1009q0 -100 -69 -167.5t-170 -67.5h-1002q-101 0 -170 67.5t-69 167.5v1009q0 100 69 168t170 68zM1538 1225q0 62 -41.5 103
t-105.5 41h-982q-64 0 -105.5 -40.5t-41.5 -103.5v-1006q0 -63 41.5 -103.5t105.5 -40.5h982q64 0 105.5 40.5t41.5 103.5v1006z" />
    <glyph glyph-name="uni1F13D" unicode="N&#x20de;" 
d="M721 386h-98v689h95l356 -528h5v528h98v-689h-95l-356 529h-5v-529zM399 1462h1002q101 0 170 -68t69 -168v-1009q0 -100 -69 -167.5t-170 -67.5h-1002q-101 0 -170 67.5t-69 167.5v1009q0 100 69 168t170 68zM1538 1225q0 62 -41.5 103t-105.5 41h-982
q-64 0 -105.5 -40.5t-41.5 -103.5v-1006q0 -63 41.5 -103.5t105.5 -40.5h982q64 0 105.5 40.5t41.5 103.5v1006z" />
    <glyph glyph-name="uni1F13E" unicode="O&#x20de;" 
d="M900 456q96 0 157 74t61 200t-61 200t-157 74t-157 -74t-61 -200t61 -200t157 -74zM900 372q-140 0 -230.5 97t-90.5 261t90.5 261t230.5 97t230.5 -97t90.5 -261t-90.5 -261t-230.5 -97zM399 1462h1002q101 0 170 -68t69 -168v-1009q0 -100 -69 -167.5t-170 -67.5h-1002
q-101 0 -170 67.5t-69 167.5v1009q0 100 69 168t170 68zM1538 1225q0 62 -41.5 103t-105.5 41h-982q-64 0 -105.5 -40.5t-41.5 -103.5v-1006q0 -63 41.5 -103.5t105.5 -40.5h982q64 0 105.5 40.5t41.5 103.5v1006z" />
    <glyph glyph-name="uni1F13F" unicode="P&#x20de;" 
d="M956 1075q106 0 169 -62t63 -158t-63 -157.5t-169 -61.5h-165v-250h-102v689h267zM1083 855q0 64 -38 101t-103 37h-151v-276h151q65 0 103 37t38 101zM399 1462h1002q101 0 170 -68t69 -168v-1009q0 -100 -69 -167.5t-170 -67.5h-1002q-101 0 -170 67.5t-69 167.5v1009
q0 100 69 168t170 68zM1538 1225q0 62 -41.5 103t-105.5 41h-982q-64 0 -105.5 -40.5t-41.5 -103.5v-1006q0 -63 41.5 -103.5t105.5 -40.5h982q64 0 105.5 40.5t41.5 103.5v1006z" />
    <glyph glyph-name="uni1F140" unicode="Q&#x20de;" 
d="M1185 311h-102l-61 84q-57 -23 -122 -23q-140 0 -230.5 97t-90.5 261t90.5 261t230.5 97t230.5 -97t90.5 -261q0 -196 -127 -294zM900 456q38 0 68 12l-88 122h101l57 -78q80 75 80 218q0 126 -61 200t-157 74t-157 -74t-61 -200t61 -200t157 -74zM399 1462h1002
q101 0 170 -68t69 -168v-1009q0 -100 -69 -167.5t-170 -67.5h-1002q-101 0 -170 67.5t-69 167.5v1009q0 100 69 168t170 68zM1538 1225q0 62 -41.5 103t-105.5 41h-982q-64 0 -105.5 -40.5t-41.5 -103.5v-1006q0 -63 41.5 -103.5t105.5 -40.5h982q64 0 105.5 40.5
t41.5 103.5v1006z" />
    <glyph glyph-name="uni1F141" unicode="R&#x20de;" 
d="M929 1075q109 0 173 -57.5t64 -153.5q0 -72 -40 -123.5t-102 -70.5l153 -284h-115l-140 269h-159v-269h-100v689h266zM763 733h151q68 0 107 34t39 95q0 62 -39 97t-104 35h-154v-261zM399 1462h1002q101 0 170 -68t69 -168v-1009q0 -100 -69 -167.5t-170 -67.5h-1002
q-101 0 -170 67.5t-69 167.5v1009q0 100 69 168t170 68zM1538 1225q0 62 -41.5 103t-105.5 41h-982q-64 0 -105.5 -40.5t-41.5 -103.5v-1006q0 -63 41.5 -103.5t105.5 -40.5h982q64 0 105.5 40.5t41.5 103.5v1006z" />
    <glyph glyph-name="uni1F142" unicode="S&#x20de;" 
d="M627 575h101q5 -53 54.5 -87.5t120.5 -34.5t117.5 33.5t46.5 85.5q0 77 -130 109l-115 27q-175 41 -175 181q0 89 71.5 145t184.5 56t183.5 -54.5t71.5 -142.5h-98q-5 51 -49.5 84t-108.5 33t-108 -33.5t-44 -82.5q0 -34 30 -60.5t83 -39.5l114 -26q101 -24 146.5 -68.5
t45.5 -118.5q0 -96 -74 -152t-200 -56q-119 0 -192 55t-76 147zM399 1462h1002q101 0 170 -68t69 -168v-1009q0 -100 -69 -167.5t-170 -67.5h-1002q-101 0 -170 67.5t-69 167.5v1009q0 100 69 168t170 68zM1538 1225q0 62 -41.5 103t-105.5 41h-982q-64 0 -105.5 -40.5
t-41.5 -103.5v-1006q0 -63 41.5 -103.5t105.5 -40.5h982q64 0 105.5 40.5t41.5 103.5v1006z" />
    <glyph glyph-name="uni1F143" unicode="T&#x20de;" 
d="M952 380h-103v604h-219v85h541v-85h-219v-604zM399 1462h1002q101 0 170 -68t69 -168v-1009q0 -100 -69 -167.5t-170 -67.5h-1002q-101 0 -170 67.5t-69 167.5v1009q0 100 69 168t170 68zM1538 1225q0 62 -41.5 103t-105.5 41h-982q-64 0 -105.5 -40.5t-41.5 -103.5
v-1006q0 -63 41.5 -103.5t105.5 -40.5h982q64 0 105.5 40.5t41.5 103.5v1006z" />
    <glyph glyph-name="uni1F144" unicode="U&#x20de;" 
d="M900 450q79 0 128 46t49 125v446h102v-453q0 -113 -76.5 -181.5t-202.5 -68.5t-202.5 68.5t-76.5 181.5v453h102v-446q0 -79 49 -125t128 -46zM399 1462h1002q101 0 170 -68t69 -168v-1009q0 -100 -69 -167.5t-170 -67.5h-1002q-101 0 -170 67.5t-69 167.5v1009
q0 100 69 168t170 68zM1538 1225q0 62 -41.5 103t-105.5 41h-982q-64 0 -105.5 -40.5t-41.5 -103.5v-1006q0 -63 41.5 -103.5t105.5 -40.5h982q64 0 105.5 40.5t41.5 103.5v1006z" />
    <glyph glyph-name="uni1F145" unicode="V&#x20de;" 
d="M837 378l-253 688h118l195 -580h6l195 580h118l-253 -688h-126zM399 1462h1002q101 0 170 -68t69 -168v-1009q0 -100 -69 -167.5t-170 -67.5h-1002q-101 0 -170 67.5t-69 167.5v1009q0 100 69 168t170 68zM1538 1225q0 62 -41.5 103t-105.5 41h-982q-64 0 -105.5 -40.5
t-41.5 -103.5v-1006q0 -63 41.5 -103.5t105.5 -40.5h982q64 0 105.5 40.5t41.5 103.5v1006z" />
    <glyph glyph-name="uni1F146" unicode="W&#x20de;" 
d="M900 917l-148 -539h-100l-188 688h112l129 -553h6l145 553h93l145 -553h5l129 553h112l-187 -688h-101l-148 539h-4zM399 1462h1002q101 0 170 -68t69 -168v-1009q0 -100 -69 -167.5t-170 -67.5h-1002q-101 0 -170 67.5t-69 167.5v1009q0 100 69 168t170 68zM1538 1225
q0 62 -41.5 103t-105.5 41h-982q-64 0 -105.5 -40.5t-41.5 -103.5v-1006q0 -63 41.5 -103.5t105.5 -40.5h982q64 0 105.5 40.5t41.5 103.5v1006z" />
    <glyph glyph-name="uni1F147" unicode="X&#x20de;" 
d="M1187 1079l-231 -346l227 -343h-119l-173 268h-5l-174 -268h-114l228 346l-226 343h122l171 -271h6l171 271h117zM399 1462h1002q101 0 170 -68t69 -168v-1009q0 -100 -69 -167.5t-170 -67.5h-1002q-101 0 -170 67.5t-69 167.5v1009q0 100 69 168t170 68zM1538 1225
q0 62 -41.5 103t-105.5 41h-982q-64 0 -105.5 -40.5t-41.5 -103.5v-1006q0 -63 41.5 -103.5t105.5 -40.5h982q64 0 105.5 40.5t41.5 103.5v1006z" />
    <glyph glyph-name="uni1F148" unicode="Y&#x20de;" 
d="M952 390h-103v282l-251 407h115l186 -309h4l186 309h113l-250 -406v-283zM399 1462h1002q101 0 170 -68t69 -168v-1009q0 -100 -69 -167.5t-170 -67.5h-1002q-101 0 -170 67.5t-69 167.5v1009q0 100 69 168t170 68zM1538 1225q0 62 -41.5 103t-105.5 41h-982
q-64 0 -105.5 -40.5t-41.5 -103.5v-1006q0 -63 41.5 -103.5t105.5 -40.5h982q64 0 105.5 40.5t41.5 103.5v1006z" />
    <glyph glyph-name="uni1F149" unicode="Z&#x20de;" 
d="M637 390v71l388 528v6h-376v84h499v-71l-385 -528v-6h394v-84h-520zM399 1462h1002q101 0 170 -68t69 -168v-1009q0 -100 -69 -167.5t-170 -67.5h-1002q-101 0 -170 67.5t-69 167.5v1009q0 100 69 168t170 68zM1538 1225q0 62 -41.5 103t-105.5 41h-982
q-64 0 -105.5 -40.5t-41.5 -103.5v-1006q0 -63 41.5 -103.5t105.5 -40.5h982q64 0 105.5 40.5t41.5 103.5v1006z" />
    <glyph glyph-name="uni1F150" unicode="A&#x20dd;&#x25cf;" 
d="M1015 683h-230l113 324h4zM683 376l73 213h288l74 -213h125l-273 752h-140l-273 -752h126zM900 -46q-155 0 -297 61t-245 164t-164 245t-61 297t61 297t164 245t245 164t297 61t297 -61t245 -164t164 -245t61 -297t-61 -297t-164 -245t-245 -164t-297 -61z" />
    <glyph glyph-name="uni1F151" unicode="B&#x20dd;&#x25cf;" 
d="M642 360h303q125 0 198 56.5t73 154.5q0 75 -45 125t-121 61v1q57 16 90 60t33 106q0 84 -61.5 135.5t-165.5 51.5h-304v-751zM762 1017h161q61 0 95.5 -30t34.5 -82q0 -54 -41.5 -84t-120.5 -30h-129v226zM762 701h177q72 0 112.5 -33.5t40.5 -92.5q0 -121 -192 -121
h-138v247zM900 -46q-155 0 -297 61t-245 164t-164 245t-61 297t61 297t164 245t245 164t297 61t297 -61t245 -164t164 -245t61 -297t-61 -297t-164 -245t-245 -164t-297 -61z" />
    <glyph glyph-name="uni1F152" unicode="C&#x20dd;&#x25cf;" 
d="M1098 584q-11 -59 -65 -98t-129 -39q-99 0 -162 78t-63 205q0 126 63 205t162 79q75 0 130 -43t67 -105h122q-14 114 -101.5 184t-219.5 70q-155 0 -251.5 -108t-96.5 -282t96.5 -282t251.5 -108q129 0 215.5 67t103.5 177h-123zM900 -46q-155 0 -297 61t-245 164
t-164 245t-61 297t61 297t164 245t245 164t297 61t297 -61t245 -164t164 -245t61 -297t-61 -297t-164 -245t-245 -164t-297 -61z" />
    <glyph glyph-name="uni1F153" unicode="D&#x20dd;&#x25cf;" 
d="M637 1104v-743h262q167 0 256.5 96t89.5 277q0 178 -89.5 274t-256.5 96h-262zM757 1004h128q115 0 175.5 -69t60.5 -203q0 -271 -236 -271h-128v543zM900 -46q-155 0 -297 61t-245 164t-164 245t-61 297t61 297t164 245t245 164t297 61t297 -61t245 -164t164 -245
t61 -297t-61 -297t-164 -245t-245 -164t-297 -61z" />
    <glyph glyph-name="uni1F154" unicode="E&#x20dd;&#x25cf;" 
d="M1147 456h-369v234h348v95h-348v223h369v100h-490v-752h490v100zM900 -46q-155 0 -297 61t-245 164t-164 245t-61 297t61 297t164 245t245 164t297 61t297 -61t245 -164t164 -245t61 -297t-61 -297t-164 -245t-245 -164t-297 -61z" />
    <glyph glyph-name="uni1F155" unicode="F&#x20dd;&#x25cf;" 
d="M807 356v316h332v100h-332v235h361v101h-482v-752h121zM900 -46q-155 0 -297 61t-245 164t-164 245t-61 297t61 297t164 245t245 164t297 61t297 -61t245 -164t164 -245t61 -297t-61 -297t-164 -245t-245 -164t-297 -61z" />
    <glyph glyph-name="uni1F156" unicode="G&#x20dd;&#x25cf;" 
d="M1101 626q0 -76 -51.5 -125t-144.5 -49q-100 0 -162.5 75.5t-62.5 202.5t62.5 203t162.5 76q79 0 132 -36t62 -89h123q-14 103 -102 169.5t-216 66.5q-155 0 -252.5 -108t-97.5 -282t97 -281.5t252 -107.5q144 0 230 84t86 215v119h-304v-103h186v-30zM900 -46
q-155 0 -297 61t-245 164t-164 245t-61 297t61 297t164 245t245 164t297 61t297 -61t245 -164t164 -245t61 -297t-61 -297t-164 -245t-245 -164t-297 -61z" />
    <glyph glyph-name="uni1F157" unicode="H&#x20dd;&#x25cf;" 
d="M1208 356v752h-120v-315h-375v315h-121v-752h121v337h375v-337h120zM900 -46q-155 0 -297 61t-245 164t-164 245t-61 297t61 297t164 245t245 164t297 61t297 -61t245 -164t164 -245t61 -297t-61 -297t-164 -245t-245 -164t-297 -61z" />
    <glyph glyph-name="uni1F158" unicode="I&#x20dd;&#x25cf;" 
d="M960 356v752h-120v-752h120zM900 -46q-155 0 -297 61t-245 164t-164 245t-61 297t61 297t164 245t245 164t297 61t297 -61t245 -164t164 -245t61 -297t-61 -297t-164 -245t-245 -164t-297 -61z" />
    <glyph glyph-name="uni1F159" unicode="J&#x20dd;&#x25cf;" 
d="M626 559q1 -97 66.5 -156.5t172.5 -59.5q114 0 178 63.5t64 177.5v524h-121v-528q0 -63 -31.5 -97.5t-90.5 -34.5q-52 0 -85 31t-35 80h-118zM900 -46q-155 0 -297 61t-245 164t-164 245t-61 297t61 297t164 245t245 164t297 61t297 -61t245 -164t164 -245t61 -297
t-61 -297t-164 -245t-245 -164t-297 -61z" />
    <glyph glyph-name="uni1F15A" unicode="&#x212a;&#x20dd;&#x25cf;" 
d="M1217 1108h-139l-330 -356h-1v356h-121v-752h121v257l87 92l250 -349h148l-311 428zM901 -46q-155 0 -297 61t-245 164t-164 245t-61 297t61 297t164 245t245 164t297 61t297 -61t245 -164t164 -245t61 -297t-61 -297t-164 -245t-245 -164t-297 -61z" />
    <glyph glyph-name="uni1F15B" unicode="L&#x20dd;&#x25cf;" 
d="M1175 459h-354v649h-121v-752h475v103zM900 -46q-155 0 -297 61t-245 164t-164 245t-61 297t61 297t164 245t245 164t297 61t297 -61t245 -164t164 -245t61 -297t-61 -297t-164 -245t-245 -164t-297 -61z" />
    <glyph glyph-name="uni1F15C" unicode="M&#x20dd;&#x25cf;" 
d="M640 356v563h1l213 -545h92l212 542h2v-560h111v752h-129l-242 -608h-1l-240 608h-129v-752h110zM900 -46q-155 0 -297 61t-245 164t-164 245t-61 297t61 297t164 245t245 164t297 61t297 -61t245 -164t164 -245t61 -297t-61 -297t-164 -245t-245 -164t-297 -61z" />
    <glyph glyph-name="uni1F15D" unicode="N&#x20dd;&#x25cf;" 
d="M713 356v565h1l377 -565h113v752h-116v-565h-1l-379 565h-111v-752h116zM900 -46q-155 0 -297 61t-245 164t-164 245t-61 297t61 297t164 245t245 164t297 61t297 -61t245 -164t164 -245t61 -297t-61 -297t-164 -245t-245 -164t-297 -61z" />
    <glyph glyph-name="uni1F15E" unicode="O&#x20dd;&#x25cf;" 
d="M900 443q-100 0 -164 77.5t-64 209.5t64 210t164 78t164 -78t64 -210t-64 -209.5t-164 -77.5zM900 340q153 0 251.5 105.5t98.5 284.5q0 180 -98.5 285t-251.5 105t-251.5 -105t-98.5 -285q0 -179 98.5 -284.5t251.5 -105.5zM900 -46q-155 0 -297 61t-245 164t-164 245
t-61 297t61 297t164 245t245 164t297 61t297 -61t245 -164t164 -245t61 -297t-61 -297t-164 -245t-245 -164t-297 -61z" />
    <glyph glyph-name="uni1F15F" unicode="P&#x20dd;&#x25cf;" 
d="M955 1108h-293v-752h121v271h172q114 0 185 66t71 173t-71 174.5t-185 67.5zM1087 866q0 -66 -39.5 -104.5t-107.5 -38.5h-157v287h157q68 0 107.5 -39t39.5 -105zM900 -46q-155 0 -297 61t-245 164t-164 245t-61 297t61 297t164 245t245 164t297 61t297 -61t245 -164
t164 -245t61 -297t-61 -297t-164 -245t-245 -164t-297 -61z" />
    <glyph glyph-name="uni1F160" unicode="Q&#x20dd;&#x25cf;" 
d="M1220 277l-102 138q132 105 132 315q0 180 -98.5 285t-251.5 105t-251.5 -105t-98.5 -285q0 -179 98.5 -284.5t251.5 -105.5q69 0 129 24l63 -87h128zM900 443q-100 0 -164 77.5t-64 209.5t64 210t164 78t164 -78t64 -210q0 -145 -79 -222l-57 79h-124l96 -134
q-33 -10 -64 -10zM900 -46q-155 0 -297 61t-245 164t-164 245t-61 297t61 297t164 245t245 164t297 61t297 -61t245 -164t164 -245t61 -297t-61 -297t-164 -245t-245 -164t-297 -61z" />
    <glyph glyph-name="uni1F161" unicode="R&#x20dd;&#x25cf;" 
d="M754 741v269h160q68 0 108.5 -37t40.5 -99t-40.5 -97.5t-110.5 -35.5h-158zM927 1108h-292v-752h119v292h161l150 -292h137l-166 309q69 21 110 78.5t41 133.5q0 105 -70.5 168t-189.5 63zM900 -46q-155 0 -297 61t-245 164t-164 245t-61 297t61 297t164 245t245 164
t297 61t297 -61t245 -164t164 -245t61 -297t-61 -297t-164 -245t-245 -164t-297 -61z" />
    <glyph glyph-name="uni1F162" unicode="S&#x20dd;&#x25cf;" 
d="M600 568q3 -103 84.5 -165t210.5 -62q136 0 218 62t82 166q0 82 -51.5 132t-159.5 76l-123 29q-56 13 -86.5 40t-30.5 63q0 53 43.5 86t114.5 33q69 0 115 -34.5t51 -88.5h115q-2 95 -79.5 157.5t-200.5 62.5q-124 0 -202 -62t-78 -160q0 -76 49.5 -127t142.5 -73
l123 -30q72 -17 104 -44t32 -69q0 -55 -47.5 -88t-124.5 -33q-76 0 -127.5 36.5t-55.5 92.5h-119zM900 -46q-155 0 -297 61t-245 164t-164 245t-61 297t61 297t164 245t245 164t297 61t297 -61t245 -164t164 -245t61 -297t-61 -297t-164 -245t-245 -164t-297 -61z" />
    <glyph glyph-name="uni1F163" unicode="T&#x20dd;&#x25cf;" 
d="M961 336v651h234v101h-590v-101h235v-651h121zM900 -46q-155 0 -297 61t-245 164t-164 245t-61 297t61 297t164 245t245 164t297 61t297 -61t245 -164t164 -245t61 -297t-61 -297t-164 -245t-245 -164t-297 -61z" />
    <glyph glyph-name="uni1F164" unicode="U&#x20dd;&#x25cf;" 
d="M900 423q-85 0 -135 47.5t-50 131.5v484h-121v-493q0 -123 84 -198t222 -75q137 0 221.5 75t84.5 198v493h-121v-484q0 -83 -50 -131t-135 -48zM900 -46q-155 0 -297 61t-245 164t-164 245t-61 297t61 297t164 245t245 164t297 61t297 -61t245 -164t164 -245t61 -297
t-61 -297t-164 -245t-245 -164t-297 -61z" />
    <glyph glyph-name="uni1F165" unicode="V&#x20dd;&#x25cf;" 
d="M971 334l275 752h-138l-206 -627h-4l-206 627h-138l276 -752h141zM900 -46q-155 0 -297 61t-245 164t-164 245t-61 297t61 297t164 245t245 164t297 61t297 -61t245 -164t164 -245t61 -297t-61 -297t-164 -245t-245 -164t-297 -61z" />
    <glyph glyph-name="uni1F166" unicode="W&#x20dd;&#x25cf;" 
d="M900 909h4l157 -575h119l204 752h-133l-133 -596h-4l-156 596h-112l-155 -596h-4l-134 596h-132l204 -752h118zM900 -46q-155 0 -297 61t-245 164t-164 245t-61 297t61 297t164 245t245 164t297 61t297 -61t245 -164t164 -245t61 -297t-61 -297t-164 -245t-245 -164
t-297 -61z" />
    <glyph glyph-name="uni1F167" unicode="X&#x20dd;&#x25cf;" 
d="M1221 1112h-139l-182 -293h-4l-185 293h-144l246 -374l-249 -377h136l187 289h3l186 -289h141l-249 373zM900 -46q-155 0 -297 61t-245 164t-164 245t-61 297t61 297t164 245t245 164t297 61t297 -61t245 -164t164 -245t61 -297t-61 -297t-164 -245t-245 -164t-297 -61z
" />
    <glyph glyph-name="uni1F168" unicode="Y&#x20dd;&#x25cf;" 
d="M840 357h120v306l275 445h-137l-196 -332h-4l-196 332h-137l275 -445v-306zM900 -46q-155 0 -297 61t-245 164t-164 245t-61 297t61 297t164 245t245 164t297 61t297 -61t245 -164t164 -245t61 -297t-61 -297t-164 -245t-245 -164t-297 -61z" />
    <glyph glyph-name="uni1F169" unicode="Z&#x20dd;&#x25cf;" 
d="M612 361h570v100h-425v1l416 566v84h-548v-100h404v-2l-417 -566v-83zM900 -46q-155 0 -297 61t-245 164t-164 245t-61 297t61 297t164 245t245 164t297 61t297 -61t245 -164t164 -245t61 -297t-61 -297t-164 -245t-245 -164t-297 -61z" />
    <glyph glyph-name="uni1F170" unicode="A&#x20de;&#x25a0;" 
d="M1015 669h-230l113 324h4zM683 363l73 213h288l74 -213h125l-273 751h-140l-273 -751h126zM399 1462h1002q101 0 170 -68t69 -168v-1009q0 -100 -69 -167.5t-170 -67.5h-1002q-101 0 -170 67.5t-69 167.5v1009q0 100 69 168t170 68z" />
    <glyph glyph-name="uni1F171" unicode="B&#x20de;&#x25a0;" 
d="M642 360h303q123 0 197 56t74 155q0 78 -46 126.5t-120 59.5v1q55 15 89 58.5t34 107.5q0 85 -62 136t-165 51h-304v-751zM762 1017h161q61 0 95.5 -30.5t34.5 -81.5q0 -54 -41 -84t-121 -30h-129v226zM762 701h177q72 0 112.5 -33.5t40.5 -92.5q0 -121 -192 -121h-138
v247zM399 1462h1002q101 0 170 -68t69 -168v-1009q0 -100 -69 -167.5t-170 -67.5h-1002q-101 0 -170 67.5t-69 167.5v1009q0 100 69 168t170 68z" />
    <glyph glyph-name="uni1F172" unicode="C&#x20de;&#x25a0;" 
d="M1098 584q-11 -59 -65 -98t-129 -39q-99 0 -162 78t-63 205q0 126 63 205t162 79q75 0 130 -43t67 -105h122q-14 114 -101.5 184t-219.5 70q-155 0 -251.5 -108t-96.5 -282t96.5 -282t251.5 -108q129 0 215.5 67t103.5 177h-123zM399 1462h1002q101 0 170 -68t69 -168
v-1009q0 -100 -69 -167.5t-170 -67.5h-1002q-101 0 -170 67.5t-69 167.5v1009q0 100 69 168t170 68z" />
    <glyph glyph-name="uni1F173" unicode="D&#x20de;&#x25a0;" 
d="M621 1104v-743h263q168 0 256.5 96.5t88.5 276.5q0 176 -88.5 273t-256.5 97h-263zM741 1004h128q116 0 176 -69.5t60 -202.5q0 -271 -236 -271h-128v543zM399 1462h1002q101 0 170 -68t69 -168v-1009q0 -100 -69 -167.5t-170 -67.5h-1002q-101 0 -170 67.5t-69 167.5
v1009q0 100 69 168t170 68z" />
    <glyph glyph-name="uni1F174" unicode="E&#x20de;&#x25a0;" 
d="M1147 456h-369v234h348v95h-348v223h369v100h-490v-752h490v100zM399 1462h1002q101 0 170 -68t69 -168v-1009q0 -100 -69 -167.5t-170 -67.5h-1002q-101 0 -170 67.5t-69 167.5v1009q0 100 69 168t170 68z" />
    <glyph glyph-name="uni1F175" unicode="F&#x20de;&#x25a0;" 
d="M807 356v316h332v100h-332v235h361v101h-482v-752h121zM399 1462h1002q101 0 170 -68t69 -168v-1009q0 -100 -69 -167.5t-170 -67.5h-1002q-101 0 -170 67.5t-69 167.5v1009q0 100 69 168t170 68z" />
    <glyph glyph-name="uni1F176" unicode="G&#x20de;&#x25a0;" 
d="M1101 626q0 -76 -51.5 -125t-144.5 -49q-100 0 -162.5 75.5t-62.5 202.5t62.5 203t162.5 76q79 0 132 -36t62 -89h123q-14 103 -102 169.5t-216 66.5q-155 0 -252.5 -108t-97.5 -282t97 -281.5t252 -107.5q144 0 230 84t86 215v119h-304v-103h186v-30zM399 1462h1002
q101 0 170 -68t69 -168v-1009q0 -100 -69 -167.5t-170 -67.5h-1002q-101 0 -170 67.5t-69 167.5v1009q0 100 69 168t170 68z" />
    <glyph glyph-name="uni1F177" unicode="H&#x20de;&#x25a0;" 
d="M1208 356v752h-120v-315h-375v315h-121v-752h121v337h375v-337h120zM399 1462h1002q101 0 170 -68t69 -168v-1009q0 -100 -69 -167.5t-170 -67.5h-1002q-101 0 -170 67.5t-69 167.5v1009q0 100 69 168t170 68z" />
    <glyph glyph-name="uni1F178" unicode="I&#x20de;&#x25a0;" 
d="M960 356v752h-120v-752h120zM399 1462h1002q101 0 170 -68t69 -168v-1009q0 -100 -69 -167.5t-170 -67.5h-1002q-101 0 -170 67.5t-69 167.5v1009q0 100 69 168t170 68z" />
    <glyph glyph-name="uni1F179" unicode="J&#x20de;&#x25a0;" 
d="M626 559q1 -95 65 -155.5t174 -60.5q113 0 177.5 63t64.5 178v524h-121v-528q0 -63 -31 -97.5t-91 -34.5q-52 0 -85 31t-35 80h-118zM399 1462h1002q101 0 170 -68t69 -168v-1009q0 -100 -69 -167.5t-170 -67.5h-1002q-101 0 -170 67.5t-69 167.5v1009q0 100 69 168
t170 68z" />
    <glyph glyph-name="uni1F17A" unicode="&#x212a;&#x20de;&#x25a0;" 
d="M1217 1108h-139l-330 -356h-1v356h-121v-752h121v257l87 92l250 -349h148q-37 54 -159 220t-152 208zM399 1462h1002q101 0 170 -68t69 -168v-1009q0 -100 -69 -167.5t-170 -67.5h-1002q-101 0 -170 67.5t-69 167.5v1009q0 100 69 168t170 68z" />
    <glyph glyph-name="uni1F17B" unicode="L&#x20de;&#x25a0;" 
d="M1182 459h-355v649h-121v-752h476v103zM399 1462h1002q101 0 170 -68t69 -168v-1009q0 -100 -69 -167.5t-170 -67.5h-1002q-101 0 -170 67.5t-69 167.5v1009q0 100 69 168t170 68z" />
    <glyph glyph-name="uni1F17C" unicode="M&#x20de;&#x25a0;" 
d="M640 356v563h1l213 -545h92l212 542h2v-560h111v752h-129l-242 -608h-1l-240 608h-129v-752h110zM399 1462h1002q101 0 170 -68t69 -168v-1009q0 -100 -69 -167.5t-170 -67.5h-1002q-101 0 -170 67.5t-69 167.5v1009q0 100 69 168t170 68z" />
    <glyph glyph-name="uni1F17D" unicode="N&#x20de;&#x25a0;" 
d="M713 356v565h1l377 -565h113v752h-116v-565h-1l-379 565h-111v-752h116zM399 1462h1002q101 0 170 -68t69 -168v-1009q0 -100 -69 -167.5t-170 -67.5h-1002q-101 0 -170 67.5t-69 167.5v1009q0 100 69 168t170 68z" />
    <glyph glyph-name="uni1F17E" unicode="O&#x20de;&#x25a0;" 
d="M900 443q-100 0 -164 77.5t-64 209.5t64 210t164 78t164 -78t64 -210t-64 -209.5t-164 -77.5zM900 340q153 0 251.5 105.5t98.5 284.5q0 180 -98.5 285t-251.5 105t-251.5 -105t-98.5 -285q0 -179 98.5 -284.5t251.5 -105.5zM399 1462h1002q101 0 170 -68t69 -168v-1009
q0 -100 -69 -167.5t-170 -67.5h-1002q-101 0 -170 67.5t-69 167.5v1009q0 100 69 168t170 68z" />
    <glyph glyph-name="uni1F17F" unicode="P&#x20de;&#x25a0;" 
d="M955 1108h-293v-752h121v271h172q116 0 186 67t70 172t-70 173.5t-186 68.5zM1087 866q0 -66 -39.5 -104.5t-107.5 -38.5h-157v287h157q68 0 107.5 -38.5t39.5 -105.5zM399 1462h1002q101 0 170 -68t69 -168v-1009q0 -100 -69 -167.5t-170 -67.5h-1002q-101 0 -170 67.5
t-69 167.5v1009q0 100 69 168t170 68z" />
    <glyph glyph-name="uni1F180" unicode="Q&#x20de;&#x25a0;" 
d="M1220 277l-102 138q132 105 132 315q0 180 -98.5 285t-251.5 105t-251.5 -105t-98.5 -285q0 -179 98.5 -284.5t251.5 -105.5q69 0 129 24l63 -87h128zM900 443q-100 0 -164 77.5t-64 209.5t64 210t164 78t164 -78t64 -210q0 -145 -79 -222l-57 79h-124l96 -134
q-33 -10 -64 -10zM399 1462h1002q101 0 170 -68t69 -168v-1009q0 -100 -69 -167.5t-170 -67.5h-1002q-101 0 -170 67.5t-69 167.5v1009q0 100 69 168t170 68z" />
    <glyph glyph-name="uni1F181" unicode="R&#x20de;&#x25a0;" 
d="M754 741v269h160q68 0 108.5 -36.5t40.5 -99.5q0 -62 -41 -97.5t-110 -35.5h-158zM927 1108h-292v-752h119v292h161l150 -292h137l-166 309q67 20 109 76.5t42 135.5q0 105 -70 168t-190 63zM399 1462h1002q101 0 170 -68t69 -168v-1009q0 -100 -69 -167.5t-170 -67.5
h-1002q-101 0 -170 67.5t-69 167.5v1009q0 100 69 168t170 68z" />
    <glyph glyph-name="uni1F182" unicode="S&#x20de;&#x25a0;" 
d="M600 568q3 -103 84.5 -165t210.5 -62q136 0 218 62t82 166q0 82 -51.5 132t-159.5 76l-123 29q-56 13 -86.5 40t-30.5 63q0 53 43.5 86t114.5 33q69 0 115 -34.5t51 -88.5h115q-2 95 -79.5 157.5t-200.5 62.5q-124 0 -202 -62t-78 -160q0 -76 49.5 -127t142.5 -73
l123 -30q72 -17 104 -44t32 -69q0 -55 -47.5 -88t-124.5 -33q-76 0 -127.5 36.5t-55.5 92.5h-119zM399 1462h1002q101 0 170 -68t69 -168v-1009q0 -100 -69 -167.5t-170 -67.5h-1002q-101 0 -170 67.5t-69 167.5v1009q0 100 69 168t170 68z" />
    <glyph glyph-name="uni1F183" unicode="T&#x20de;&#x25a0;" 
d="M961 350v651h234v101h-590v-101h235v-651h121zM399 1462h1002q101 0 170 -68t69 -168v-1009q0 -100 -69 -167.5t-170 -67.5h-1002q-101 0 -170 67.5t-69 167.5v1009q0 100 69 168t170 68z" />
    <glyph glyph-name="uni1F184" unicode="U&#x20de;&#x25a0;" 
d="M900 437q-85 0 -135 47.5t-50 131.5v484h-121v-493q0 -124 84 -198.5t222 -74.5q137 0 221.5 75t84.5 198v493h-121v-484q0 -83 -50 -131t-135 -48zM399 1462h1002q101 0 170 -68t69 -168v-1009q0 -100 -69 -167.5t-170 -67.5h-1002q-101 0 -170 67.5t-69 167.5v1009
q0 100 69 168t170 68z" />
    <glyph glyph-name="uni1F185" unicode="V&#x20de;&#x25a0;" 
d="M971 348l275 752h-138l-206 -627h-4l-206 627h-138l276 -752h141zM399 1462h1002q101 0 170 -68t69 -168v-1009q0 -100 -69 -167.5t-170 -67.5h-1002q-101 0 -170 67.5t-69 167.5v1009q0 100 69 168t170 68z" />
    <glyph glyph-name="uni1F186" unicode="W&#x20de;&#x25a0;" 
d="M900 923h4l157 -575h119l204 752h-133l-133 -597h-4l-156 597h-112l-155 -597h-4l-134 597h-132l204 -752h118zM399 1462h1002q101 0 170 -68t69 -168v-1009q0 -100 -69 -167.5t-170 -67.5h-1002q-101 0 -170 67.5t-69 167.5v1009q0 100 69 168t170 68z" />
    <glyph glyph-name="uni1F187" unicode="X&#x20de;&#x25a0;" 
d="M1221 1112h-139l-182 -293h-4l-185 293h-144l246 -374l-249 -377h136l187 289h3l186 -289h141l-249 373zM399 1462h1002q101 0 170 -68t69 -168v-1009q0 -100 -69 -167.5t-170 -67.5h-1002q-101 0 -170 67.5t-69 167.5v1009q0 100 69 168t170 68z" />
    <glyph glyph-name="uni1F188" unicode="Y&#x20de;&#x25a0;" 
d="M840 361h120v306l275 445h-137l-196 -333h-4l-196 333h-137l275 -445v-306zM399 1462h1002q101 0 170 -68t69 -168v-1009q0 -100 -69 -167.5t-170 -67.5h-1002q-101 0 -170 67.5t-69 167.5v1009q0 100 69 168t170 68z" />
    <glyph glyph-name="uni1F189" unicode="Z&#x20de;&#x25a0;" 
d="M612 361h570v100h-425v1l416 566v84h-548v-100h404v-2l-417 -566v-83zM399 1462h1002q101 0 170 -68t69 -168v-1009q0 -100 -69 -167.5t-170 -67.5h-1002q-101 0 -170 67.5t-69 167.5v1009q0 100 69 168t170 68z" />
    <glyph glyph-name="plus.uc.whitecircle" unicode="&#x2b;&#x20dd;" 
d="M943 689v-224h-86v224h-216v82h216v215h86v-215h216v-82h-216zM900 55q181 0 333 89t239.5 242t87.5 334t-87.5 334t-239.5 242t-333 89t-333 -89t-239.5 -242t-87.5 -334t87.5 -334t239.5 -242t333 -89zM900 -46q-155 0 -297 61t-245 164t-164 245t-61 297t61 297
t164 245t245 164t297 61t297 -61t245 -164t164 -245t61 -297t-61 -297t-164 -245t-245 -164t-297 -61z" />
    <glyph glyph-name="minus.uc.whitecircle" unicode="&#x2212;&#x20dd;" 
d="M1147 685h-494v84h494v-84zM900 55q181 0 333 89t239.5 242t87.5 334t-87.5 334t-239.5 242t-333 89t-333 -89t-239.5 -242t-87.5 -334t87.5 -334t239.5 -242t333 -89zM900 -46q-155 0 -297 61t-245 164t-164 245t-61 297t61 297t164 245t245 164t297 61t297 -61
t245 -164t164 -245t61 -297t-61 -297t-164 -245t-245 -164t-297 -61z" />
    <glyph glyph-name="multiply.uc.whitecircle" unicode="&#xd7;&#x20dd;" 
d="M901 786l162 157l62 -59l-162 -157l162 -158l-62 -58l-161 157l-165 -160l-62 59l165 160l-162 157l61 59zM900 55q181 0 333 89t239.5 242t87.5 334t-87.5 334t-239.5 242t-333 89t-333 -89t-239.5 -242t-87.5 -334t87.5 -334t239.5 -242t333 -89zM900 -46
q-155 0 -297 61t-245 164t-164 245t-61 297t61 297t164 245t245 164t297 61t297 -61t245 -164t164 -245t61 -297t-61 -297t-164 -245t-245 -164t-297 -61z" />
    <glyph glyph-name="divide.uc.whitecircle" unicode="&#xf7;&#x20dd;" 
d="M1147 690h-494v74h494v-74zM832 925q0 29 19.5 47.5t47.5 18.5q30 0 50.5 -18.5t20.5 -47.5q0 -27 -20.5 -45.5t-50.5 -18.5q-28 0 -47.5 18.5t-19.5 45.5zM832 531q0 28 19.5 47t48.5 19q30 0 50 -18.5t20 -47.5q0 -28 -20 -46t-50 -18q-29 0 -48.5 18t-19.5 46zM900 55
q181 0 333 89t239.5 242t87.5 334t-87.5 334t-239.5 242t-333 89t-333 -89t-239.5 -242t-87.5 -334t87.5 -334t239.5 -242t333 -89zM900 -46q-155 0 -297 61t-245 164t-164 245t-61 297t61 297t164 245t245 164t297 61t297 -61t245 -164t164 -245t61 -297t-61 -297
t-164 -245t-245 -164t-297 -61z" />
    <glyph glyph-name="equal.uc.whitecircle" unicode="&#x3d;&#x20dd;" 
d="M1137 582h-474v77h474v-77zM1137 795h-474v78h474v-78zM900 55q181 0 333 89t239.5 242t87.5 334t-87.5 334t-239.5 242t-333 89t-333 -89t-239.5 -242t-87.5 -334t87.5 -334t239.5 -242t333 -89zM900 -46q-155 0 -297 61t-245 164t-164 245t-61 297t61 297t164 245
t245 164t297 61t297 -61t245 -164t164 -245t61 -297t-61 -297t-164 -245t-245 -164t-297 -61z" />
    <glyph glyph-name="greater.uc.whitecircle" unicode="&#x3e;&#x20dd;" 
d="M1157 754v-72l-463 -253v100l350 189v4l-350 193v102zM900 55q181 0 333 89t239.5 242t87.5 334t-87.5 334t-239.5 242t-333 89t-333 -89t-239.5 -242t-87.5 -334t87.5 -334t239.5 -242t333 -89zM900 -46q-155 0 -297 61t-245 164t-164 245t-61 297t61 297t164 245
t245 164t297 61t297 -61t245 -164t164 -245t61 -297t-61 -297t-164 -245t-245 -164t-297 -61z" />
    <glyph glyph-name="less.uc.whitecircle" unicode="&#x3c;&#x20dd;" 
d="M644 682v72l462 263v-102l-350 -193v-4l350 -189v-100zM900 55q181 0 333 89t239.5 242t87.5 334t-87.5 334t-239.5 242t-333 89t-333 -89t-239.5 -242t-87.5 -334t87.5 -334t239.5 -242t333 -89zM900 -46q-155 0 -297 61t-245 164t-164 245t-61 297t61 297t164 245
t245 164t297 61t297 -61t245 -164t164 -245t61 -297t-61 -297t-164 -245t-245 -164t-297 -61z" />
    <glyph glyph-name="numbersign.whitecircle" unicode="&#x30;&#x20dd;" 
d="M1181 812h-115l-33 -155h109l-16 -74h-109l-41 -196h-81l42 196h-145l-41 -196h-82l42 196h-112l15 74h112l34 155h-107l15 74h108l39 190h81l-40 -190h145l40 190h80l-39 -190h114zM837 815l-35 -165h154l35 165h-154zM900 55q181 0 333 89t239.5 242t87.5 334
t-87.5 334t-239.5 242t-333 89t-333 -89t-239.5 -242t-87.5 -334t87.5 -334t239.5 -242t333 -89zM900 -46q-155 0 -297 61t-245 164t-164 245t-61 297t61 297t164 245t245 164t297 61t297 -61t245 -164t164 -245t61 -297t-61 -297t-164 -245t-245 -164t-297 -61z" />
    <glyph glyph-name="uni25BC.whitecircle" unicode="&#x25bc;&#x20dd;" 
d="M1192 924l-292 -494l-292 494h584zM900 55q181 0 333 89t239.5 242t87.5 334t-87.5 334t-239.5 242t-333 89t-333 -89t-239.5 -242t-87.5 -334t87.5 -334t239.5 -242t333 -89zM900 -46q-155 0 -297 61t-245 164t-164 245t-61 297t61 297t164 245t245 164t297 61t297 -61
t245 -164t164 -245t61 -297t-61 -297t-164 -245t-245 -164t-297 -61z" />
    <glyph glyph-name="uni25B2.whitecircle" unicode="&#x25b2;&#x20dd;" 
d="M1192 525h-584l292 494zM900 55q181 0 333 89t239.5 242t87.5 334t-87.5 334t-239.5 242t-333 89t-333 -89t-239.5 -242t-87.5 -334t87.5 -334t239.5 -242t333 -89zM900 -46q-155 0 -297 61t-245 164t-164 245t-61 297t61 297t164 245t245 164t297 61t297 -61t245 -164
t164 -245t61 -297t-61 -297t-164 -245t-245 -164t-297 -61z" />
    <glyph glyph-name="uni25C0.whitecircle" unicode="&#x25c0;&#x20dd;" 
d="M1094 433l-493 292l493 292v-584zM900 55q181 0 333 89t239.5 242t87.5 334t-87.5 334t-239.5 242t-333 89t-333 -89t-239.5 -242t-87.5 -334t87.5 -334t239.5 -242t333 -89zM900 -46q-155 0 -297 61t-245 164t-164 245t-61 297t61 297t164 245t245 164t297 61t297 -61
t245 -164t164 -245t61 -297t-61 -297t-164 -245t-245 -164t-297 -61z" />
    <glyph glyph-name="uni25B6.whitecircle" unicode="&#x25b6;&#x20dd;" 
d="M706 433v584l494 -292zM900 55q181 0 333 89t239.5 242t87.5 334t-87.5 334t-239.5 242t-333 89t-333 -89t-239.5 -242t-87.5 -334t87.5 -334t239.5 -242t333 -89zM900 -46q-155 0 -297 61t-245 164t-164 245t-61 297t61 297t164 245t245 164t297 61t297 -61t245 -164
t164 -245t61 -297t-61 -297t-164 -245t-245 -164t-297 -61z" />
    <glyph glyph-name="question.whitecircle" unicode="&#x3f;&#x20dd;" 
d="M812 449q0 30 21.5 49t53.5 19q34 0 56 -19t22 -49q0 -28 -22 -47t-56 -19q-32 0 -53.5 19t-21.5 47zM837 604v36q-1 50 22.5 86.5t71.5 70.5q49 34 68.5 58t19.5 60q0 47 -34.5 73.5t-87.5 26.5q-57 0 -90 -33.5t-34 -83.5h-95q-1 95 64 145.5t160 50.5
q94 0 156.5 -46.5t62.5 -127.5q0 -56 -26.5 -92t-79.5 -73q-51 -37 -68 -59t-17 -61v-31h-93zM900 55q181 0 333 89t239.5 242t87.5 334t-87.5 334t-239.5 242t-333 89t-333 -89t-239.5 -242t-87.5 -334t87.5 -334t239.5 -242t333 -89zM900 -46q-155 0 -297 61t-245 164
t-164 245t-61 297t61 297t164 245t245 164t297 61t297 -61t245 -164t164 -245t61 -297t-61 -297t-164 -245t-245 -164t-297 -61z" />
    <glyph glyph-name="exclam.whitecircle" unicode="&#x21;&#x20dd;" 
d="M824 449q0 30 21.5 49.5t54.5 19.5q34 0 55.5 -19.5t21.5 -49.5q0 -28 -22 -47t-55 -19q-34 0 -55 18.5t-21 47.5zM846 1079h109l-10 -455h-89zM900 55q181 0 333 89t239.5 242t87.5 334t-87.5 334t-239.5 242t-333 89t-333 -89t-239.5 -242t-87.5 -334t87.5 -334
t239.5 -242t333 -89zM900 -46q-155 0 -297 61t-245 164t-164 245t-61 297t61 297t164 245t245 164t297 61t297 -61t245 -164t164 -245t61 -297t-61 -297t-164 -245t-245 -164t-297 -61z" />
    <glyph glyph-name="uni2717.whitecircle" unicode="&#x2717;&#x20dd;" 
d="M903 791l266 265l66 -65l-265 -266l265 -267l-66 -66l-266 265l-266 -265l-67 66l265 267l-266 266l66 67zM900 55q181 0 333 89t239.5 242t87.5 334t-87.5 334t-239.5 242t-333 89t-333 -89t-239.5 -242t-87.5 -334t87.5 -334t239.5 -242t333 -89zM900 -46
q-155 0 -297 61t-245 164t-164 245t-61 297t61 297t164 245t245 164t297 61t297 -61t245 -164t164 -245t61 -297t-61 -297t-164 -245t-245 -164t-297 -61z" />
    <glyph glyph-name="uni2713.whitecircle" unicode="&#x2713;&#x20dd;" 
d="M1318 960l-541 -540l-283 283l70 70l213 -214l470 472zM900 55q181 0 333 89t239.5 242t87.5 334t-87.5 334t-239.5 242t-333 89t-333 -89t-239.5 -242t-87.5 -334t87.5 -334t239.5 -242t333 -89zM900 -46q-155 0 -297 61t-245 164t-164 245t-61 297t61 297t164 245
t245 164t297 61t297 -61t245 -164t164 -245t61 -297t-61 -297t-164 -245t-245 -164t-297 -61z" />
    <glyph glyph-name="zero.whitesquare" unicode="&#x30;&#x20de;" 
d="M900 461q73 0 117 72.5t44 197.5q0 124 -44 197t-117 73t-117 -73t-44 -197q0 -125 44 -197.5t117 -72.5zM900 373q-116 0 -187.5 96t-71.5 262q0 165 71.5 261t187.5 96t187.5 -96t71.5 -261q0 -166 -71.5 -262t-187.5 -96zM399 1462h1002q101 0 170 -68t69 -168v-1009
q0 -100 -69 -167.5t-170 -67.5h-1002q-101 0 -170 67.5t-69 167.5v1009q0 100 69 168t170 68zM1538 1225q0 62 -41.5 103t-105.5 41h-982q-64 0 -105.5 -40.5t-41.5 -103.5v-1006q0 -63 41.5 -103.5t105.5 -40.5h982q64 0 105.5 40.5t41.5 103.5v1006z" />
    <glyph glyph-name="one.whitesquare" unicode="&#x31;&#x20de;" 
d="M990 390h-102v589h-5l-170 -114v95l175 119h102v-689zM399 1462h1002q101 0 170 -68t69 -168v-1009q0 -100 -69 -167.5t-170 -67.5h-1002q-101 0 -170 67.5t-69 167.5v1009q0 100 69 168t170 68zM1538 1225q0 62 -41.5 103t-105.5 41h-982q-64 0 -105.5 -40.5
t-41.5 -103.5v-1006q0 -63 41.5 -103.5t105.5 -40.5h982q64 0 105.5 40.5t41.5 103.5v1006z" />
    <glyph glyph-name="two.whitesquare" unicode="&#x32;&#x20de;" 
d="M765 884h-99v5q0 83 63.5 143t171.5 60q103 0 166 -53t63 -136q0 -56 -28.5 -102t-92.5 -114l-194 -209v-5h331v-83h-472v64l271 289q41 44 62 78.5t21 74.5q0 51 -36 83t-93 32q-60 0 -97 -35t-37 -87v-5zM399 1462h1002q101 0 170 -68t69 -168v-1009q0 -100 -69 -167.5
t-170 -67.5h-1002q-101 0 -170 67.5t-69 167.5v1009q0 100 69 168t170 68zM1538 1225q0 62 -41.5 103t-105.5 41h-982q-64 0 -105.5 -40.5t-41.5 -103.5v-1006q0 -63 41.5 -103.5t105.5 -40.5h982q64 0 105.5 40.5t41.5 103.5v1006z" />
    <glyph glyph-name="three.whitesquare" unicode="&#x33;&#x20de;" 
d="M822 706v79h78q56 0 93.5 33.5t37.5 83.5q-1 49 -38 80t-95 31q-55 0 -92.5 -29t-40.5 -71h-96q2 77 65 128t166 51t167 -49.5t66 -126.5q1 -65 -41.5 -109.5t-94.5 -53.5v-5q62 -7 110 -51t49 -117q1 -91 -73 -147t-185 -56q-107 0 -173.5 52t-71.5 129h96
q4 -43 46.5 -72t103.5 -30q69 0 112 35.5t43 91.5q-2 54 -43.5 88.5t-106.5 34.5h-82zM399 1462h1002q101 0 170 -68t69 -168v-1009q0 -100 -69 -167.5t-170 -67.5h-1002q-101 0 -170 67.5t-69 167.5v1009q0 100 69 168t170 68zM1538 1225q0 62 -41.5 103t-105.5 41h-982
q-64 0 -105.5 -40.5t-41.5 -103.5v-1006q0 -63 41.5 -103.5t105.5 -40.5h982q64 0 105.5 40.5t41.5 103.5v1006z" />
    <glyph glyph-name="four.whitesquare" unicode="&#x34;&#x20de;" 
d="M912 1079h151v-465h97v-82h-97v-142h-97v142h-350v84q35 61 83 136t124.5 191.5t88.5 135.5zM715 614h251v387h-6q-169 -251 -245 -383v-4zM399 1462h1002q101 0 170 -68t69 -168v-1009q0 -100 -69 -167.5t-170 -67.5h-1002q-101 0 -170 67.5t-69 167.5v1009
q0 100 69 168t170 68zM1538 1225q0 62 -41.5 103t-105.5 41h-982q-64 0 -105.5 -40.5t-41.5 -103.5v-1006q0 -63 41.5 -103.5t105.5 -40.5h982q64 0 105.5 40.5t41.5 103.5v1006z" />
    <glyph glyph-name="five.whitesquare" unicode="&#x35;&#x20de;" 
d="M659 557h96q9 -46 51 -72.5t97 -26.5q64 0 109.5 43t45.5 113q0 65 -44 105.5t-109 40.5q-91 0 -141 -76h-90l31 395h416v-82h-332l-19 -225h5q19 27 59.5 47t94.5 20q99 0 164.5 -61t65.5 -162q0 -107 -72.5 -173t-188.5 -66q-100 0 -167 51.5t-72 128.5zM399 1462h1002
q101 0 170 -68t69 -168v-1009q0 -100 -69 -167.5t-170 -67.5h-1002q-101 0 -170 67.5t-69 167.5v1009q0 100 69 168t170 68zM1538 1225q0 62 -41.5 103t-105.5 41h-982q-64 0 -105.5 -40.5t-41.5 -103.5v-1006q0 -63 41.5 -103.5t105.5 -40.5h982q64 0 105.5 40.5
t41.5 103.5v1006z" />
    <glyph glyph-name="six.whitesquare" unicode="&#x36;&#x20de;" 
d="M921 374q-127 0 -205.5 88.5t-78.5 259.5q0 172 77.5 271t210.5 99q100 0 167.5 -50t80.5 -131h-102q-10 46 -49 72.5t-95 26.5q-92 0 -142 -74.5t-51 -212.5h8q24 55 78 86.5t124 31.5q104 0 172.5 -65t68.5 -163q0 -104 -74.5 -171.5t-189.5 -67.5zM921 455
q70 0 117 45t47 111q0 67 -46 110t-118 43q-71 0 -118.5 -43t-47.5 -107q0 -68 47.5 -113.5t118.5 -45.5zM399 1462h1002q101 0 170 -68t69 -168v-1009q0 -100 -69 -167.5t-170 -67.5h-1002q-101 0 -170 67.5t-69 167.5v1009q0 100 69 168t170 68zM1538 1225q0 62 -41.5 103
t-105.5 41h-982q-64 0 -105.5 -40.5t-41.5 -103.5v-1006q0 -63 41.5 -103.5t105.5 -40.5h982q64 0 105.5 40.5t41.5 103.5v1006z" />
    <glyph glyph-name="seven.whitesquare" unicode="&#x37;&#x20de;" 
d="M670 1079h473v-85l-296 -604h-109l301 601v5h-369v83zM399 1462h1002q101 0 170 -68t69 -168v-1009q0 -100 -69 -167.5t-170 -67.5h-1002q-101 0 -170 67.5t-69 167.5v1009q0 100 69 168t170 68zM1538 1225q0 62 -41.5 103t-105.5 41h-982q-64 0 -105.5 -40.5
t-41.5 -103.5v-1006q0 -63 41.5 -103.5t105.5 -40.5h982q64 0 105.5 40.5t41.5 103.5v1006z" />
    <glyph glyph-name="eight.whitesquare" unicode="&#x38;&#x20de;" 
d="M901 452q70 0 116 37.5t46 94.5t-45.5 94t-116.5 37t-117.5 -37.5t-46.5 -93.5q0 -57 46.5 -94.5t117.5 -37.5zM901 786q59 0 97.5 33t38.5 83q0 51 -38 83t-98 32t-98.5 -32t-38.5 -83q0 -50 38.5 -83t98.5 -33zM899 377q-117 0 -190 56t-73 146q0 63 42 111t108 62v4
q-56 17 -88.5 58.5t-32.5 96.5q0 79 66 130t170 51q103 0 169.5 -51t66.5 -130q0 -54 -33.5 -96.5t-88.5 -58.5v-4q66 -14 108 -61.5t42 -110.5q0 -90 -74 -146.5t-192 -56.5zM399 1462h1002q101 0 170 -68t69 -168v-1009q0 -100 -69 -167.5t-170 -67.5h-1002
q-101 0 -170 67.5t-69 167.5v1009q0 100 69 168t170 68zM1538 1225q0 62 -41.5 103t-105.5 41h-982q-64 0 -105.5 -40.5t-41.5 -103.5v-1006q0 -63 41.5 -103.5t105.5 -40.5h982q64 0 105.5 40.5t41.5 103.5v1006z" />
    <glyph glyph-name="nine.whitesquare" unicode="&#x39;&#x20de;" 
d="M897 374q-97 0 -165 49.5t-83 131.5h101q13 -45 52.5 -72t95.5 -27q89 0 139.5 74t50.5 212h-7q-24 -54 -78 -85.5t-124 -31.5q-105 0 -173.5 64.5t-68.5 162.5q0 104 74.5 172t189.5 68q129 0 206.5 -90t77.5 -258q0 -174 -76 -272t-212 -98zM901 702q71 0 119 43
t48 106q0 68 -47.5 113.5t-118.5 45.5q-70 0 -117.5 -44.5t-47.5 -110.5t46 -109.5t118 -43.5zM399 1462h1002q101 0 170 -68t69 -168v-1009q0 -100 -69 -167.5t-170 -67.5h-1002q-101 0 -170 67.5t-69 167.5v1009q0 100 69 168t170 68zM1538 1225q0 62 -41.5 103t-105.5 41
h-982q-64 0 -105.5 -40.5t-41.5 -103.5v-1006q0 -63 41.5 -103.5t105.5 -40.5h982q64 0 105.5 40.5t41.5 103.5v1006z" />
    <glyph glyph-name="plus.uc.whitesquare" unicode="&#x2b;&#x20de;" 
d="M943 689v-224h-86v224h-216v82h216v215h86v-215h216v-82h-216zM399 1462h1002q101 0 170 -68t69 -168v-1009q0 -100 -69 -167.5t-170 -67.5h-1002q-101 0 -170 67.5t-69 167.5v1009q0 100 69 168t170 68zM1538 1225q0 62 -41.5 103t-105.5 41h-982q-64 0 -105.5 -40.5
t-41.5 -103.5v-1006q0 -63 41.5 -103.5t105.5 -40.5h982q64 0 105.5 40.5t41.5 103.5v1006z" />
    <glyph glyph-name="minus.uc.whitesquare" unicode="&#x2212;&#x20de;" 
d="M1147 685h-494v84h494v-84zM399 1462h1002q101 0 170 -68t69 -168v-1009q0 -100 -69 -167.5t-170 -67.5h-1002q-101 0 -170 67.5t-69 167.5v1009q0 100 69 168t170 68zM1538 1225q0 62 -41.5 103t-105.5 41h-982q-64 0 -105.5 -40.5t-41.5 -103.5v-1006
q0 -63 41.5 -103.5t105.5 -40.5h982q64 0 105.5 40.5t41.5 103.5v1006z" />
    <glyph glyph-name="multiply.uc.whitesquare" unicode="&#xd7;&#x20de;" 
d="M901 786l162 157l62 -59l-162 -157l162 -158l-62 -58l-161 157l-165 -160l-62 59l165 160l-162 157l61 59zM399 1462h1002q101 0 170 -68t69 -168v-1009q0 -100 -69 -167.5t-170 -67.5h-1002q-101 0 -170 67.5t-69 167.5v1009q0 100 69 168t170 68zM1538 1225
q0 62 -41.5 103t-105.5 41h-982q-64 0 -105.5 -40.5t-41.5 -103.5v-1006q0 -63 41.5 -103.5t105.5 -40.5h982q64 0 105.5 40.5t41.5 103.5v1006z" />
    <glyph glyph-name="divide.uc.whitesquare" unicode="&#xf7;&#x20de;" 
d="M1147 690h-494v74h494v-74zM832 925q0 29 19.5 47.5t47.5 18.5q30 0 50.5 -18.5t20.5 -47.5q0 -27 -20.5 -45.5t-50.5 -18.5q-28 0 -47.5 18.5t-19.5 45.5zM832 531q0 28 19.5 47t48.5 19q30 0 50 -18.5t20 -47.5q0 -28 -20 -46t-50 -18q-29 0 -48.5 18t-19.5 46z
M399 1462h1002q101 0 170 -68t69 -168v-1009q0 -100 -69 -167.5t-170 -67.5h-1002q-101 0 -170 67.5t-69 167.5v1009q0 100 69 168t170 68zM1538 1225q0 62 -41.5 103t-105.5 41h-982q-64 0 -105.5 -40.5t-41.5 -103.5v-1006q0 -63 41.5 -103.5t105.5 -40.5h982
q64 0 105.5 40.5t41.5 103.5v1006z" />
    <glyph glyph-name="equal.uc.whitesquare" unicode="&#x3d;&#x20de;" 
d="M1137 582h-474v77h474v-77zM1137 795h-474v78h474v-78zM399 1462h1002q101 0 170 -68t69 -168v-1009q0 -100 -69 -167.5t-170 -67.5h-1002q-101 0 -170 67.5t-69 167.5v1009q0 100 69 168t170 68zM1538 1225q0 62 -41.5 103t-105.5 41h-982q-64 0 -105.5 -40.5
t-41.5 -103.5v-1006q0 -63 41.5 -103.5t105.5 -40.5h982q64 0 105.5 40.5t41.5 103.5v1006z" />
    <glyph glyph-name="greater.uc.whitesquare" unicode="&#x3e;&#x20de;" 
d="M1157 754v-72l-463 -253v100l350 189v4l-350 193v102zM399 1462h1002q101 0 170 -68t69 -168v-1009q0 -100 -69 -167.5t-170 -67.5h-1002q-101 0 -170 67.5t-69 167.5v1009q0 100 69 168t170 68zM1538 1225q0 62 -41.5 103t-105.5 41h-982q-64 0 -105.5 -40.5
t-41.5 -103.5v-1006q0 -63 41.5 -103.5t105.5 -40.5h982q64 0 105.5 40.5t41.5 103.5v1006z" />
    <glyph glyph-name="less.uc.whitesquare" unicode="&#x3c;&#x20de;" 
d="M644 682v72l462 263v-102l-350 -193v-4l350 -189v-100zM399 1462h1002q101 0 170 -68t69 -168v-1009q0 -100 -69 -167.5t-170 -67.5h-1002q-101 0 -170 67.5t-69 167.5v1009q0 100 69 168t170 68zM1538 1225q0 62 -41.5 103t-105.5 41h-982q-64 0 -105.5 -40.5
t-41.5 -103.5v-1006q0 -63 41.5 -103.5t105.5 -40.5h982q64 0 105.5 40.5t41.5 103.5v1006z" />
    <glyph glyph-name="numbersign.whitesquare" unicode="&#x23;&#x20de;" 
d="M1181 812h-115l-33 -155h109l-16 -74h-109l-41 -196h-81l42 196h-145l-41 -196h-82l42 196h-112l15 74h112l34 155h-107l15 74h108l39 190h81l-40 -190h145l40 190h80l-39 -190h114zM837 815l-35 -165h154l35 165h-154zM399 1462h1002q101 0 170 -68t69 -168v-1009
q0 -100 -69 -167.5t-170 -67.5h-1002q-101 0 -170 67.5t-69 167.5v1009q0 100 69 168t170 68zM1538 1225q0 62 -41.5 103t-105.5 41h-982q-64 0 -105.5 -40.5t-41.5 -103.5v-1006q0 -63 41.5 -103.5t105.5 -40.5h982q64 0 105.5 40.5t41.5 103.5v1006z" />
    <glyph glyph-name="uni25BC.whitesquare" unicode="&#x25bc;&#x20de;" 
d="M1193 924l-292 -494l-293 494h585zM399 1462h1002q101 0 170 -68t69 -168v-1009q0 -100 -69 -167.5t-170 -67.5h-1002q-101 0 -170 67.5t-69 167.5v1009q0 100 69 168t170 68zM1538 1225q0 62 -41.5 103t-105.5 41h-982q-64 0 -105.5 -40.5t-41.5 -103.5v-1006
q0 -63 41.5 -103.5t105.5 -40.5h982q64 0 105.5 40.5t41.5 103.5v1006z" />
    <glyph glyph-name="uni25B2.whitesquare" unicode="&#x25b2;&#x20de;" 
d="M1192 525h-584l292 494zM399 1462h1002q101 0 170 -68t69 -168v-1009q0 -100 -69 -167.5t-170 -67.5h-1002q-101 0 -170 67.5t-69 167.5v1009q0 100 69 168t170 68zM1538 1225q0 62 -41.5 103t-105.5 41h-982q-64 0 -105.5 -40.5t-41.5 -103.5v-1006q0 -63 41.5 -103.5
t105.5 -40.5h982q64 0 105.5 40.5t41.5 103.5v1006z" />
    <glyph glyph-name="uni25C0.whitesquare" unicode="&#x25c0;&#x20de;" 
d="M1094 433l-493 292l493 292v-584zM399 1462h1002q101 0 170 -68t69 -168v-1009q0 -100 -69 -167.5t-170 -67.5h-1002q-101 0 -170 67.5t-69 167.5v1009q0 100 69 168t170 68zM1538 1225q0 62 -41.5 103t-105.5 41h-982q-64 0 -105.5 -40.5t-41.5 -103.5v-1006
q0 -63 41.5 -103.5t105.5 -40.5h982q64 0 105.5 40.5t41.5 103.5v1006z" />
    <glyph glyph-name="uni25B6.whitesquare" unicode="&#x25b6;&#x20de;" 
d="M706 433v584l494 -292zM399 1462h1002q101 0 170 -68t69 -168v-1009q0 -100 -69 -167.5t-170 -67.5h-1002q-101 0 -170 67.5t-69 167.5v1009q0 100 69 168t170 68zM1538 1225q0 62 -41.5 103t-105.5 41h-982q-64 0 -105.5 -40.5t-41.5 -103.5v-1006q0 -63 41.5 -103.5
t105.5 -40.5h982q64 0 105.5 40.5t41.5 103.5v1006z" />
    <glyph glyph-name="question.whitesquare" unicode="&#x3f;&#x20de;" 
d="M812 449q0 30 21.5 49t53.5 19q34 0 56 -19t22 -49q0 -28 -22 -47t-56 -19q-32 0 -53.5 19t-21.5 47zM678 898q-1 95 64 145.5t160 50.5q94 0 156.5 -46.5t62.5 -127.5q0 -56 -26.5 -92t-79.5 -73q-51 -37 -68 -59t-17 -61v-31h-93v36q-1 50 22.5 86.5t71.5 70.5
q49 34 68.5 58t19.5 60q0 47 -34.5 73.5t-87.5 26.5q-57 0 -90 -33.5t-34 -83.5h-95zM399 1462h1002q101 0 170 -68t69 -168v-1009q0 -100 -69 -167.5t-170 -67.5h-1002q-101 0 -170 67.5t-69 167.5v1009q0 100 69 168t170 68zM1538 1225q0 62 -41.5 103t-105.5 41h-982
q-64 0 -105.5 -40.5t-41.5 -103.5v-1006q0 -63 41.5 -103.5t105.5 -40.5h982q64 0 105.5 40.5t41.5 103.5v1006z" />
    <glyph glyph-name="exclam.whitesquare" unicode="&#x21;&#x20de;" 
d="M824 449q0 30 21.5 49.5t54.5 19.5q34 0 55.5 -19.5t21.5 -49.5q0 -28 -22 -47t-55 -19q-34 0 -55 18.5t-21 47.5zM846 1079h109l-10 -455h-89zM399 1462h1002q101 0 170 -68t69 -168v-1009q0 -100 -69 -167.5t-170 -67.5h-1002q-101 0 -170 67.5t-69 167.5v1009
q0 100 69 168t170 68zM1538 1225q0 62 -41.5 103t-105.5 41h-982q-64 0 -105.5 -40.5t-41.5 -103.5v-1006q0 -63 41.5 -103.5t105.5 -40.5h982q64 0 105.5 40.5t41.5 103.5v1006z" />
    <glyph glyph-name="uni2717.whitesquare" unicode="&#x2717;&#x20de;" 
d="M903 791l266 265l66 -65l-265 -266l265 -267l-66 -66l-266 265l-266 -265l-67 66l265 267l-266 266l66 67zM399 1462h1002q101 0 170 -68t69 -168v-1009q0 -100 -69 -167.5t-170 -67.5h-1002q-101 0 -170 67.5t-69 167.5v1009q0 100 69 168t170 68zM1538 1225
q0 62 -41.5 103t-105.5 41h-982q-64 0 -105.5 -40.5t-41.5 -103.5v-1006q0 -63 41.5 -103.5t105.5 -40.5h982q64 0 105.5 40.5t41.5 103.5v1006z" />
    <glyph glyph-name="uni2713.whitesquare" unicode="&#x2713;&#x20de;" 
d="M1318 960l-541 -540l-283 283l70 70l213 -214l470 472zM399 1462h1002q101 0 170 -68t69 -168v-1009q0 -100 -69 -167.5t-170 -67.5h-1002q-101 0 -170 67.5t-69 167.5v1009q0 100 69 168t170 68zM1538 1225q0 62 -41.5 103t-105.5 41h-982q-64 0 -105.5 -40.5
t-41.5 -103.5v-1006q0 -63 41.5 -103.5t105.5 -40.5h982q64 0 105.5 40.5t41.5 103.5v1006z" />
    <glyph glyph-name="plus.uc.blackcircle" unicode="&#x2b;&#x20dd;&#x25cf;" 
d="M953 682h232v98h-232v231h-106v-231h-232v-98h232v-241h106v241zM900 -46q-155 0 -297 61t-245 164t-164 245t-61 297t61 297t164 245t245 164t297 61t297 -61t245 -164t164 -245t61 -297t-61 -297t-164 -245t-245 -164t-297 -61z" />
    <glyph glyph-name="minus.uc.blackcircle" unicode="&#x2212;&#x20dd;&#x25cf;" 
d="M1171 678v100h-542v-100h542zM900 -46q-155 0 -297 61t-245 164t-164 245t-61 297t61 297t164 245t245 164t297 61t297 -61t245 -164t164 -245t61 -297t-61 -297t-164 -245t-245 -164t-297 -61z" />
    <glyph glyph-name="multiply.uc.blackcircle" unicode="&#xd7;&#x20dd;&#x25cf;" 
d="M898 796l-174 168l-75 -72l174 -169l-174 -168l75 -71l174 167l174 -167l74 71l-174 168l174 169l-74 72zM900 -46q-155 0 -297 61t-245 164t-164 245t-61 297t61 297t164 245t245 164t297 61t297 -61t245 -164t164 -245t61 -297t-61 -297t-164 -245t-245 -164t-297 -61z
" />
    <glyph glyph-name="divide.uc.blackcircle" unicode="&#xf7;&#x20dd;&#x25cf;" 
d="M820 942q0 -32 23 -53t56 -21q34 0 58 21.5t24 53.5q0 33 -23.5 55t-58.5 22q-33 0 -56 -22.5t-23 -55.5zM1171 682v91h-542v-91h542zM820 515q0 -33 23 -54t57 -21t57.5 21.5t23.5 53.5q0 33 -23.5 55t-57.5 22t-57 -22t-23 -55zM900 -46q-155 0 -297 61t-245 164
t-164 245t-61 297t61 297t164 245t245 164t297 61t297 -61t245 -164t164 -245t61 -297t-61 -297t-164 -245t-245 -164t-297 -61z" />
    <glyph glyph-name="equal.uc.blackcircle" unicode="&#x3d;&#x20dd;&#x25cf;" 
d="M1160 795v95h-519v-95h519zM1160 565v94h-519v-94h519zM900 -46q-155 0 -297 61t-245 164t-164 245t-61 297t61 297t164 245t245 164t297 61t297 -61t245 -164t164 -245t61 -297t-61 -297t-164 -245t-245 -164t-297 -61z" />
    <glyph glyph-name="greater.uc.blackcircle" unicode="&#x3e;&#x20dd;&#x25cf;" 
d="M1176 760l-507 288v-119l378 -209v-2l-378 -201v-119l507 277v85zM900 -46q-155 0 -297 61t-245 164t-164 245t-61 297t61 297t164 245t245 164t297 61t297 -61t245 -164t164 -245t61 -297t-61 -297t-164 -245t-245 -164t-297 -61z" />
    <glyph glyph-name="less.uc.blackcircle" unicode="&#x3c;&#x20dd;&#x25cf;" 
d="M619 675l507 -277v119l-378 201v2l378 209v119l-507 -288v-85zM900 -46q-155 0 -297 61t-245 164t-164 245t-61 297t61 297t164 245t245 164t297 61t297 -61t245 -164t164 -245t61 -297t-61 -297t-164 -245t-245 -164t-297 -61z" />
    <glyph glyph-name="numbersign.blackcircle" unicode="&#x23;&#x20dd;&#x25cf;" 
d="M836 818h157l-37 -169h-156zM1206 815l18 89h-122l43 203h-97l-43 -203h-146l43 203h-98l-42 -203h-117l-18 -89h115l-33 -158h-121l-18 -91h119l-44 -210h98l44 210h147l-45 -210h98l44 210h116l19 91h-116l33 158h123zM900 -46q-155 0 -297 61t-245 164t-164 245
t-61 297t61 297t164 245t245 164t297 61t297 -61t245 -164t164 -245t61 -297t-61 -297t-164 -245t-245 -164t-297 -61z" />
    <glyph glyph-name="uni25BC.blackcircle" unicode="&#x25bc;&#x20dd;&#x25cf;" 
d="M1219 952h-637l318 -540zM900 -46q-155 0 -297 61t-245 164t-164 245t-61 297t61 297t164 245t245 164t297 61t297 -61t245 -164t164 -245t61 -297t-61 -297t-164 -245t-245 -164t-297 -61z" />
    <glyph glyph-name="uni25B2.blackcircle" unicode="&#x25b2;&#x20dd;&#x25cf;" 
d="M1219 508l-319 539l-318 -539h637zM900 -46q-155 0 -297 61t-245 164t-164 245t-61 297t61 297t164 245t245 164t297 61t297 -61t245 -164t164 -245t61 -297t-61 -297t-164 -245t-245 -164t-297 -61z" />
    <glyph glyph-name="uni25C0.blackcircle" unicode="&#x25c0;&#x20dd;&#x25cf;" 
d="M1117 412v636l-539 -318zM900 -46q-155 0 -297 61t-245 164t-164 245t-61 297t61 297t164 245t245 164t297 61t297 -61t245 -164t164 -245t61 -297t-61 -297t-164 -245t-245 -164t-297 -61z" />
    <glyph glyph-name="uni25B6.blackcircle" unicode="&#x25b6;&#x20dd;&#x25cf;" 
d="M683 412l540 318l-540 318v-636zM900 -46q-155 0 -297 61t-245 164t-164 245t-61 297t61 297t164 245t245 164t297 61t297 -61t245 -164t164 -245t61 -297t-61 -297t-164 -245t-245 -164t-297 -61z" />
    <glyph glyph-name="question.blackcircle" unicode="&#x3f;&#x20dd;&#x25cf;" 
d="M796 427q0 -34 24.5 -56t62.5 -22q39 0 64.5 22.5t25.5 55.5q0 35 -25 57t-65 22q-37 0 -62 -22.5t-25 -56.5zM824 591h110v37q0 41 17.5 64t71.5 61q38 27 60.5 48.5t39.5 56.5t17 77q0 88 -69.5 140t-171.5 52q-103 0 -174.5 -55t-71.5 -161v-3h112q2 55 36 89.5
t93 34.5q54 0 90 -27t36 -75q0 -37 -21.5 -63t-71.5 -60q-54 -39 -80 -78t-23 -94v-44zM902 -46q-155 0 -297 61t-245 164t-164 245t-61 297t61 297t164 245t245 164t297 61t297 -61t245 -164t164 -245t61 -297t-61 -297t-164 -245t-245 -164t-297 -61z" />
    <glyph glyph-name="exclam.blackcircle" unicode="&#x21;&#x20dd;&#x25cf;" 
d="M835 1111l12 -499h106l12 499h-130zM812 427q0 -33 25 -55t63 -22t63 22t25 55q0 34 -25 56.5t-63 22.5t-63 -22.5t-25 -56.5zM900 -46q-155 0 -297 61t-245 164t-164 245t-61 297t61 297t164 245t245 164t297 61t297 -61t245 -164t164 -245t61 -297t-61 -297t-164 -245
t-245 -164t-297 -61z" />
    <glyph glyph-name="uni2717.blackcircle" unicode="&#x2717;&#x20dd;&#x25cf;" 
d="M903 800l-289 290l-75 -74l289 -290l-288 -288l75 -75l288 288l288 -288l74 75l-288 288l288 288l-74 74zM900 -46q-155 0 -297 61t-245 164t-164 245t-61 297t61 297t164 245t245 164t297 61t297 -61t245 -164t164 -245t61 -297t-61 -297t-164 -245t-245 -164t-297 -61z
" />
    <glyph glyph-name="uni2713.blackcircle" unicode="&#x2713;&#x20dd;&#x25cf;" 
d="M766 395l588 588l-78 80l-511 -512l-228 230l-79 -79zM900 -46q-155 0 -297 61t-245 164t-164 245t-61 297t61 297t164 245t245 164t297 61t297 -61t245 -164t164 -245t61 -297t-61 -297t-164 -245t-245 -164t-297 -61z" />
    <glyph glyph-name="zero.blacksquare" unicode="&#x30;&#x20de;&#x25a0;" 
d="M897 441q-76 0 -120 77t-44 213q0 135 44 212.5t120 77.5q77 0 121 -77.5t44 -212.5q0 -136 -44 -213t-121 -77zM897 340q131 0 209 105.5t78 285.5q0 179 -78 284.5t-209 105.5q-130 0 -208.5 -105.5t-78.5 -284.5q0 -180 78.5 -285.5t208.5 -105.5zM399 1462h1002
q101 0 170 -68t69 -168v-1009q0 -100 -69 -167.5t-170 -67.5h-1002q-101 0 -170 67.5t-69 167.5v1009q0 100 69 168t170 68z" />
    <glyph glyph-name="one.blacksquare" unicode="&#x31;&#x20de;&#x25a0;" 
d="M1000 360v751h-118l-190 -130v-114l186 126h2v-633h120zM399 1462h1002q101 0 170 -68t69 -168v-1009q0 -100 -69 -167.5t-170 -67.5h-1002q-101 0 -170 67.5t-69 167.5v1009q0 100 69 168t170 68z" />
    <glyph glyph-name="two.blacksquare" unicode="&#x32;&#x20de;&#x25a0;" 
d="M757 892v8q1 55 38.5 91.5t99.5 36.5q57 0 95.5 -33.5t38.5 -85.5q0 -43 -21.5 -79.5t-65.5 -82.5l-294 -313v-75h518v99h-354v1l216 231q63 69 92 117.5t29 108.5q0 91 -70.5 149.5t-181.5 58.5q-119 0 -187 -65.5t-70 -158.5v-8h117zM399 1462h1002q101 0 170 -68
t69 -168v-1009q0 -100 -69 -167.5t-170 -67.5h-1002q-101 0 -170 67.5t-69 167.5v1009q0 100 69 168t170 68z" />
    <glyph glyph-name="three.blacksquare" unicode="&#x33;&#x20de;&#x25a0;" 
d="M810 699h93q67 0 110 -36t44 -92q0 -58 -44.5 -94t-117.5 -36q-63 1 -107 32t-51 75h-112q5 -88 78 -145.5t191 -57.5q122 0 203.5 61.5t80.5 162.5q-1 79 -51.5 127t-115.5 56v1q54 12 98.5 60.5t43.5 117.5q-2 84 -72.5 139.5t-182.5 55.5q-114 -1 -182.5 -57.5
t-73.5 -143.5h115q5 45 42.5 75t95.5 30q61 0 99.5 -32.5t38.5 -82.5q0 -51 -38 -85.5t-97 -34.5h-88v-96zM399 1462h1002q101 0 170 -68t69 -168v-1009q0 -100 -69 -167.5t-170 -67.5h-1002q-101 0 -170 67.5t-69 167.5v1009q0 100 69 168t170 68z" />
    <glyph glyph-name="four.blacksquare" unicode="&#x34;&#x20de;&#x25a0;" 
d="M907 1111q-251 -384 -319 -502v-97h375v-152h116v152h104v98h-104v501h-172zM963 610h-259v2q88 150 258 401h1v-403zM399 1462h1002q101 0 170 -68t69 -168v-1009q0 -100 -69 -167.5t-170 -67.5h-1002q-101 0 -170 67.5t-69 167.5v1009q0 100 69 168t170 68z" />
    <glyph glyph-name="five.blacksquare" unicode="&#x35;&#x20de;&#x25a0;" 
d="M632 547q5 -86 79 -143.5t185 -57.5q126 0 205 72t79 190q0 110 -72.5 177.5t-179.5 67.5q-56 0 -99 -20.5t-65 -49.5h-1q1 12 8.5 108t10.5 123h355v97h-455l-34 -434h106q51 80 148 80q68 0 113.5 -42.5t45.5 -110.5q0 -72 -47 -116.5t-113 -44.5q-57 0 -102 28.5
t-54 75.5h-113zM399 1462h1002q101 0 170 -68t69 -168v-1009q0 -100 -69 -167.5t-170 -67.5h-1002q-101 0 -170 67.5t-69 167.5v1009q0 100 69 168t170 68z" />
    <glyph glyph-name="six.blacksquare" unicode="&#x36;&#x20de;&#x25a0;" 
d="M911 343q121 0 198.5 73.5t77.5 186.5q0 106 -70.5 176t-177.5 70q-69 0 -122.5 -32.5t-78.5 -90.5h-8q1 142 49 219t137 77q53 0 90 -27.5t47 -73.5h122q-14 90 -85 145t-176 55q-139 0 -219.5 -106.5t-80.5 -293.5q0 -185 82 -281.5t215 -96.5zM910 441
q-67 0 -112.5 47t-45.5 116q0 65 45 109t113 44q69 0 113 -44t44 -113q0 -68 -45 -113.5t-112 -45.5zM399 1462h1002q101 0 170 -68t69 -168v-1009q0 -100 -69 -167.5t-170 -67.5h-1002q-101 0 -170 67.5t-69 167.5v1009q0 100 69 168t170 68z" />
    <glyph glyph-name="seven.blacksquare" unicode="&#x37;&#x20de;&#x25a0;" 
d="M645 1111v-100h395v-2l-328 -649h129l322 652v99h-518zM399 1462h1002q101 0 170 -68t69 -168v-1009q0 -100 -69 -167.5t-170 -67.5h-1002q-101 0 -170 67.5t-69 167.5v1009q0 100 69 168t170 68z" />
    <glyph glyph-name="eight.blacksquare" unicode="&#x38;&#x20de;&#x25a0;" 
d="M898 796q-62 0 -101.5 33.5t-39.5 85.5q0 53 39.5 86t101.5 33t101.5 -33t39.5 -86q0 -52 -40 -85.5t-101 -33.5zM898 436q-74 0 -122 39t-48 98t48.5 97.5t121.5 38.5t121 -38.5t48 -97.5t-48 -98t-121 -39zM898 345q128 0 208.5 61.5t80.5 160.5q0 68 -44 119.5
t-117 67.5v1q61 19 95.5 65t34.5 106q0 88 -72 144t-186 56t-186 -56t-72 -144q0 -60 34.5 -105.5t95.5 -65.5v-1q-73 -16 -117 -67.5t-44 -119.5q0 -99 80.5 -160.5t208.5 -61.5zM399 1462h1002q101 0 170 -68t69 -168v-1009q0 -100 -69 -167.5t-170 -67.5h-1002
q-101 0 -170 67.5t-69 167.5v1009q0 100 69 168t170 68z" />
    <glyph glyph-name="nine.blacksquare" unicode="&#x39;&#x20de;&#x25a0;" 
d="M885 343q142 0 222 106t80 293q0 182 -81 280.5t-217 98.5q-121 0 -198 -73.5t-77 -187.5q0 -106 69.5 -175.5t177.5 -69.5q69 0 122.5 33t78.5 89h8q1 -142 -48 -218.5t-135 -76.5q-53 0 -91 27t-49 73h-122q16 -90 87 -144.5t173 -54.5zM890 707q-69 0 -113 44t-44 112
t45 113.5t112 45.5q68 0 113 -46t45 -115q0 -65 -45.5 -109.5t-112.5 -44.5zM399 1462h1002q101 0 170 -68t69 -168v-1009q0 -100 -69 -167.5t-170 -67.5h-1002q-101 0 -170 67.5t-69 167.5v1009q0 100 69 168t170 68z" />
    <glyph glyph-name="plus.uc.blacksquare" unicode="&#x2b;&#x20de;&#x25a0;" 
d="M953 682h232v98h-232v231h-106v-231h-232v-98h232v-241h106v241zM399 1462h1002q101 0 170 -68t69 -168v-1009q0 -100 -69 -167.5t-170 -67.5h-1002q-101 0 -170 67.5t-69 167.5v1009q0 100 69 168t170 68z" />
    <glyph glyph-name="minus.uc.blacksquare" unicode="&#x2212;&#x20de;&#x25a0;" 
d="M1171 678v100h-542v-100h542zM399 1462h1002q101 0 170 -68t69 -168v-1009q0 -100 -69 -167.5t-170 -67.5h-1002q-101 0 -170 67.5t-69 167.5v1009q0 100 69 168t170 68z" />
    <glyph glyph-name="multiply.uc.blacksquare" unicode="&#xd7;&#x20de;&#x25a0;" 
d="M898 796l-174 168l-75 -72l174 -169l-174 -168l75 -71l174 167l174 -167l74 71l-174 168l174 169l-74 72zM399 1462h1002q101 0 170 -68t69 -168v-1009q0 -100 -69 -167.5t-170 -67.5h-1002q-101 0 -170 67.5t-69 167.5v1009q0 100 69 168t170 68z" />
    <glyph glyph-name="divide.uc.blacksquare" unicode="&#xf7;&#x20de;&#x25a0;" 
d="M820 942q0 -32 23 -53t56 -21q34 0 58 21.5t24 53.5q0 33 -23.5 55t-58.5 22q-33 0 -56 -22.5t-23 -55.5zM1171 682v91h-542v-91h542zM820 515q0 -33 23 -54t57 -21t57.5 21.5t23.5 53.5q0 33 -23.5 55t-57.5 22t-57 -22t-23 -55zM399 1462h1002q101 0 170 -68t69 -168
v-1009q0 -100 -69 -167.5t-170 -67.5h-1002q-101 0 -170 67.5t-69 167.5v1009q0 100 69 168t170 68z" />
    <glyph glyph-name="equal.uc.blacksquare" unicode="&#x3d;&#x20de;&#x25a0;" 
d="M1160 795v95h-519v-95h519zM1160 565v94h-519v-94h519zM399 1462h1002q101 0 170 -68t69 -168v-1009q0 -100 -69 -167.5t-170 -67.5h-1002q-101 0 -170 67.5t-69 167.5v1009q0 100 69 168t170 68z" />
    <glyph glyph-name="greater.uc.blacksquare" unicode="&#x3e;&#x20de;&#x25a0;" 
d="M1176 760l-507 288v-119l378 -209v-2l-378 -201v-119l507 277v85zM399 1462h1002q101 0 170 -68t69 -168v-1009q0 -100 -69 -167.5t-170 -67.5h-1002q-101 0 -170 67.5t-69 167.5v1009q0 100 69 168t170 68z" />
    <glyph glyph-name="less.uc.blacksquare" unicode="&#x3c;&#x20de;&#x25a0;" 
d="M619 675l507 -277v119q-33 17 -182 98t-196 103v2l378 209v119l-507 -288v-85zM399 1462h1002q101 0 170 -68t69 -168v-1009q0 -100 -69 -167.5t-170 -67.5h-1002q-101 0 -170 67.5t-69 167.5v1009q0 100 69 168t170 68z" />
    <glyph glyph-name="numbersign.blacksquare" unicode="&#x23;&#x20de;&#x25a0;" 
d="M836 818h157l-37 -169h-156zM1206 815l18 89h-122l43 203h-97l-43 -203h-146l43 203h-98l-42 -203h-117l-18 -89h115l-33 -158h-121l-18 -91h119l-44 -210h98l44 210h147l-45 -210h98l44 210h116l19 91h-116l33 158h123zM399 1462h1002q101 0 170 -68t69 -168v-1009
q0 -100 -69 -167.5t-170 -67.5h-1002q-101 0 -170 67.5t-69 167.5v1009q0 100 69 168t170 68z" />
    <glyph glyph-name="uni25BC.blacksquare" unicode="&#x25bc;&#x20de;&#x25a0;" 
d="M1219 949h-637l318 -541zM399 1462h1002q101 0 170 -68t69 -168v-1009q0 -100 -69 -167.5t-170 -67.5h-1002q-101 0 -170 67.5t-69 167.5v1009q0 100 69 168t170 68z" />
    <glyph glyph-name="uni25B2.blacksquare" unicode="&#x25b2;&#x20de;&#x25a0;" 
d="M1219 508l-319 539l-318 -539h637zM399 1462h1002q101 0 170 -68t69 -168v-1009q0 -100 -69 -167.5t-170 -67.5h-1002q-101 0 -170 67.5t-69 167.5v1009q0 100 69 168t170 68z" />
    <glyph glyph-name="uni25C0.blacksquare" unicode="&#x25c0;&#x20de;&#x25a0;" 
d="M1117 412v636l-539 -318zM399 1462h1002q101 0 170 -68t69 -168v-1009q0 -100 -69 -167.5t-170 -67.5h-1002q-101 0 -170 67.5t-69 167.5v1009q0 100 69 168t170 68z" />
    <glyph glyph-name="uni25B6.blacksquare" unicode="&#x25b6;&#x20de;&#x25a0;" 
d="M683 412l540 318l-540 318v-636zM399 1462h1002q101 0 170 -68t69 -168v-1009q0 -100 -69 -167.5t-170 -67.5h-1002q-101 0 -170 67.5t-69 167.5v1009q0 100 69 168t170 68z" />
    <glyph glyph-name="question.blacksquare" unicode="&#x3f;&#x20de;&#x25a0;" 
d="M796 427q0 -34 24.5 -56t62.5 -22q39 0 64.5 22.5t25.5 55.5q0 35 -25 57t-65 22q-37 0 -62 -22.5t-25 -56.5zM899 1127q-103 0 -174.5 -55t-71.5 -161v-3h112q2 55 36 89.5t93 34.5q54 0 90 -27t36 -75q0 -37 -21.5 -63t-71.5 -60q-54 -39 -80 -78t-23 -94v-44h110v37
q0 41 17.5 64t71.5 61q38 27 60.5 48.5t39.5 56.5t17 77q0 88 -69.5 140t-171.5 52zM399 1462h1002q101 0 170 -68t69 -168v-1009q0 -100 -69 -167.5t-170 -67.5h-1002q-101 0 -170 67.5t-69 167.5v1009q0 100 69 168t170 68z" />
    <glyph glyph-name="exclam.blacksquare" unicode="&#x21;&#x20de;&#x25a0;" 
d="M835 1111l12 -499h106l12 499h-130zM812 427q0 -33 25 -55t63 -22t63 22t25 55q0 34 -25 56.5t-63 22.5t-63 -22.5t-25 -56.5zM399 1462h1002q101 0 170 -68t69 -168v-1009q0 -100 -69 -167.5t-170 -67.5h-1002q-101 0 -170 67.5t-69 167.5v1009q0 100 69 168t170 68z
" />
    <glyph glyph-name="uni2717.blacksquare" unicode="&#x2717;&#x20de;&#x25a0;" 
d="M539 1016l289 -290l-288 -288l75 -75l288 288l288 -288l74 75l-288 288l288 288l-74 74l-288 -288l-289 290zM399 1462h1002q101 0 170 -68t69 -168v-1009q0 -100 -69 -167.5t-170 -67.5h-1002q-101 0 -170 67.5t-69 167.5v1009q0 100 69 168t170 68z" />
    <glyph glyph-name="uni2713.blacksquare" unicode="&#x2713;&#x20de;&#x25a0;" 
d="M766 395l588 588l-78 80l-511 -512l-228 230l-79 -79zM399 1462h1002q101 0 170 -68t69 -168v-1009q0 -100 -69 -167.5t-170 -67.5h-1002q-101 0 -170 67.5t-69 167.5v1009q0 100 69 168t170 68z" />
    <glyph glyph-name=".notdef" horiz-adv-x="2048" 
d="M100 -494v308h1848v-308h-1848zM100 -67v308h1848v-308h-1848zM100 361v307h1848v-307h-1848zM100 788v307h1848v-307h-1848zM100 1215v308h1848v-308h-1848zM100 1642v308h1848v-308h-1848z" />
    <glyph glyph-name=".null" horiz-adv-x="0" 
 />
    <glyph glyph-name="nonmarkingreturn" horiz-adv-x="0" 
 />
    <glyph glyph-name="space" unicode=" " horiz-adv-x="554" 
 />
    <glyph glyph-name="exclam" unicode="!" horiz-adv-x="617" 
d="M233 1444h150l-11 -987h-127zM308 -14q-49 0 -80.5 31.5t-31.5 80.5t31.5 81t80.5 32t80.5 -31.5t31.5 -81.5q0 -49 -31.5 -80.5t-80.5 -31.5z" />
    <glyph glyph-name="quotedbl" unicode="&#x22;" horiz-adv-x="802" 
d="M296 935h-123v508h123v-508zM629 935h-123v508h123v-508z" />
    <glyph glyph-name="numbersign" unicode="#" horiz-adv-x="1316" 
d="M685 0l86 419h-361l-86 -419h-110l85 419h-248l22 111h250l79 395h-259l22 110h259l86 410h110l-83 -410h359l86 410h111l-85 -410h267l-21 -110h-269l-80 -395h277l-21 -111h-278l-86 -419h-112zM433 528h362l79 398h-361z" />
    <glyph glyph-name="dollar" unicode="$" horiz-adv-x="1321" 
d="M710 659v-521q153 9 233.5 79.5t80.5 178.5q0 98 -65.5 159t-224.5 98zM604 814l11 -3v493q-130 -12 -208 -81.5t-78 -163.5q0 -89 66 -149.5t209 -95.5zM710 789l45 -11q203 -48 302.5 -136t99.5 -237q0 -169 -126 -271.5t-321 -114.5v-175h-95v176q-192 13 -320.5 120
t-134.5 275h133q12 -116 94.5 -190t227.5 -86v543l-31 7q-194 47 -290.5 134.5t-96.5 227.5q0 156 117.5 257.5t300.5 114.5v167h95v-167q181 -12 301.5 -115.5t126.5 -260.5h-132q-9 109 -90 177.5t-206 79.5v-515z" />
    <glyph glyph-name="percent" unicode="%" horiz-adv-x="1705" 
d="M368 800q-140 0 -220.5 88.5t-80.5 243.5q0 154 81 243t220 89t219.5 -89t80.5 -243q0 -155 -80 -243.5t-220 -88.5zM368 901q85 0 133 61.5t48 168.5q0 108 -48 169.5t-133 61.5t-133.5 -61.5t-48.5 -169.5q0 -107 48.5 -168.5t133.5 -61.5zM429 0h-126l973 1443h126z
M1338 -12q-140 0 -220.5 89t-80.5 243t81 243t220 89t219.5 -89t80.5 -243q0 -155 -80 -243.5t-220 -88.5zM1338 89q85 0 133 61.5t48 168.5t-48 168.5t-133 61.5t-133 -61t-48 -169t48 -169t133 -61z" />
    <glyph glyph-name="ampersand" unicode="&#x26;" horiz-adv-x="1472" 
d="M1233 0l-158 168q-93 -91 -219.5 -142t-259.5 -51q-209 0 -341.5 112.5t-132.5 289.5q0 243 281 392q5 3 38.5 20t38.5 20q-110 113 -153.5 191t-43.5 158q0 134 102.5 224t255.5 90t253.5 -89t100.5 -225q0 -109 -76.5 -198t-251.5 -179l400 -427q92 163 92 403v46h128
v-46q0 -299 -130 -495l248 -262h-172zM482 686q-111 -58 -167.5 -135t-56.5 -166q0 -128 97 -210.5t252 -82.5q107 0 212.5 45t172.5 118l-436 469q-3 -1 -19 -9.5t-33.5 -17.5t-21.5 -11zM592 859q147 73 210.5 142.5t63.5 151.5q0 91 -63.5 150t-161.5 59
q-96 0 -161.5 -60.5t-65.5 -150.5q0 -64 38.5 -127t139.5 -165z" />
    <glyph glyph-name="quotesingle" unicode="'" horiz-adv-x="469" 
d="M296 935h-123v508h123v-508z" />
    <glyph glyph-name="parenleft" unicode="(" horiz-adv-x="751" 
d="M244 601q0 540 280 905h114q-113 -147 -186.5 -403t-73.5 -502q0 -248 73 -503t187 -402h-114q-280 365 -280 905z" />
    <glyph glyph-name="parenright" unicode=")" horiz-adv-x="751" 
d="M507 601q0 -540 -280 -905h-114q113 147 186.5 402.5t73.5 502.5t-73 502.5t-187 402.5h114q280 -365 280 -905z" />
    <glyph glyph-name="asterisk" unicode="*" horiz-adv-x="921" 
d="M741 856l-239 161l12 -283h-106l12 284l-240 -162l-52 90l251 142l-251 142l52 91l240 -165l-12 287h106l-12 -287l239 165l52 -91l-250 -142l250 -142z" />
    <glyph glyph-name="plus" unicode="+" horiz-adv-x="1321" 
d="M722 510v-434h-124v434h-408v124h408v434h124v-434h409v-124h-409z" />
    <glyph glyph-name="comma" unicode="," horiz-adv-x="593" 
d="M243 -349h-99l97 532h148z" />
    <glyph glyph-name="hyphen" unicode="&#x2011;" horiz-adv-x="975" 
d="M815 520h-656v124h656v-124z" />
    <glyph glyph-name="hyphen" unicode="-" horiz-adv-x="975" 
d="M815 520h-656v124h656v-124z" />
    <glyph glyph-name="period" unicode="." horiz-adv-x="593" 
d="M297 -8q-44 0 -75 30.5t-31 74.5t31 75t75 31t74.5 -31t30.5 -75t-30.5 -74.5t-74.5 -30.5z" />
    <glyph glyph-name="slash" unicode="/" horiz-adv-x="676" 
d="M139 -304h-113l510 1810h114z" />
    <glyph glyph-name="zero" unicode="0" horiz-adv-x="1282" 
d="M642 -30q-241 0 -375.5 198.5t-134.5 553.5q0 352 135.5 551.5t374.5 199.5q238 0 372.5 -200t134.5 -553q0 -354 -134 -552t-373 -198zM642 90q176 0 273 166t97 466q0 298 -97.5 464t-272.5 166t-273.5 -166.5t-98.5 -463.5q0 -300 98 -466t274 -166z" />
    <glyph glyph-name="one" unicode="1" horiz-adv-x="913" 
d="M503 0v1290h-13q-21 -11 -190 -129.5t-186 -129.5v145q4 3 179 124.5t210 142.5h136v-1443h-136z" />
    <glyph glyph-name="two" unicode="2" horiz-adv-x="1222" 
d="M152 1044q1 187 131 308t330 121q187 0 313.5 -114.5t126.5 -286.5q0 -121 -67.5 -233.5t-257.5 -310.5l-376 -392v-12h737v-124h-929v96l497 533q153 165 204.5 249.5t51.5 180.5q0 127 -85.5 210.5t-222.5 83.5q-141 0 -229.5 -86t-90.5 -223h-133z" />
    <glyph glyph-name="three" unicode="3" horiz-adv-x="1260" 
d="M448 686v118h167q140 0 229 77.5t89 201.5q0 113 -86.5 191.5t-222.5 78.5q-139 0 -227.5 -73.5t-98.5 -199.5h-134q12 173 139.5 283t329.5 110q196 0 317.5 -109.5t121.5 -266.5q-1 -129 -74.5 -217t-196.5 -119v-13q152 -20 241.5 -114.5t89.5 -243.5
q0 -180 -144 -300t-358 -120q-209 0 -347.5 111.5t-145.5 285.5h132q9 -121 110.5 -199t249.5 -78q157 0 259.5 85.5t102.5 217.5q0 136 -99 214.5t-272 78.5h-172z" />
    <glyph glyph-name="four" unicode="4" horiz-adv-x="1312" 
d="M844 0v326h-725v125q290 477 662 994h196v-996h216v-123h-216v-326h-133zM262 457v-9h582v866h-9q-335 -465 -573 -857z" />
    <glyph glyph-name="five" unicode="5" horiz-adv-x="1256" 
d="M631 -30q-196 0 -330.5 113t-146.5 287h135q11 -120 109 -199.5t235 -79.5q156 0 256 104t100 265q0 157 -99 257.5t-252 100.5q-109 0 -198 -50t-133 -135h-130l80 810h785v-123h-677l-50 -531h13q52 71 141 109.5t200 38.5q94 0 178 -35t145.5 -96.5t97.5 -150.5
t36 -192q0 -217 -138.5 -355t-356.5 -138z" />
    <glyph glyph-name="six" unicode="6" horiz-adv-x="1288" 
d="M665 -29q-115 0 -211 44t-169 130.5t-114 226t-41 319.5q0 366 146.5 574t398.5 208q187 0 311 -98.5t150 -264.5h-140q-22 111 -108 175.5t-209 64.5q-198 0 -307 -173t-109 -497h12q47 122 158.5 194t252.5 72q205 0 340.5 -136.5t135.5 -343.5q0 -215 -140.5 -355
t-356.5 -140zM663 92q154 0 257.5 106t103.5 263q0 160 -101.5 263t-258.5 103q-155 0 -260 -102.5t-105 -253.5q0 -161 104.5 -270t259.5 -109z" />
    <glyph glyph-name="seven" unicode="7" horiz-adv-x="1161" 
d="M240 0l667 1309v11h-800v123h940v-128l-661 -1315h-146z" />
    <glyph glyph-name="eight" unicode="8" horiz-adv-x="1294" 
d="M647 -30q-226 0 -368.5 117t-142.5 302q0 140 86.5 242t228.5 127v12q-118 28 -188.5 115.5t-70.5 205.5q0 167 128 274.5t327 107.5q200 0 327.5 -107t127.5 -275q0 -118 -70 -205.5t-188 -115.5v-12q141 -26 228 -127.5t87 -241.5q0 -186 -142.5 -302.5t-369.5 -116.5z
M647 88q166 0 270 86.5t104 223.5q0 134 -103.5 217.5t-270.5 83.5q-166 0 -269.5 -83.5t-103.5 -217.5q0 -137 103.5 -223.5t269.5 -86.5zM647 817q143 0 231.5 72.5t88.5 190.5q0 122 -89 198.5t-231 76.5t-231 -76.5t-89 -198.5q0 -117 89 -190t231 -73z" />
    <glyph glyph-name="nine" unicode="9" horiz-adv-x="1288" 
d="M613 -29q-182 0 -306.5 98.5t-154.5 264.5h140q27 -109 113.5 -175t209.5 -66q191 0 300 170.5t110 499.5h-12q-47 -120 -158.5 -192.5t-252.5 -72.5q-207 0 -341.5 135.5t-134.5 342.5q0 216 140.5 356.5t356.5 140.5q115 0 210.5 -43.5t169 -129.5t114.5 -226t41 -322
q0 -368 -143.5 -574.5t-401.5 -206.5zM624 617q155 0 260 102t105 251q0 162 -104.5 272t-259.5 110q-154 0 -257.5 -107t-103.5 -265t101 -260.5t259 -102.5z" />
    <glyph glyph-name="colon" unicode=":" horiz-adv-x="593" 
d="M297 -8q-44 0 -75 30.5t-31 74.5t31 75t75 31t74.5 -31t30.5 -75t-30.5 -74.5t-74.5 -30.5zM297 812q-44 0 -75 31t-31 75t31 75t75 31t74.5 -31t30.5 -75t-30.5 -75t-74.5 -31z" />
    <glyph glyph-name="semicolon" unicode=";" horiz-adv-x="593" 
d="M297 812q-44 0 -75 31t-31 75t31 75t75 31t74.5 -31t30.5 -75t-30.5 -75t-74.5 -31zM243 -349h-99l97 532h148z" />
    <glyph glyph-name="less" unicode="&#x3c;" horiz-adv-x="1321" 
d="M1131 942l-783 -362v-8l783 -368v-140l-941 449v117l941 450v-138z" />
    <glyph glyph-name="equal" unicode="=" horiz-adv-x="1321" 
d="M1117 298h-914v118h914v-118zM1117 728h-914v118h914v-118z" />
    <glyph glyph-name="greater" unicode="&#x3e;" horiz-adv-x="1321" 
d="M190 203l782 361v8l-782 369v139l941 -449v-116l-941 -451v139z" />
    <glyph glyph-name="question" unicode="?" horiz-adv-x="1020" 
d="M82 1079q9 165 120 271t299 106q179 0 294.5 -102t115.5 -256q0 -108 -52.5 -190.5t-158.5 -150.5q-98 -63 -133 -115.5t-35 -136.5v-75h-133v94q-1 99 45 169t153 138q95 62 134 120.5t39 140.5q0 107 -77 176t-197 69t-197 -70t-87 -188h-130zM478 -14
q-49 0 -80.5 31.5t-31.5 80.5q0 50 31.5 81.5t80.5 31.5t80 -31.5t31 -81.5q0 -49 -31 -80.5t-80 -31.5z" />
    <glyph glyph-name="at" unicode="@" horiz-adv-x="1871" 
d="M929 906q-110 0 -176.5 -85.5t-66.5 -226.5q0 -142 66 -226t176 -84q111 0 177 86t66 229q0 141 -65.5 224t-176.5 83zM961 1434q233 0 415.5 -94t283.5 -263.5t101 -386.5q0 -242 -94 -382t-257 -140q-93 0 -155.5 51t-70.5 133h-13q-34 -85 -101 -131t-158 -46
q-155 0 -252 117t-97 305q0 184 97.5 300t251.5 116q84 0 152 -44t96 -117h13v141h116v-575q0 -72 36.5 -110t104.5 -38q103 0 162 113t59 309q0 188 -88 334.5t-247 227.5t-364 81q-151 0 -282 -55t-224 -152t-146 -233.5t-53 -294.5q0 -331 199 -532t526 -201
q223 0 332 44v-99q-132 -44 -333 -44q-378 0 -605.5 228.5t-227.5 607.5q0 242 104 431t291.5 294t427.5 105z" />
    <glyph glyph-name="A" unicode="A" horiz-adv-x="1363" 
d="M1145 0l-160 442h-606l-160 -442h-145l540 1443h136l539 -1443h-144zM675 1264l-255 -704h524l-256 704h-13z" />
    <glyph glyph-name="B" unicode="B" horiz-adv-x="1319" 
d="M715 0h-530v1443h519q199 0 314 -95.5t115 -260.5q0 -121 -74 -209.5t-190 -108.5v-13q153 -17 245.5 -113t92.5 -244q0 -189 -129 -294t-363 -105zM322 1322v-515h323q168 0 259 66.5t91 191.5q0 121 -84.5 189t-232.5 68h-356zM322 121h374q181 0 276 73t95 212
q0 137 -100 209.5t-288 72.5h-357v-567z" />
    <glyph glyph-name="C" unicode="C" horiz-adv-x="1455" 
d="M763 -30q-294 0 -465 202t-171 549t171 549.5t464 202.5q147 0 271.5 -60.5t205 -168t99.5 -242.5h-139q-31 153 -152.5 248.5t-284.5 95.5q-227 0 -361 -169.5t-134 -455.5q0 -287 134 -455.5t362 -168.5q167 0 286.5 86t149.5 228h139q-31 -199 -188.5 -320
t-386.5 -121z" />
    <glyph glyph-name="D" unicode="D" horiz-adv-x="1472" 
d="M185 1443h475q327 0 506 -191t179 -530q0 -340 -178.5 -531t-506.5 -191h-475v1443zM322 1319v-1195h330q263 0 408 158t145 439t-145 439.5t-408 158.5h-330z" />
    <glyph glyph-name="E" unicode="E" horiz-adv-x="1197" 
d="M1057 124v-124h-872v1443h872v-124h-735v-519h698v-122h-698v-554h735z" />
    <glyph glyph-name="F" unicode="F" horiz-adv-x="1155" 
d="M322 0h-137v1443h856v-124h-719v-542h661v-122h-661v-655z" />
    <glyph glyph-name="G" unicode="G" horiz-adv-x="1506" 
d="M1375 559q0 -268 -164 -428.5t-438 -160.5q-293 0 -469.5 205.5t-176.5 546.5q0 339 176 545t467 206q231 0 391.5 -123t199.5 -329h-139q-45 155 -163 240t-289 85q-229 0 -366 -170t-137 -454q0 -285 137.5 -455t368.5 -170q212 0 339 123.5t127 327.5v50h-440v121h576
v-160z" />
    <glyph glyph-name="H" unicode="H" horiz-adv-x="1488" 
d="M1303 0h-137v677h-844v-677h-137v1443h137v-642h844v642h137v-1443z" />
    <glyph glyph-name="I" unicode="I" horiz-adv-x="507" 
d="M322 0h-137v1443h137v-1443z" />
    <glyph glyph-name="J" unicode="J" horiz-adv-x="1088" 
d="M92 330h136q5 -103 78 -168t186 -65q131 0 202.5 78.5t71.5 222.5v1045h137v-1050q0 -197 -110 -310t-300 -113q-175 0 -287.5 100.5t-113.5 259.5z" />
    <glyph glyph-name="K" unicode="&#x212a;" horiz-adv-x="1311" 
d="M322 0h-137v1443h137v-746h12l683 746h171l-578 -623l637 -820h-177l-555 725l-193 -210v-515z" />
    <glyph glyph-name="K" unicode="K" horiz-adv-x="1311" 
d="M322 0h-137v1443h137v-746h12l683 746h171l-578 -623l637 -820h-177l-555 725l-193 -210v-515z" />
    <glyph glyph-name="L" unicode="L" horiz-adv-x="1139" 
d="M1044 124v-124h-859v1443h137v-1319h722z" />
    <glyph glyph-name="M" unicode="M" horiz-adv-x="1761" 
d="M1576 0h-128v1177h-10l-498 -1177h-119l-498 1177h-9v-1177h-129v1443h157l533 -1263h12l531 1263h158v-1443z" />
    <glyph glyph-name="N" unicode="N" horiz-adv-x="1494" 
d="M320 0h-135v1443h135l841 -1198h13v1198h135v-1443h-132l-844 1199h-13v-1199z" />
    <glyph glyph-name="O" unicode="O" horiz-adv-x="1561" 
d="M781 1473q302 0 477.5 -202.5t175.5 -548.5t-175 -549t-478 -203q-304 0 -479 202.5t-175 549.5t176 549t478 202zM781 1346q-236 0 -375 -168.5t-139 -455.5q0 -286 138 -455.5t376 -169.5q236 0 374.5 169.5t138.5 455.5q0 287 -138.5 455.5t-374.5 168.5z" />
    <glyph glyph-name="P" unicode="P" horiz-adv-x="1272" 
d="M185 1443h513q207 0 334.5 -125t127.5 -327q0 -199 -129 -323t-335 -124h-374v-544h-137v1443zM322 1321v-655h343q167 0 261.5 86.5t94.5 238.5q0 156 -93.5 243t-262.5 87h-343z" />
    <glyph glyph-name="Q" unicode="Q" horiz-adv-x="1561" 
d="M781 -30q-304 0 -479 201t-175 550q0 348 176 550t478 202q301 0 476.5 -202.5t175.5 -549.5q0 -219 -70 -384t-200 -253l183 -253h-154l-140 191q-122 -52 -271 -52zM782 97q104 0 192 35l-194 263h155l148 -198q101 73 155.5 208.5t54.5 315.5q0 287 -138.5 456
t-373.5 169q-236 0 -375 -169t-139 -456q0 -288 139 -456t376 -168z" />
    <glyph glyph-name="R" unicode="R" horiz-adv-x="1309" 
d="M322 1321v-608h369q157 0 244.5 80t87.5 224q0 142 -90 223t-248 81h-363zM322 591v-591h-137v1443h517q211 0 336 -114.5t125 -307.5q0 -153 -82 -261.5t-227 -146.5l350 -613h-160l-332 591h-21h-369z" />
    <glyph glyph-name="S" unicode="S" horiz-adv-x="1284" 
d="M115 375h138q14 -124 126.5 -202t277.5 -78q161 0 266 80t105 201q0 102 -77.5 170t-244.5 109l-165 42q-203 50 -294 139.5t-91 236.5q0 176 137.5 288t356.5 112q206 0 345 -108.5t150 -274.5h-138q-17 116 -114.5 187t-246.5 71q-155 0 -252.5 -76.5t-97.5 -194.5
q0 -94 72 -153.5t237 -100.5l143 -36q223 -55 321.5 -148.5t98.5 -247.5q0 -189 -143.5 -305t-379.5 -116q-224 0 -370.5 112t-159.5 293z" />
    <glyph glyph-name="T" unicode="T" horiz-adv-x="1280" 
d="M708 0h-136v1319h-484v124h1104v-124h-484v-1319z" />
    <glyph glyph-name="U" unicode="U" horiz-adv-x="1485" 
d="M320 1443v-934q0 -183 114 -296t308 -113t308 113t114 296v934h137v-943q0 -237 -151 -381.5t-408 -144.5q-256 0 -407 144.5t-151 381.5v943h136z" />
    <glyph glyph-name="V" unicode="V" horiz-adv-x="1363" 
d="M750 0h-136l-540 1443h144l457 -1264h13l457 1264h144z" />
    <glyph glyph-name="W" unicode="W" horiz-adv-x="1956" 
d="M973 1205l-354 -1205h-127l-397 1443h142l317 -1230h9l347 1230h136l347 -1230h9l317 1230h142l-397 -1443h-127l-354 1205h-10z" />
    <glyph glyph-name="X" unicode="X" horiz-adv-x="1366" 
d="M95 0l504 724l-500 719h165l418 -609h11l422 609h156l-508 -724l500 -719h-164l-416 606h-11l-421 -606h-156z" />
    <glyph glyph-name="Y" unicode="Y" horiz-adv-x="1321" 
d="M729 0h-136v624l-518 819h157l423 -680h12l423 680h156l-517 -819v-624z" />
    <glyph glyph-name="Z" unicode="Z" horiz-adv-x="1328" 
d="M138 0v99l863 1208v12h-834v124h1011v-100l-860 -1207v-12h872v-124h-1052z" />
    <glyph glyph-name="bracketleft" unicode="[" horiz-adv-x="751" 
d="M265 1506h404v-106h-275v-1599h280v-105h-409v1810z" />
    <glyph glyph-name="backslash" unicode="\" horiz-adv-x="676" 
d="M538 -304l-518 1810h118l518 -1810h-118z" />
    <glyph glyph-name="bracketright" unicode="]" horiz-adv-x="751" 
d="M486 -304h-404v105h275v1599h-280v106h409v-1810z" />
    <glyph glyph-name="asciicircum" unicode="^" horiz-adv-x="921" 
d="M453 1272l-229 -482h-127l289 596h149l291 -596h-127l-231 482h-15z" />
    <glyph glyph-name="underscore" unicode="_" horiz-adv-x="919" 
d="M927 -222h-935v100h935v-100z" />
    <glyph glyph-name="grave" unicode="`" horiz-adv-x="1024" 
d="M567 1228l-227 332h157l188 -332h-118z" />
    <glyph glyph-name="a" unicode="a" horiz-adv-x="1125" 
d="M491 98q145 0 242.5 87.5t97.5 215.5v126l-319 -23q-271 -19 -271 -204q0 -92 70 -147t180 -55zM469 -18q-160 0 -261.5 86.5t-101.5 229.5q0 140 100 220.5t288 93.5l337 22v101q0 118 -70 180.5t-201 62.5q-111 0 -185 -44t-93 -123h-133q19 130 133 207t282 77
q189 0 294 -94.5t105 -264.5v-736h-126v185h-12q-49 -96 -143 -149.5t-213 -53.5z" />
    <glyph glyph-name="b" unicode="b" horiz-adv-x="1252" 
d="M685 -18q-124 0 -222 62t-146 171h-13v-215h-125v1506h131v-638h12q45 105 143 166t220 61q205 0 329 -152t124 -404q0 -251 -124.5 -404t-328.5 -153zM658 977q-159 0 -255 -119.5t-96 -318.5t96 -318.5t255 -119.5t252 118.5t93 320.5q0 201 -93 319t-252 118z" />
    <glyph glyph-name="c" unicode="c" horiz-adv-x="1145" 
d="M1042 760h-133q-26 96 -107.5 156.5t-201.5 60.5q-161 0 -255.5 -118t-94.5 -317q0 -202 95 -321.5t255 -119.5q120 0 201.5 55t106.5 154h133q-25 -148 -142 -238t-298 -90q-223 0 -354.5 151.5t-131.5 408.5q0 253 131.5 403t353.5 150q180 0 298.5 -94.5t143.5 -240.5
z" />
    <glyph glyph-name="d" unicode="d" horiz-adv-x="1256" 
d="M571 -18q-206 0 -331 152.5t-125 403.5q0 250 125.5 403.5t330.5 153.5q123 0 220 -61t143 -167h12v639h131v-1506h-126v215h-12q-48 -108 -146.5 -170.5t-221.5 -62.5zM599 977q-160 0 -254.5 -119t-94.5 -319q0 -201 94.5 -319.5t254.5 -118.5q159 0 254 119t95 319
q0 198 -95.5 318t-253.5 120z" />
    <glyph glyph-name="e" unicode="e" horiz-adv-x="1174" 
d="M595 979q-147 0 -241 -100.5t-103 -266.5h671q-2 167 -91.5 267t-235.5 100zM909 266h133q-38 -131 -157 -207.5t-288 -76.5q-222 0 -352 150.5t-130 405.5q0 254 130.5 405.5t350.5 151.5q215 0 339 -143t124 -390v-58h-809v-6q5 -183 99.5 -291t250.5 -108
q114 0 194 43.5t115 123.5z" />
    <glyph glyph-name="f" unicode="f" horiz-adv-x="718" 
d="M241 0v966h-179v111h179v138q0 149 74 225t215 76q59 0 106 -10v-108q-32 6 -81 6q-183 0 -183 -192v-135h254v-111h-254v-966h-131z" />
    <glyph glyph-name="g" unicode="g" horiz-adv-x="1242" 
d="M595 128q161 0 255.5 115t94.5 307q0 193 -95.5 310t-254.5 117q-160 0 -252.5 -115.5t-92.5 -309.5q0 -193 92.5 -308.5t252.5 -115.5zM606 -404q-184 0 -301 75.5t-138 202.5h139q18 -75 98 -119t202 -44q156 0 246.5 76t90.5 207v242h-13q-48 -107 -142.5 -166
t-218.5 -59q-207 0 -330.5 148.5t-123.5 392.5t124 393.5t330 149.5q123 0 223 -63t144 -168h12v213h126v-1093q0 -176 -128 -282t-340 -106z" />
    <glyph glyph-name="h" unicode="h" horiz-adv-x="1210" 
d="M179 0v1506h131v-623h12q44 101 135 156.5t219 55.5q174 0 274 -104.5t100 -290.5v-700h-131v667q0 152 -71.5 231t-206.5 79q-151 0 -241 -93.5t-90 -243.5v-640h-131z" />
    <glyph glyph-name="i" unicode="i" horiz-adv-x="480" 
d="M175 0v1077h131v-1077h-131zM240 1301q-40 0 -68.5 28.5t-28.5 68.5t28.5 68.5t68.5 28.5t68.5 -28.5t28.5 -68.5t-28.5 -68.5t-68.5 -28.5z" />
    <glyph glyph-name="j" unicode="j" horiz-adv-x="480" 
d="M306 1077v-1145q0 -156 -74.5 -227.5t-228.5 -71.5h-24v113h21q94 0 134.5 42.5t40.5 139.5v1149h131zM242 1301q-40 0 -68.5 28.5t-28.5 68.5t28.5 68.5t68.5 28.5t68.5 -28.5t28.5 -68.5t-28.5 -68.5t-68.5 -28.5z" />
    <glyph glyph-name="k" unicode="k" horiz-adv-x="1092" 
d="M322 573l526 504h164l-481 -462l503 -615h-168l-434 531l-122 -113v-418h-131v1506h131v-933h12z" />
    <glyph glyph-name="l" unicode="l" horiz-adv-x="489" 
d="M179 0v1506h131v-1506h-131z" />
    <glyph glyph-name="m" unicode="m" horiz-adv-x="1772" 
d="M169 0v1077h125v-194h13q35 99 117.5 155.5t193.5 56.5t190.5 -56.5t114.5 -155.5h13q42 98 131.5 155t204.5 57q162 0 251.5 -93.5t89.5 -264.5v-737h-131v707q0 132 -63.5 201t-185.5 69q-123 0 -200 -83.5t-77 -210.5v-683h-131v721q0 116 -68 186t-180 70
q-117 0 -197 -92t-80 -224v-661h-131z" />
    <glyph glyph-name="n" unicode="n" horiz-adv-x="1192" 
d="M169 0v1077h125v-194h13q43 101 132 156.5t216 55.5q180 0 278.5 -103.5t98.5 -291.5v-700h-131v667q0 310 -281 310q-143 0 -231.5 -92.5t-88.5 -244.5v-640h-131z" />
    <glyph glyph-name="o" unicode="o" horiz-adv-x="1208" 
d="M604 -18q-226 0 -357.5 149.5t-131.5 407.5t131.5 407t357.5 149t358 -149t132 -407t-132 -407.5t-358 -149.5zM604 101q166 0 260 116.5t94 321.5t-94 321.5t-260 116.5t-260 -116.5t-94 -321.5t94 -321.5t260 -116.5z" />
    <glyph glyph-name="p" unicode="p" horiz-adv-x="1242" 
d="M675 1095q205 0 329 -152.5t124 -403.5t-124.5 -404t-328.5 -153q-125 0 -221.5 59.5t-141.5 163.5h-12v-562h-131v1434h125v-220h12q50 111 148 174.5t221 63.5zM646 101q160 0 253.5 118t93.5 319q0 202 -93.5 320.5t-252.5 118.5q-158 0 -254.5 -120t-96.5 -318
t96 -318t254 -120z" />
    <glyph glyph-name="q" unicode="q" horiz-adv-x="1246" 
d="M570 1095q122 0 221.5 -64.5t146.5 -173.5h12v220h127v-1434h-133v562h-12q-50 -106 -144.5 -164.5t-217.5 -58.5q-205 0 -330 153t-125 404q0 250 125 403t330 153zM596 101q160 0 256 119.5t96 318.5q0 198 -96 318t-255 120t-253 -119t-94 -319q0 -201 93.5 -319.5
t252.5 -118.5z" />
    <glyph glyph-name="r" unicode="r" horiz-adv-x="764" 
d="M169 0v1077h125v-177h13q27 88 110 141.5t190 53.5q64 0 101 -9v-131q-45 13 -117 13q-125 0 -208 -84.5t-83 -211.5v-672h-131z" />
    <glyph glyph-name="s" unicode="s" horiz-adv-x="1058" 
d="M144 792q0 129 112.5 216t276.5 87q163 0 270 -75.5t125 -203.5h-129q-18 76 -89.5 121.5t-177.5 45.5q-107 0 -181.5 -53t-74.5 -133q0 -66 52 -107t162 -67l148 -35q159 -38 234 -106.5t75 -183.5q0 -138 -119 -227t-297 -89q-176 0 -290 77.5t-130 210.5h136
q22 -82 97 -129t191 -47q119 0 198 55t79 139q0 70 -51 113.5t-160 69.5l-163 39q-152 37 -223 103.5t-71 178.5z" />
    <glyph glyph-name="t" unicode="t" horiz-adv-x="724" 
d="M237 1357h131v-280h249v-111h-249v-668q0 -99 40 -143.5t131 -44.5q45 0 78 3v-112q-40 -7 -92 -7q-155 0 -221.5 63.5t-66.5 210.5v698h-176v111h176v280z" />
    <glyph glyph-name="u" unicode="u" horiz-adv-x="1193" 
d="M1024 1077v-1077h-125v194h-12q-41 -101 -132 -156.5t-219 -55.5q-179 0 -277.5 104.5t-98.5 290.5v700h131v-667q0 -151 70.5 -229.5t208.5 -78.5q150 0 236.5 90.5t86.5 244.5v640h131z" />
    <glyph glyph-name="v" unicode="v" horiz-adv-x="1078" 
d="M1011 1077l-402 -1077h-140l-402 1077h140l326 -934h12l325 934h141z" />
    <glyph glyph-name="w" unicode="w" horiz-adv-x="1566" 
d="M1499 1077l-307 -1077h-139l-265 894h-13l-265 -894h-138l-305 1077h133l239 -914h12l266 914h131l266 -914h12l241 914h132z" />
    <glyph glyph-name="x" unicode="x" horiz-adv-x="1047" 
d="M528 438h-12l-294 -440h-150l380 542l-382 535h157l293 -430h13l290 430h151l-378 -530l382 -547h-157z" />
    <glyph glyph-name="y" unicode="y" horiz-adv-x="1079" 
d="M245 -381q-27 0 -61 4v114q20 -4 59 -4q74 0 120 43t86 150l22 67l-404 1084h142l326 -934h12l325 934h140l-419 -1129q-72 -194 -144 -261.5t-204 -67.5z" />
    <glyph glyph-name="z" unicode="z" horiz-adv-x="1082" 
d="M131 0v100l660 854v12h-659v111h816v-101l-658 -853v-12h660v-111h-819z" />
    <glyph glyph-name="braceleft" unicode="{" horiz-adv-x="751" 
d="M203 591q116 -9 169.5 -65.5t53.5 -166.5v-319q0 -125 49.5 -180t156.5 -55h42v-109h-53q-165 0 -243 79.5t-78 249.5v281q0 122 -48 169.5t-175 47.5v157q127 0 175 47.5t48 170.5v281q0 169 78 248t243 79h53v-109h-42q-109 0 -157.5 -53.5t-48.5 -178.5v-320
q0 -110 -53.5 -166.5t-169.5 -65.5v-22z" />
    <glyph glyph-name="bar" unicode="|" horiz-adv-x="676" 
d="M394 -304h-113v1810h113v-1810z" />
    <glyph glyph-name="braceright" unicode="}" horiz-adv-x="751" 
d="M548 611q-116 9 -169.5 65.5t-53.5 166.5v318q0 126 -49.5 181t-156.5 55h-42v109h53q165 0 243 -79.5t78 -249.5v-281q0 -123 48 -170t175 -47v-157q-127 0 -175 -47.5t-48 -171.5v-281q0 -168 -78 -247t-243 -79h-53v109h42q109 0 157.5 53.5t48.5 178.5v319
q0 110 53.5 167t169.5 66v22z" />
    <glyph glyph-name="asciitilde" unicode="~" horiz-adv-x="1321" 
d="M876 397q-71 0 -127 29t-144 108q-56 50 -91 69t-72 19q-66 0 -105 -51.5t-43 -144.5h-119q0 155 76.5 237t189.5 82q68 0 124.5 -30.5t139.5 -107.5q57 -51 94 -69.5t75 -18.5q67 0 107.5 53.5t45.5 147.5h119q0 -154 -79 -238.5t-191 -84.5z" />
    <glyph glyph-name="nonbreakingspace" unicode="&#xa0;" horiz-adv-x="554" 
 />
    <glyph glyph-name="exclamdown" unicode="&#xa1;" horiz-adv-x="617" 
d="M233 -340l12 986h127l11 -986h-150zM309 895q-49 0 -80.5 31.5t-31.5 80.5t31.5 80.5t80.5 31.5t80 -31.5t31 -80.5t-31 -80.5t-80 -31.5z" />
    <glyph glyph-name="cent" unicode="&#xa2;" horiz-adv-x="1321" 
d="M637 295v854q-143 -18 -225.5 -131t-82.5 -296q0 -186 82.5 -297.5t225.5 -129.5zM1012 524h131q-21 -145 -133.5 -240.5t-277.5 -107.5v-176h-95v177q-203 18 -322.5 163t-119.5 382q0 234 119.5 380.5t322.5 164.5v175h95v-175q170 -12 280 -113t130 -242h-130
q-21 98 -94 162.5t-186 75.5v-856q111 10 184.5 70t95.5 160z" />
    <glyph glyph-name="sterling" unicode="&#xa3;" horiz-adv-x="1321" 
d="M353 121h831v-118h-1054v117q138 28 225 130.5t87 227.5q0 80 -32 190h-266v106h231q-61 177 -61 275q0 194 131 305.5t369 111.5q178 0 296 -56v-123q-41 24 -122 41t-168 17q-176 0 -271 -78.5t-95 -214.5q0 -44 10 -97t20 -86t30 -95h491v-106h-457q29 -102 29 -185
q0 -122 -65.5 -218.5t-158.5 -132.5v-11z" />
    <glyph glyph-name="currency" unicode="&#xa4;" horiz-adv-x="1321" 
d="M375 656q0 -118 84 -202t202 -84t202 84t84 202t-84 202t-202 84t-202 -84t-84 -202zM1139 1052l-167 -168q75 -102 75 -228q0 -128 -76 -229l168 -168l-82 -82l-168 168q-102 -75 -228 -75q-127 0 -228 76l-169 -169l-82 82l168 169q-75 102 -75 228t75 228l-168 168
l82 82l168 -168q101 76 229 76q127 0 228 -76l168 168z" />
    <glyph glyph-name="yen" unicode="&#xa5;" horiz-adv-x="1321" 
d="M1233 1421l-456 -730h304v-95h-353v-172h353v-95h-353v-326h-134v326h-344v95h344v172h-344v95h295l-457 730h155l415 -684h5l415 684h155z" />
    <glyph glyph-name="brokenbar" unicode="&#xa6;" horiz-adv-x="676" 
d="M394 781h-113v725h113v-725zM394 -304h-113v722h113v-722z" />
    <glyph glyph-name="section" unicode="&#xa7;" horiz-adv-x="1178" 
d="M533 425l73 -17q109 0 181 61.5t72 155.5q0 76 -52 124.5t-158 75.5l-74 18q-109 -1 -182.5 -63t-73.5 -154q0 -145 214 -201zM594 -225q-167 0 -277 82t-121 214h133q12 -82 86.5 -132.5t184.5 -50.5q112 0 183.5 54t71.5 140q0 69 -53.5 113.5t-171.5 77.5l-122 34
q-168 46 -246 116.5t-78 177.5q0 101 65.5 173.5t181.5 100.5v12q-232 82 -232 274q0 138 107.5 225t278.5 87q163 0 269 -78t122 -209h-132q-11 79 -82.5 126.5t-179.5 47.5q-111 0 -181 -53t-70 -138q0 -69 53 -114t169 -77l122 -34q165 -45 241.5 -114.5t76.5 -174.5
q0 -107 -73 -186.5t-192 -102.5v-11q257 -63 257 -264q0 -139 -110 -227.5t-281 -88.5z" />
    <glyph glyph-name="dieresis" unicode="&#xa8;" horiz-adv-x="1024" 
d="M320 1301q-40 0 -68.5 28.5t-28.5 68.5t28.5 68.5t68.5 28.5q41 0 69.5 -28.5t28.5 -68.5t-28.5 -68.5t-69.5 -28.5zM704 1301q-41 0 -69.5 28.5t-28.5 68.5t28.5 68.5t69.5 28.5q40 0 68.5 -28.5t28.5 -68.5t-28.5 -68.5t-68.5 -28.5z" />
    <glyph glyph-name="copyright" unicode="&#xa9;" horiz-adv-x="1742" 
d="M871 -158q-163 0 -308 60.5t-249 164.5t-165 249.5t-61 309.5t60.5 310t164.5 250t249.5 164t308.5 60q164 0 309 -60t249 -164t164.5 -249.5t60.5 -310.5q0 -164 -60.5 -309.5t-164.5 -249.5t-249 -164.5t-309 -60.5zM871 -49q141 0 265.5 52t214 141.5t141.5 214.5
t52 267t-52 267.5t-141 215t-214 141t-266 51.5t-265.5 -51.5t-214 -141t-141.5 -215t-52 -267.5q0 -189 88.5 -344t243 -243t341.5 -88zM1238 780h-108q-21 79 -88 127t-162 48q-128 0 -206 -87.5t-78 -237.5q0 -152 78 -241.5t206 -89.5q100 0 165 45.5t84 123.5h109
q-21 -122 -117 -194t-240 -72q-178 0 -286.5 116t-108.5 312q0 194 108 308.5t286 114.5q141 0 239 -76.5t119 -196.5z" />
    <glyph glyph-name="a.sups" unicode="&#xaa;" horiz-adv-x="787" 
d="M346 826q92 0 155 51t63 126v74l-205 -13q-173 -12 -173 -119q0 -55 44.5 -87t115.5 -32zM320 731q-109 0 -178.5 57t-69.5 151q0 93 70 146.5t202 61.5l220 13v64q0 67 -45.5 103.5t-128.5 36.5q-71 0 -118.5 -26t-60.5 -73h-110q13 90 93 143t201 53q133 0 207 -62
t74 -175v-482h-109v114h-9q-32 -59 -95.5 -92t-142.5 -33z" />
    <glyph glyph-name="guillemotleft" unicode="&#xab;" horiz-adv-x="1362" 
d="M344 572v-13l357 -410h-157l-359 414v6l359 414h157zM794 572v-13l358 -410h-157l-359 414v6l359 414h157z" />
    <glyph glyph-name="logicalnot" unicode="&#xac;" horiz-adv-x="1321" 
d="M1106 634v-558h-124v435h-767v123h891z" />
    <glyph glyph-name="registered" unicode="&#xae;" horiz-adv-x="1260" 
d="M630 459q-141 0 -259.5 68.5t-187 187t-68.5 260.5t68.5 260.5t187 186.5t259.5 68q106 0 201.5 -40.5t164 -109t109 -164t40.5 -201.5q0 -142 -68 -260.5t-186.5 -187t-260.5 -68.5zM630 543q181 0 306 125.5t125 306.5t-125 306t-306 125t-306 -125t-125 -306
t125 -306.5t306 -125.5zM517 729h-80v515h232q77 0 126.5 -44t49.5 -114q0 -61 -33 -100.5t-89 -51.5l145 -205h-98l-138 194h-115v-194zM517 1171v-178h130q110 0 110 91q0 41 -27.5 64t-80.5 23h-132z" />
    <glyph glyph-name="macron" unicode="&#xaf;" horiz-adv-x="1024" 
d="M824 1450v-105h-624v105h624z" />
    <glyph glyph-name="degree" unicode="&#xb0;" horiz-adv-x="921" 
d="M461 771q-135 0 -225 92t-90 225q0 132 90 224t225 92t225 -92t90 -224q0 -133 -90.5 -225t-224.5 -92zM461 880q86 0 143 60.5t57 147.5t-57.5 147.5t-142.5 60.5q-87 0 -143.5 -60.5t-56.5 -147.5t57 -147.5t143 -60.5z" />
    <glyph glyph-name="plusminus" unicode="&#xb1;" horiz-adv-x="1321" 
d="M1141 76h-961v114h961v-114zM718 642v-319h-115v319h-423v115h423v311h115v-311h423v-115h-423z" />
    <glyph glyph-name="two.sups" unicode="&#xb2;" horiz-adv-x="784" 
d="M94 1347q1 116 85.5 190.5t215.5 74.5q125 0 205.5 -68.5t80.5 -173.5q0 -72 -41.5 -136.5t-155.5 -171.5l-222 -208v-8h439v-104h-600v86l311 301q91 88 121.5 133.5t30.5 96.5q0 66 -48.5 109t-127.5 43q-81 0 -131.5 -46t-51.5 -118h-111z" />
    <glyph glyph-name="three.sups" unicode="&#xb3;" horiz-adv-x="807" 
d="M290 1133v95h106q80 0 130 39.5t50 103.5q0 60 -48.5 100t-127.5 40q-80 0 -130.5 -39t-55.5 -105h-111q6 109 88.5 177t215.5 68q128 0 206 -65t78 -160q-1 -76 -46.5 -127t-121.5 -69v-9q95 -11 149.5 -66.5t54.5 -142.5q0 -108 -92 -179t-231 -71q-136 0 -225 69
t-94 179h113q5 -63 62.5 -103.5t142.5 -40.5q89 0 147 43.5t58 111.5q0 70 -56 110.5t-154 40.5h-108z" />
    <glyph glyph-name="acute" unicode="&#xb4;" horiz-adv-x="1024" 
d="M458 1228h-118l187 332h158z" />
    <glyph glyph-name="mugreek" unicode="&#x3bc;" horiz-adv-x="1255" 
d="M172 -357v1434h131v-663q0 -153 71 -232.5t206 -79.5q142 0 227 91.5t85 243.5v640h131v-834q0 -76 24 -106.5t81 -30.5q26 0 54 6v-112q-33 -10 -78 -10q-100 0 -147 40t-58 135l-1 28h-13q-85 -211 -310 -211q-95 0 -163.5 41t-96.5 117h-12v-497h-131z" />
    <glyph glyph-name="mugreek" unicode="&#xb5;" horiz-adv-x="1255" 
d="M172 -357v1434h131v-663q0 -153 71 -232.5t206 -79.5q142 0 227 91.5t85 243.5v640h131v-834q0 -76 24 -106.5t81 -30.5q26 0 54 6v-112q-33 -10 -78 -10q-100 0 -147 40t-58 135l-1 28h-13q-85 -211 -310 -211q-95 0 -163.5 41t-96.5 117h-12v-497h-131z" />
    <glyph glyph-name="paragraph" unicode="&#xb6;" horiz-adv-x="1178" 
d="M707 -195h-123v828h-19q-193 0 -321 113.5t-128 286.5q0 180 127.5 295t322.5 115h141v-1638zM869 -195v1638h123v-1638h-123z" />
    <glyph glyph-name="periodcentered" unicode="&#xb7;" horiz-adv-x="593" 
d="M297 433q-44 0 -75 31t-31 75t31 75t75 31t74.5 -31t30.5 -75t-30.5 -75t-74.5 -31z" />
    <glyph glyph-name="cedilla" unicode="&#xb8;" horiz-adv-x="1024" 
d="M397 -221v71l89 170h101v-20l-73 -135q101 0 160 -42t59 -118q0 -90 -69 -137.5t-173 -47.5q-67 0 -142 20v92q49 -17 121 -17q58 0 98 22t40 63q0 79 -155 79h-56z" />
    <glyph glyph-name="one.sups" unicode="&#xb9;" horiz-adv-x="595" 
d="M308 742v726h-8q-11 -5 -116 -73.5t-113 -73.5v119q1 0 110.5 71.5t127.5 81.5h116v-851h-117z" />
    <glyph glyph-name="o.sups" unicode="&#xba;" horiz-adv-x="842" 
d="M420 729q-158 0 -250 98.5t-92 267.5q0 170 92 268t250 98q159 0 251 -98t92 -268t-92 -268t-251 -98zM420 829q106 0 166.5 71t60.5 195q0 125 -60.5 195.5t-166.5 70.5t-166 -71t-60 -195q0 -125 60 -195.5t166 -70.5z" />
    <glyph glyph-name="guillemotright" unicode="&#xbb;" horiz-adv-x="1362" 
d="M1019 559v13l-357 411h157l358 -414v-6l-358 -414h-157zM568 559v13l-357 411h157l358 -414v-6l-358 -414h-157z" />
    <glyph glyph-name="onequarter" unicode="&#xbc;" horiz-adv-x="1829" 
d="M308 592v726h-8q-11 -5 -116 -73.5t-113 -73.5v119q1 0 110.5 71.5t127.5 81.5h116v-851h-117zM440 0h-126l972 1443h127zM1513 0v178h-446v102q168 271 393 572h166v-571h129v-103h-129v-178h-113zM1180 286v-8h335v471h-7q-189 -246 -328 -463z" />
    <glyph glyph-name="onehalf" unicode="&#xbd;" horiz-adv-x="1884" 
d="M308 592v726h-8q-11 -5 -116 -73.5t-113 -73.5v119q1 0 110.5 71.5t127.5 81.5h116v-851h-117zM440 0h-126l972 1443h127zM1195 605q1 116 85.5 190.5t215.5 74.5q125 0 205.5 -68.5t80.5 -173.5q0 -72 -41.5 -136.5t-155.5 -171.5l-222 -208v-8h439v-104h-600v86
l311 301q91 88 121.5 133.5t30.5 96.5q0 66 -48.5 109t-127.5 43q-81 0 -131.5 -46t-51.5 -118h-111z" />
    <glyph glyph-name="threequarters" unicode="&#xbe;" horiz-adv-x="2041" 
d="M290 983v95h106q80 0 130 39.5t50 103.5q0 60 -48.5 100t-127.5 40q-80 0 -130.5 -39t-55.5 -105h-111q6 109 88.5 177t215.5 68q128 0 206 -65t78 -160q-1 -76 -46.5 -127t-121.5 -69v-9q95 -11 149.5 -66.5t54.5 -142.5q0 -108 -92 -179t-231 -71q-136 0 -225 69
t-94 179h113q5 -63 62.5 -103.5t142.5 -40.5q89 0 147 43.5t58 111.5q0 70 -56 110.5t-154 40.5h-108zM652 0h-126l972 1443h127zM1725 0v178h-446v102q168 271 393 572h166v-571h129v-103h-129v-178h-113zM1392 286v-8h335v471h-7q-189 -246 -328 -463z" />
    <glyph glyph-name="questiondown" unicode="&#xbf;" horiz-adv-x="1019" 
d="M938 21q-9 -165 -120.5 -271.5t-298.5 -106.5q-180 0 -295 102.5t-115 257.5q0 108 52.5 190t157.5 150q98 62 133 114.5t35 136.5v76h133v-95q1 -98 -44.5 -168t-152.5 -139q-94 -61 -133.5 -120t-39.5 -139q0 -108 76.5 -177.5t197.5 -69.5q120 0 197 70t87 189h130z
M543 894q-49 0 -80.5 31.5t-31.5 80.5q0 48 32 80.5t80 32.5t79.5 -32.5t31.5 -80.5q0 -49 -31 -80.5t-80 -31.5z" />
    <glyph glyph-name="Agrave" unicode="&#xc0;" horiz-adv-x="1363" 
d="M1145 0l-160 442h-606l-160 -442h-145l540 1443h136l539 -1443h-144zM675 1264l-255 -704h524l-256 704h-13zM618 1576l-230 298h164l185 -298h-119z" />
    <glyph glyph-name="Aacute" unicode="&#xc1;" horiz-adv-x="1363" 
d="M1145 0l-160 442h-606l-160 -442h-145l540 1443h136l539 -1443h-144zM675 1264l-255 -704h524l-256 704h-13zM746 1576h-119l185 298h164z" />
    <glyph glyph-name="Acircumflex" unicode="&#xc2;" horiz-adv-x="1363" 
d="M1145 0l-160 442h-606l-160 -442h-145l540 1443h136l539 -1443h-144zM675 1264l-255 -704h524l-256 704h-13zM620 1874h124l289 -297h-155l-190 202h-12l-190 -202h-155z" />
    <glyph glyph-name="Atilde" unicode="&#xc3;" horiz-adv-x="1363" 
d="M1145 0l-160 442h-606l-160 -442h-145l540 1443h136l539 -1443h-144zM675 1264l-255 -704h524l-256 704h-13zM809 1594q-43 0 -76.5 16t-54.5 38t-39.5 44.5t-40.5 38.5t-48 16q-42 0 -65.5 -39.5t-23.5 -116.5h-110q0 122 53.5 191t147.5 69q43 0 77 -16.5t55.5 -39.5
t40.5 -46t41.5 -39.5t48.5 -16.5q88 0 88 160h110q0 -121 -54 -190t-150 -69z" />
    <glyph glyph-name="Adieresis" unicode="&#xc4;" horiz-adv-x="1363" 
d="M1145 0l-160 442h-606l-160 -442h-145l540 1443h136l539 -1443h-144zM675 1264l-255 -704h524l-256 704h-13zM490 1646q-40 0 -68.5 29t-28.5 69t28.5 68.5t68.5 28.5t69 -28.5t29 -68.5t-29 -69t-69 -29zM874 1646q-40 0 -69 29t-29 69t29 68.5t69 28.5t68.5 -28.5
t28.5 -68.5t-28.5 -69t-68.5 -29z" />
    <glyph glyph-name="Aring" unicode="&#x212b;" horiz-adv-x="1363" 
d="M1145 0l-160 442h-606l-160 -442h-145l540 1443h136l539 -1443h-144zM675 1264l-255 -704h524l-256 704h-13zM682 1555q-77 0 -131 53t-54 130q0 78 53.5 131t131.5 53t131.5 -53t53.5 -131q0 -77 -54 -130t-131 -53zM682 1631q47 0 77.5 30.5t30.5 76.5q0 47 -30 77.5
t-78 30.5t-78 -30.5t-30 -77.5q0 -46 30.5 -76.5t77.5 -30.5z" />
    <glyph glyph-name="Aring" unicode="&#xc5;" horiz-adv-x="1363" 
d="M1145 0l-160 442h-606l-160 -442h-145l540 1443h136l539 -1443h-144zM675 1264l-255 -704h524l-256 704h-13zM682 1555q-77 0 -131 53t-54 130q0 78 53.5 131t131.5 53t131.5 -53t53.5 -131q0 -77 -54 -130t-131 -53zM682 1631q47 0 77.5 30.5t30.5 76.5q0 47 -30 77.5
t-78 30.5t-78 -30.5t-30 -77.5q0 -46 30.5 -76.5t77.5 -30.5z" />
    <glyph glyph-name="AE" unicode="&#xc6;" horiz-adv-x="1955" 
d="M841 1327l-365 -766h526v766h-161zM1002 0v443h-581l-208 -443h-139l678 1443h1063v-124h-677v-526h640v-122h-640v-547h677v-124h-813z" />
    <glyph glyph-name="Ccedilla" unicode="&#xc7;" horiz-adv-x="1455" 
d="M1338 1002h-139q-31 153 -152.5 248.5t-284.5 95.5q-227 0 -361 -169.5t-134 -455.5q0 -287 134 -455.5t362 -168.5q167 0 286.5 86t149.5 228h139q-28 -186 -168.5 -304.5t-347.5 -134.5l-58 -107q101 0 160 -42t59 -118q0 -90 -69 -137.5t-173 -47.5q-67 0 -142 20v92
q49 -17 121 -17q58 0 98 22t40 63q0 79 -155 79h-56v71l64 122q-272 18 -428 218t-156 531q0 347 171 549.5t464 202.5q147 0 271.5 -60.5t205 -168t99.5 -242.5z" />
    <glyph glyph-name="Egrave" unicode="&#xc8;" horiz-adv-x="1197" 
d="M1057 124v-124h-872v1443h872v-124h-735v-519h698v-122h-698v-554h735zM557 1576l-230 298h164l185 -298h-119z" />
    <glyph glyph-name="Eacute" unicode="&#xc9;" horiz-adv-x="1197" 
d="M1057 124v-124h-872v1443h872v-124h-735v-519h698v-122h-698v-554h735zM685 1576h-119l185 298h164z" />
    <glyph glyph-name="Ecircumflex" unicode="&#xca;" horiz-adv-x="1197" 
d="M1057 124v-124h-872v1443h872v-124h-735v-519h698v-122h-698v-554h735zM559 1874h124l289 -297h-155l-190 202h-12l-190 -202h-155z" />
    <glyph glyph-name="Edieresis" unicode="&#xcb;" horiz-adv-x="1197" 
d="M1057 124v-124h-872v1443h872v-124h-735v-519h698v-122h-698v-554h735zM429 1646q-40 0 -68.5 29t-28.5 69t28.5 68.5t68.5 28.5t69 -28.5t29 -68.5t-28.5 -69t-69.5 -29zM813 1646q-41 0 -69.5 29t-28.5 69t29 68.5t69 28.5t68.5 -28.5t28.5 -68.5t-28.5 -69t-68.5 -29z
" />
    <glyph glyph-name="Igrave" unicode="&#xcc;" horiz-adv-x="507" 
d="M322 0h-137v1443h137v-1443zM190 1576l-230 298h164l185 -298h-119z" />
    <glyph glyph-name="Iacute" unicode="&#xcd;" horiz-adv-x="507" 
d="M322 0h-137v1443h137v-1443zM318 1576h-119l185 298h164z" />
    <glyph glyph-name="Icircumflex" unicode="&#xce;" horiz-adv-x="507" 
d="M322 0h-137v1443h137v-1443zM192 1874h124l289 -297h-155l-190 202h-12l-190 -202h-155z" />
    <glyph glyph-name="Idieresis" unicode="&#xcf;" horiz-adv-x="507" 
d="M322 0h-137v1443h137v-1443zM62 1646q-40 0 -68.5 29t-28.5 69t28.5 68.5t68.5 28.5t69 -28.5t29 -68.5t-29 -69t-69 -29zM446 1646q-40 0 -69 29t-29 69t29 68.5t69 28.5t68.5 -28.5t28.5 -68.5t-28.5 -69t-68.5 -29z" />
    <glyph glyph-name="Eth" unicode="&#xd0;" horiz-adv-x="1472" 
d="M322 124h330q263 0 408 158t145 439t-145 439.5t-408 158.5h-330v-514h339v-123h-339v-558zM185 1443h475q327 0 506 -191t179 -530q0 -340 -178.5 -531t-506.5 -191h-475v682h-162v123h162v638z" />
    <glyph glyph-name="Ntilde" unicode="&#xd1;" horiz-adv-x="1494" 
d="M320 0h-135v1443h135l841 -1198h13v1198h135v-1443h-132l-844 1199h-13v-1199zM874 1594q-43 0 -76.5 16t-54.5 38t-39.5 44.5t-40.5 38.5t-48 16q-42 0 -65.5 -39.5t-23.5 -116.5h-110q0 122 53.5 191t147.5 69q43 0 77 -16.5t55.5 -39.5t40.5 -46t41.5 -39.5
t48.5 -16.5q88 0 88 160h110q0 -121 -54 -190t-150 -69z" />
    <glyph glyph-name="Ograve" unicode="&#xd2;" horiz-adv-x="1561" 
d="M781 1473q302 0 477.5 -202.5t175.5 -548.5t-175 -549t-478 -203q-304 0 -479 202.5t-175 549.5t176 549t478 202zM781 1346q-236 0 -375 -168.5t-139 -455.5q0 -286 138 -455.5t376 -169.5q236 0 374.5 169.5t138.5 455.5q0 287 -138.5 455.5t-374.5 168.5zM717 1576
l-230 298h164l185 -298h-119z" />
    <glyph glyph-name="Oacute" unicode="&#xd3;" horiz-adv-x="1561" 
d="M781 1473q302 0 477.5 -202.5t175.5 -548.5t-175 -549t-478 -203q-304 0 -479 202.5t-175 549.5t176 549t478 202zM781 1346q-236 0 -375 -168.5t-139 -455.5q0 -286 138 -455.5t376 -169.5q236 0 374.5 169.5t138.5 455.5q0 287 -138.5 455.5t-374.5 168.5zM845 1576
h-119l185 298h164z" />
    <glyph glyph-name="Ocircumflex" unicode="&#xd4;" horiz-adv-x="1561" 
d="M781 1473q302 0 477.5 -202.5t175.5 -548.5t-175 -549t-478 -203q-304 0 -479 202.5t-175 549.5t176 549t478 202zM781 1346q-236 0 -375 -168.5t-139 -455.5q0 -286 138 -455.5t376 -169.5q236 0 374.5 169.5t138.5 455.5q0 287 -138.5 455.5t-374.5 168.5zM719 1874
h124l289 -297h-155l-190 202h-12l-190 -202h-155z" />
    <glyph glyph-name="Otilde" unicode="&#xd5;" horiz-adv-x="1561" 
d="M781 1473q302 0 477.5 -202.5t175.5 -548.5t-175 -549t-478 -203q-304 0 -479 202.5t-175 549.5t176 549t478 202zM781 1346q-236 0 -375 -168.5t-139 -455.5q0 -286 138 -455.5t376 -169.5q236 0 374.5 169.5t138.5 455.5q0 287 -138.5 455.5t-374.5 168.5zM908 1594
q-43 0 -76.5 16t-54.5 38t-39.5 44.5t-40.5 38.5t-48 16q-42 0 -65.5 -39.5t-23.5 -116.5h-110q0 122 53.5 191t147.5 69q43 0 77 -16.5t55.5 -39.5t40.5 -46t41.5 -39.5t48.5 -16.5q88 0 88 160h110q0 -121 -54 -190t-150 -69z" />
    <glyph glyph-name="Odieresis" unicode="&#xd6;" horiz-adv-x="1561" 
d="M781 1473q302 0 477.5 -202.5t175.5 -548.5t-175 -549t-478 -203q-304 0 -479 202.5t-175 549.5t176 549t478 202zM781 1346q-236 0 -375 -168.5t-139 -455.5q0 -286 138 -455.5t376 -169.5q236 0 374.5 169.5t138.5 455.5q0 287 -138.5 455.5t-374.5 168.5zM589 1646
q-40 0 -68.5 29t-28.5 69t28.5 68.5t68.5 28.5t69 -28.5t29 -68.5t-28.5 -69t-69.5 -29zM973 1646q-41 0 -69.5 29t-28.5 69t29 68.5t69 28.5t68.5 -28.5t28.5 -68.5t-28.5 -69t-68.5 -29z" />
    <glyph glyph-name="multiply" unicode="&#xd7;" horiz-adv-x="1321" 
d="M661 491l-346 -345l-81 80l345 346l-345 346l81 81l345 -346l346 346l80 -80l-344 -347l344 -346l-81 -80z" />
    <glyph glyph-name="Oslash" unicode="&#xd8;" horiz-adv-x="1561" 
d="M1199 1128l-772 -895q137 -142 354 -142q239 0 379 171.5t140 459.5q0 243 -101 406zM362 316l772 895q-137 142 -353 142q-240 0 -380 -171t-140 -460q0 -243 101 -406zM1421 1385l-132 -153q145 -196 145 -510q0 -346 -175 -549t-478 -203q-268 0 -441 162l-125 -145
l-75 71l132 153q-145 197 -145 511q0 347 176 549t478 202q267 0 440 -162l125 145z" />
    <glyph glyph-name="Ugrave" unicode="&#xd9;" horiz-adv-x="1485" 
d="M320 1443v-934q0 -183 114 -296t308 -113t308 113t114 296v934h137v-943q0 -237 -151 -381.5t-408 -144.5q-256 0 -407 144.5t-151 381.5v943h136zM678 1576l-230 298h164l185 -298h-119z" />
    <glyph glyph-name="Uacute" unicode="&#xda;" horiz-adv-x="1485" 
d="M320 1443v-934q0 -183 114 -296t308 -113t308 113t114 296v934h137v-943q0 -237 -151 -381.5t-408 -144.5q-256 0 -407 144.5t-151 381.5v943h136zM806 1576h-119l185 298h164z" />
    <glyph glyph-name="Ucircumflex" unicode="&#xdb;" horiz-adv-x="1485" 
d="M320 1443v-934q0 -183 114 -296t308 -113t308 113t114 296v934h137v-943q0 -237 -151 -381.5t-408 -144.5q-256 0 -407 144.5t-151 381.5v943h136zM680 1874h124l289 -297h-155l-190 202h-12l-190 -202h-155z" />
    <glyph glyph-name="Udieresis" unicode="&#xdc;" horiz-adv-x="1485" 
d="M320 1443v-934q0 -183 114 -296t308 -113t308 113t114 296v934h137v-943q0 -237 -151 -381.5t-408 -144.5q-256 0 -407 144.5t-151 381.5v943h136zM550 1646q-40 0 -68.5 29t-28.5 69t28.5 68.5t68.5 28.5t69 -28.5t29 -68.5t-29 -69t-69 -29zM934 1646q-40 0 -69 29
t-29 69t29 68.5t69 28.5t68.5 -28.5t28.5 -68.5t-28.5 -69t-68.5 -29z" />
    <glyph glyph-name="Yacute" unicode="&#xdd;" horiz-adv-x="1321" 
d="M729 0h-136v624l-518 819h157l423 -680h12l423 680h156l-517 -819v-624zM725 1576h-119l185 298h164z" />
    <glyph glyph-name="Thorn" unicode="&#xde;" horiz-adv-x="1270" 
d="M185 1443h137v-274h386q184 0 307.5 -111t123.5 -299q0 -126 -58.5 -220.5t-156 -142.5t-217.5 -48h-385v-348h-137v1443zM322 1046v-576h352q149 0 237 75.5t88 213.5q0 137 -88 212t-237 75h-352z" />
    <glyph glyph-name="germandbls" unicode="&#xdf;" horiz-adv-x="1229" 
d="M341 0h-130v1101q0 181 109.5 286.5t292.5 105.5q177 0 289 -102.5t112 -262.5q0 -123 -67 -216.5t-169 -123.5v-13q156 -15 252 -114t96 -260q0 -179 -126.5 -298t-324.5 -119q-86 0 -155 14v119q61 -16 147 -16q148 0 238.5 84t90.5 217q0 137 -100 220t-274 83h-77
v129h70q120 0 195 77.5t75 209.5q0 111 -74 183t-196 72q-130 0 -202 -76.5t-72 -212.5v-1087z" />
    <glyph glyph-name="agrave" unicode="&#xe0;" horiz-adv-x="1125" 
d="M491 98q145 0 242.5 87.5t97.5 215.5v126l-319 -23q-271 -19 -271 -204q0 -92 70 -147t180 -55zM469 -18q-160 0 -261.5 86.5t-101.5 229.5q0 140 100 220.5t288 93.5l337 22v101q0 118 -70 180.5t-201 62.5q-111 0 -185 -44t-93 -123h-133q19 130 133 207t282 77
q189 0 294 -94.5t105 -264.5v-736h-126v185h-12q-49 -96 -143 -149.5t-213 -53.5zM504 1228l-227 332h158l188 -332h-119z" />
    <glyph glyph-name="aacute" unicode="&#xe1;" horiz-adv-x="1125" 
d="M491 98q145 0 242.5 87.5t97.5 215.5v126l-319 -23q-271 -19 -271 -204q0 -92 70 -147t180 -55zM469 -18q-160 0 -261.5 86.5t-101.5 229.5q0 140 100 220.5t288 93.5l337 22v101q0 118 -70 180.5t-201 62.5q-111 0 -185 -44t-93 -123h-133q19 130 133 207t282 77
q189 0 294 -94.5t105 -264.5v-736h-126v185h-12q-49 -96 -143 -149.5t-213 -53.5zM624 1228h-119l188 332h158z" />
    <glyph glyph-name="acircumflex" unicode="&#xe2;" horiz-adv-x="1125" 
d="M491 98q145 0 242.5 87.5t97.5 215.5v126l-319 -23q-271 -19 -271 -204q0 -92 70 -147t180 -55zM469 -18q-160 0 -261.5 86.5t-101.5 229.5q0 140 100 220.5t288 93.5l337 22v101q0 118 -70 180.5t-201 62.5q-111 0 -185 -44t-93 -123h-133q19 130 133 207t282 77
q189 0 294 -94.5t105 -264.5v-736h-126v185h-12q-49 -96 -143 -149.5t-213 -53.5zM641 1560l247 -332h-146l-172 243h-12l-172 -243h-146l247 332h154z" />
    <glyph glyph-name="atilde" unicode="&#xe3;" horiz-adv-x="1125" 
d="M491 98q145 0 242.5 87.5t97.5 215.5v126l-319 -23q-271 -19 -271 -204q0 -92 70 -147t180 -55zM469 -18q-160 0 -261.5 86.5t-101.5 229.5q0 140 100 220.5t288 93.5l337 22v101q0 118 -70 180.5t-201 62.5q-111 0 -185 -44t-93 -123h-133q19 130 133 207t282 77
q189 0 294 -94.5t105 -264.5v-736h-126v185h-12q-49 -96 -143 -149.5t-213 -53.5zM691 1248q-43 0 -76.5 16t-54.5 38t-39.5 44.5t-40.5 38.5t-48 16q-42 0 -65.5 -39t-23.5 -116h-110q0 121 53.5 190.5t147.5 69.5q43 0 77 -16.5t55.5 -39.5t40.5 -46t41.5 -39.5
t48.5 -16.5q88 0 88 160h110q0 -122 -54 -191t-150 -69z" />
    <glyph glyph-name="adieresis" unicode="&#xe4;" horiz-adv-x="1125" 
d="M491 98q145 0 242.5 87.5t97.5 215.5v126l-319 -23q-271 -19 -271 -204q0 -92 70 -147t180 -55zM469 -18q-160 0 -261.5 86.5t-101.5 229.5q0 140 100 220.5t288 93.5l337 22v101q0 118 -70 180.5t-201 62.5q-111 0 -185 -44t-93 -123h-133q19 130 133 207t282 77
q189 0 294 -94.5t105 -264.5v-736h-126v185h-12q-49 -96 -143 -149.5t-213 -53.5zM372 1301q-40 0 -68.5 28.5t-28.5 68.5t28.5 68.5t68.5 28.5q41 0 69.5 -28.5t28.5 -68.5t-28.5 -68.5t-69.5 -28.5zM756 1301q-41 0 -69.5 28.5t-28.5 68.5t28.5 68.5t69.5 28.5
q40 0 68.5 -28.5t28.5 -68.5t-28.5 -68.5t-68.5 -28.5z" />
    <glyph glyph-name="aring" unicode="&#xe5;" horiz-adv-x="1125" 
d="M491 98q145 0 242.5 87.5t97.5 215.5v126l-319 -23q-271 -19 -271 -204q0 -92 70 -147t180 -55zM469 -18q-160 0 -261.5 86.5t-101.5 229.5q0 140 100 220.5t288 93.5l337 22v101q0 118 -70 180.5t-201 62.5q-111 0 -185 -44t-93 -123h-133q19 130 133 207t282 77
q189 0 294 -94.5t105 -264.5v-736h-126v185h-12q-49 -96 -143 -149.5t-213 -53.5zM564 1228q-89 0 -151 61t-62 150q0 88 62.5 149t150.5 61q89 0 151 -61t62 -149q0 -89 -62 -150t-151 -61zM564 1313q53 0 89 36.5t36 89.5t-36 89t-89 36t-89 -36t-36 -89t36 -89.5
t89 -36.5z" />
    <glyph glyph-name="ae" unicode="&#xe6;" horiz-adv-x="1880" 
d="M1314 -18q-140 0 -249.5 71.5t-154.5 191.5h-12q-48 -123 -158 -193t-260 -70q-167 0 -270.5 85.5t-103.5 227.5q0 139 99.5 218t287.5 91l338 21v113q0 116 -68.5 178t-199.5 62q-111 0 -186.5 -44.5t-94.5 -122.5h-133q19 128 133.5 206t284.5 78q135 0 228 -60.5
t123 -164.5h13q46 99 148.5 162t231.5 63q212 0 333.5 -139.5t121.5 -382.5v-58h-804v-15q5 -182 101 -291.5t253 -109.5q226 0 300 167h133q-40 -134 -155 -209t-280 -75zM1305 979q-148 0 -240.5 -97t-102.5 -260h667q-2 158 -92 257.5t-232 99.5zM497 98q142 0 238 90
t96 219v111l-321 -21q-269 -19 -269 -199q0 -91 71 -145.5t185 -54.5z" />
    <glyph glyph-name="ccedilla" unicode="&#xe7;" horiz-adv-x="1145" 
d="M1042 760h-133q-26 96 -107.5 156.5t-201.5 60.5q-161 0 -255.5 -118t-94.5 -317q0 -202 95 -321.5t255 -119.5q120 0 201.5 55t106.5 154h133q-23 -133 -121 -220.5t-252 -103.5l-65 -121q101 0 160 -42t59 -118q0 -90 -69 -137.5t-173 -47.5q-67 0 -142 20v92
q49 -17 121 -17q58 0 98 22t40 63q0 79 -155 79h-56v71l70 134q-204 16 -322.5 165.5t-118.5 392.5q0 253 131.5 403t353.5 150q180 0 298.5 -94.5t143.5 -240.5z" />
    <glyph glyph-name="egrave" unicode="&#xe8;" horiz-adv-x="1174" 
d="M595 979q-147 0 -241 -100.5t-103 -266.5h671q-2 167 -91.5 267t-235.5 100zM909 266h133q-38 -131 -157 -207.5t-288 -76.5q-222 0 -352 150.5t-130 405.5q0 254 130.5 405.5t350.5 151.5q215 0 339 -143t124 -390v-58h-809v-6q5 -183 99.5 -291t250.5 -108
q114 0 194 43.5t115 123.5zM535 1228l-227 332h158l188 -332h-119z" />
    <glyph glyph-name="eacute" unicode="&#xe9;" horiz-adv-x="1174" 
d="M595 979q-147 0 -241 -100.5t-103 -266.5h671q-2 167 -91.5 267t-235.5 100zM909 266h133q-38 -131 -157 -207.5t-288 -76.5q-222 0 -352 150.5t-130 405.5q0 254 130.5 405.5t350.5 151.5q215 0 339 -143t124 -390v-58h-809v-6q5 -183 99.5 -291t250.5 -108
q114 0 194 43.5t115 123.5zM655 1228h-119l188 332h158z" />
    <glyph glyph-name="ecircumflex" unicode="&#xea;" horiz-adv-x="1174" 
d="M595 979q-147 0 -241 -100.5t-103 -266.5h671q-2 167 -91.5 267t-235.5 100zM909 266h133q-38 -131 -157 -207.5t-288 -76.5q-222 0 -352 150.5t-130 405.5q0 254 130.5 405.5t350.5 151.5q215 0 339 -143t124 -390v-58h-809v-6q5 -183 99.5 -291t250.5 -108
q114 0 194 43.5t115 123.5zM672 1560l247 -332h-146l-172 243h-12l-172 -243h-146l247 332h154z" />
    <glyph glyph-name="edieresis" unicode="&#xeb;" horiz-adv-x="1174" 
d="M595 979q-147 0 -241 -100.5t-103 -266.5h671q-2 167 -91.5 267t-235.5 100zM909 266h133q-38 -131 -157 -207.5t-288 -76.5q-222 0 -352 150.5t-130 405.5q0 254 130.5 405.5t350.5 151.5q215 0 339 -143t124 -390v-58h-809v-6q5 -183 99.5 -291t250.5 -108
q114 0 194 43.5t115 123.5zM403 1301q-40 0 -68.5 28.5t-28.5 68.5t28.5 68.5t68.5 28.5q41 0 69.5 -28.5t28.5 -68.5t-28.5 -68.5t-69.5 -28.5zM787 1301q-41 0 -69.5 28.5t-28.5 68.5t28.5 68.5t69.5 28.5q40 0 68.5 -28.5t28.5 -68.5t-28.5 -68.5t-68.5 -28.5z" />
    <glyph glyph-name="igrave" unicode="&#xec;" horiz-adv-x="480" 
d="M175 0v1077h131v-1077h-131zM180 1228l-227 332h158l188 -332h-119z" />
    <glyph glyph-name="iacute" unicode="&#xed;" horiz-adv-x="480" 
d="M175 0v1077h131v-1077h-131zM300 1228h-119l188 332h158z" />
    <glyph glyph-name="icircumflex" unicode="&#xee;" horiz-adv-x="480" 
d="M175 0v1077h131v-1077h-131zM317 1560l247 -332h-146l-172 243h-12l-172 -243h-146l247 332h154z" />
    <glyph glyph-name="idieresis" unicode="&#xef;" horiz-adv-x="480" 
d="M175 0v1077h131v-1077h-131zM48 1301q-40 0 -68.5 28.5t-28.5 68.5t28.5 68.5t68.5 28.5q41 0 69.5 -28.5t28.5 -68.5t-28.5 -68.5t-69.5 -28.5zM432 1301q-41 0 -69.5 28.5t-28.5 68.5t28.5 68.5t69.5 28.5q40 0 68.5 -28.5t28.5 -68.5t-28.5 -68.5t-68.5 -28.5z" />
    <glyph glyph-name="eth" unicode="&#xf0;" horiz-adv-x="1194" 
d="M599 98q157 0 253.5 114t96.5 297q0 188 -96.5 304t-253.5 116q-156 0 -252.5 -115t-96.5 -302q0 -186 95 -300t254 -114zM867 1438l-190 -104q397 -280 397 -786q0 -254 -127.5 -410t-347.5 -156q-222 0 -352.5 144.5t-130.5 385.5q0 237 127 384t328 147
q104 0 194.5 -53t137.5 -142h12q-79 255 -341 429l-290 -160v103l200 110q-93 51 -204 94v100q176 -57 311 -135l275 152z" />
    <glyph glyph-name="ntilde" unicode="&#xf1;" horiz-adv-x="1192" 
d="M169 0v1077h125v-194h13q43 101 132 156.5t216 55.5q180 0 278.5 -103.5t98.5 -291.5v-700h-131v667q0 310 -281 310q-143 0 -231.5 -92.5t-88.5 -244.5v-640h-131zM728 1248q-43 0 -76.5 16t-54.5 38t-39.5 44.5t-40.5 38.5t-48 16q-42 0 -65.5 -39t-23.5 -116h-110
q0 121 53.5 190.5t147.5 69.5q43 0 77 -16.5t55.5 -39.5t40.5 -46t41.5 -39.5t48.5 -16.5q88 0 88 160h110q0 -122 -54 -191t-150 -69z" />
    <glyph glyph-name="ograve" unicode="&#xf2;" horiz-adv-x="1208" 
d="M604 -18q-226 0 -357.5 149.5t-131.5 407.5t131.5 407t357.5 149t358 -149t132 -407t-132 -407.5t-358 -149.5zM604 101q166 0 260 116.5t94 321.5t-94 321.5t-260 116.5t-260 -116.5t-94 -321.5t94 -321.5t260 -116.5zM544 1228l-227 332h158l188 -332h-119z" />
    <glyph glyph-name="oacute" unicode="&#xf3;" horiz-adv-x="1208" 
d="M604 -18q-226 0 -357.5 149.5t-131.5 407.5t131.5 407t357.5 149t358 -149t132 -407t-132 -407.5t-358 -149.5zM604 101q166 0 260 116.5t94 321.5t-94 321.5t-260 116.5t-260 -116.5t-94 -321.5t94 -321.5t260 -116.5zM664 1228h-119l188 332h158z" />
    <glyph glyph-name="ocircumflex" unicode="&#xf4;" horiz-adv-x="1208" 
d="M604 -18q-226 0 -357.5 149.5t-131.5 407.5t131.5 407t357.5 149t358 -149t132 -407t-132 -407.5t-358 -149.5zM604 101q166 0 260 116.5t94 321.5t-94 321.5t-260 116.5t-260 -116.5t-94 -321.5t94 -321.5t260 -116.5zM681 1560l247 -332h-146l-172 243h-12l-172 -243
h-146l247 332h154z" />
    <glyph glyph-name="otilde" unicode="&#xf5;" horiz-adv-x="1208" 
d="M604 -18q-226 0 -357.5 149.5t-131.5 407.5t131.5 407t357.5 149t358 -149t132 -407t-132 -407.5t-358 -149.5zM604 101q166 0 260 116.5t94 321.5t-94 321.5t-260 116.5t-260 -116.5t-94 -321.5t94 -321.5t260 -116.5zM731 1248q-43 0 -76.5 16t-54.5 38t-39.5 44.5
t-40.5 38.5t-48 16q-42 0 -65.5 -39t-23.5 -116h-110q0 121 53.5 190.5t147.5 69.5q43 0 77 -16.5t55.5 -39.5t40.5 -46t41.5 -39.5t48.5 -16.5q88 0 88 160h110q0 -122 -54 -191t-150 -69z" />
    <glyph glyph-name="odieresis" unicode="&#xf6;" horiz-adv-x="1208" 
d="M604 -18q-226 0 -357.5 149.5t-131.5 407.5t131.5 407t357.5 149t358 -149t132 -407t-132 -407.5t-358 -149.5zM604 101q166 0 260 116.5t94 321.5t-94 321.5t-260 116.5t-260 -116.5t-94 -321.5t94 -321.5t260 -116.5zM412 1301q-40 0 -68.5 28.5t-28.5 68.5t28.5 68.5
t68.5 28.5q41 0 69.5 -28.5t28.5 -68.5t-28.5 -68.5t-69.5 -28.5zM796 1301q-41 0 -69.5 28.5t-28.5 68.5t28.5 68.5t69.5 28.5q40 0 68.5 -28.5t28.5 -68.5t-28.5 -68.5t-68.5 -28.5z" />
    <glyph glyph-name="divide" unicode="&#xf7;" horiz-adv-x="1321" 
d="M661 865q-43 0 -72.5 28.5t-29.5 72.5q0 43 29.5 72t72.5 29t72 -29t29 -72q0 -44 -29 -72.5t-72 -28.5zM661 77q-43 0 -72.5 28.5t-29.5 72.5q0 43 29.5 72t72.5 29t72 -29t29 -72q0 -44 -29 -72.5t-72 -28.5zM1131 513h-941v117h941v-117z" />
    <glyph glyph-name="oslash" unicode="&#xf8;" horiz-adv-x="1208" 
d="M906 809l-540 -624q92 -89 238 -89q169 0 265 118t96 325q0 160 -59 270zM303 268l540 625q-92 89 -239 89q-169 0 -264.5 -117.5t-95.5 -325.5q0 -161 59 -271zM1092 1025l-101 -116q103 -145 103 -370q0 -257 -132 -407t-358 -150q-191 0 -318 110l-96 -111l-73 71
l101 117q-103 143 -103 370q0 258 131.5 407t357.5 149q193 0 318 -110l95 110z" />
    <glyph glyph-name="ugrave" unicode="&#xf9;" horiz-adv-x="1193" 
d="M1024 1077v-1077h-125v194h-12q-41 -101 -132 -156.5t-219 -55.5q-179 0 -277.5 104.5t-98.5 290.5v700h131v-667q0 -151 70.5 -229.5t208.5 -78.5q150 0 236.5 90.5t86.5 244.5v640h131zM532 1228l-227 332h158l188 -332h-119z" />
    <glyph glyph-name="uacute" unicode="&#xfa;" horiz-adv-x="1193" 
d="M1024 1077v-1077h-125v194h-12q-41 -101 -132 -156.5t-219 -55.5q-179 0 -277.5 104.5t-98.5 290.5v700h131v-667q0 -151 70.5 -229.5t208.5 -78.5q150 0 236.5 90.5t86.5 244.5v640h131zM652 1228h-119l188 332h158z" />
    <glyph glyph-name="ucircumflex" unicode="&#xfb;" horiz-adv-x="1193" 
d="M1024 1077v-1077h-125v194h-12q-41 -101 -132 -156.5t-219 -55.5q-179 0 -277.5 104.5t-98.5 290.5v700h131v-667q0 -151 70.5 -229.5t208.5 -78.5q150 0 236.5 90.5t86.5 244.5v640h131zM669 1560l247 -332h-146l-172 243h-12l-172 -243h-146l247 332h154z" />
    <glyph glyph-name="udieresis" unicode="&#xfc;" horiz-adv-x="1193" 
d="M1024 1077v-1077h-125v194h-12q-41 -101 -132 -156.5t-219 -55.5q-179 0 -277.5 104.5t-98.5 290.5v700h131v-667q0 -151 70.5 -229.5t208.5 -78.5q150 0 236.5 90.5t86.5 244.5v640h131zM400 1301q-40 0 -68.5 28.5t-28.5 68.5t28.5 68.5t68.5 28.5q41 0 69.5 -28.5
t28.5 -68.5t-28.5 -68.5t-69.5 -28.5zM784 1301q-41 0 -69.5 28.5t-28.5 68.5t28.5 68.5t69.5 28.5q40 0 68.5 -28.5t28.5 -68.5t-28.5 -68.5t-68.5 -28.5z" />
    <glyph glyph-name="yacute" unicode="&#xfd;" horiz-adv-x="1079" 
d="M245 -381q-27 0 -61 4v114q20 -4 59 -4q74 0 120 43t86 150l22 67l-404 1084h142l326 -934h12l325 934h140l-419 -1129q-72 -194 -144 -261.5t-204 -67.5zM596 1228h-119l188 332h158z" />
    <glyph glyph-name="thorn" unicode="&#xfe;" horiz-adv-x="1252" 
d="M685 1095q205 0 329 -152.5t124 -403.5t-124.5 -404t-328.5 -153q-125 0 -221.5 59.5t-141.5 163.5h-12v-576h-131v1867h125v-639h12q50 111 148 174.5t221 63.5zM656 101q160 0 253.5 118t93.5 319q0 202 -93.5 320.5t-252.5 118.5q-158 0 -254.5 -120t-96.5 -318
t96 -318t254 -120z" />
    <glyph glyph-name="ydieresis" unicode="&#xff;" horiz-adv-x="1079" 
d="M245 -381q-27 0 -61 4v114q20 -4 59 -4q74 0 120 43t86 150l22 67l-404 1084h142l326 -934h12l325 934h140l-419 -1129q-72 -194 -144 -261.5t-204 -67.5zM344 1301q-40 0 -68.5 28.5t-28.5 68.5t28.5 68.5t68.5 28.5q41 0 69.5 -28.5t28.5 -68.5t-28.5 -68.5
t-69.5 -28.5zM728 1301q-41 0 -69.5 28.5t-28.5 68.5t28.5 68.5t69.5 28.5q40 0 68.5 -28.5t28.5 -68.5t-28.5 -68.5t-68.5 -28.5z" />
    <glyph glyph-name="Amacron" unicode="&#x100;" horiz-adv-x="1363" 
d="M1145 0l-160 442h-606l-160 -442h-145l540 1443h136l539 -1443h-144zM675 1264l-255 -704h524l-256 704h-13zM994 1796v-106h-624v106h624z" />
    <glyph glyph-name="amacron" unicode="&#x101;" horiz-adv-x="1125" 
d="M491 98q145 0 242.5 87.5t97.5 215.5v126l-319 -23q-271 -19 -271 -204q0 -92 70 -147t180 -55zM469 -18q-160 0 -261.5 86.5t-101.5 229.5q0 140 100 220.5t288 93.5l337 22v101q0 118 -70 180.5t-201 62.5q-111 0 -185 -44t-93 -123h-133q19 130 133 207t282 77
q189 0 294 -94.5t105 -264.5v-736h-126v185h-12q-49 -96 -143 -149.5t-213 -53.5zM876 1450v-105h-624v105h624z" />
    <glyph glyph-name="Abreve" unicode="&#x102;" horiz-adv-x="1363" 
d="M1145 0l-160 442h-606l-160 -442h-145l540 1443h136l539 -1443h-144zM675 1264l-255 -704h524l-256 704h-13zM359 1860h118q0 -82 54.5 -129t150.5 -47t150.5 47t54.5 129h118q0 -127 -86 -200.5t-237 -73.5t-237 73.5t-86 200.5z" />
    <glyph glyph-name="abreve" unicode="&#x103;" horiz-adv-x="1125" 
d="M491 98q145 0 242.5 87.5t97.5 215.5v126l-319 -23q-271 -19 -271 -204q0 -92 70 -147t180 -55zM469 -18q-160 0 -261.5 86.5t-101.5 229.5q0 140 100 220.5t288 93.5l337 22v101q0 118 -70 180.5t-201 62.5q-111 0 -185 -44t-93 -123h-133q19 130 133 207t282 77
q189 0 294 -94.5t105 -264.5v-736h-126v185h-12q-49 -96 -143 -149.5t-213 -53.5zM244 1546h119q0 -96 51 -151t150 -55t150 55t51 151h119q0 -140 -84 -223t-236 -83t-236 83t-84 223z" />
    <glyph glyph-name="Aogonek" unicode="&#x104;" horiz-adv-x="1363" 
d="M420 560h524l-256 704h-13zM750 1443l539 -1443q-180 -107 -180 -208q0 -49 30.5 -74t81.5 -25q35 0 74 13v-105q-55 -19 -108 -19q-86 0 -146.5 45.5t-60.5 132.5q0 129 163 245l-158 437h-606l-160 -442h-145l540 1443h136z" />
    <glyph glyph-name="aogonek" unicode="&#x105;" horiz-adv-x="1125" 
d="M831 401v126l-319 -23q-271 -19 -271 -204q0 -92 70 -147t180 -55q145 0 242.5 87.5t97.5 215.5zM963 736v-736q-180 -107 -180 -208q0 -49 30 -74t81 -25q36 0 75 13v-105q-55 -19 -108 -19q-86 0 -146.5 45.5t-60.5 132.5q0 136 183 259v166h-12q-49 -96 -143 -149.5
t-213 -53.5q-160 0 -261.5 86.5t-101.5 229.5q0 140 100 220.5t288 93.5l337 22v101q0 118 -70 180.5t-201 62.5q-111 0 -185 -44t-93 -123h-133q19 130 133 207t282 77q189 0 294 -94.5t105 -264.5z" />
    <glyph glyph-name="Cacute" unicode="&#x106;" horiz-adv-x="1455" 
d="M763 -30q-294 0 -465 202t-171 549t171 549.5t464 202.5q147 0 271.5 -60.5t205 -168t99.5 -242.5h-139q-31 153 -152.5 248.5t-284.5 95.5q-227 0 -361 -169.5t-134 -455.5q0 -287 134 -455.5t362 -168.5q167 0 286.5 86t149.5 228h139q-31 -199 -188.5 -320
t-386.5 -121zM826 1576h-119l185 298h164z" />
    <glyph glyph-name="cacute" unicode="&#x107;" horiz-adv-x="1145" 
d="M1042 760h-133q-26 96 -107.5 156.5t-201.5 60.5q-161 0 -255.5 -118t-94.5 -317q0 -202 95 -321.5t255 -119.5q120 0 201.5 55t106.5 154h133q-25 -148 -142 -238t-298 -90q-223 0 -354.5 151.5t-131.5 408.5q0 253 131.5 403t353.5 150q180 0 298.5 -94.5t143.5 -240.5
zM658 1228h-119l188 332h158z" />
    <glyph glyph-name="Ccircumflex" unicode="&#x108;" horiz-adv-x="1455" 
d="M763 -30q-294 0 -465 202t-171 549t171 549.5t464 202.5q147 0 271.5 -60.5t205 -168t99.5 -242.5h-139q-31 153 -152.5 248.5t-284.5 95.5q-227 0 -361 -169.5t-134 -455.5q0 -287 134 -455.5t362 -168.5q167 0 286.5 86t149.5 228h139q-31 -199 -188.5 -320
t-386.5 -121zM700 1874h124l289 -297h-155l-190 202h-12l-190 -202h-155z" />
    <glyph glyph-name="ccircumflex" unicode="&#x109;" horiz-adv-x="1145" 
d="M1042 760h-133q-26 96 -107.5 156.5t-201.5 60.5q-161 0 -255.5 -118t-94.5 -317q0 -202 95 -321.5t255 -119.5q120 0 201.5 55t106.5 154h133q-25 -148 -142 -238t-298 -90q-223 0 -354.5 151.5t-131.5 408.5q0 253 131.5 403t353.5 150q180 0 298.5 -94.5t143.5 -240.5
zM675 1560l247 -332h-146l-172 243h-12l-172 -243h-146l247 332h154z" />
    <glyph glyph-name="Cdotaccent" unicode="&#x10a;" horiz-adv-x="1455" 
d="M763 -30q-294 0 -465 202t-171 549t171 549.5t464 202.5q147 0 271.5 -60.5t205 -168t99.5 -242.5h-139q-31 153 -152.5 248.5t-284.5 95.5q-227 0 -361 -169.5t-134 -455.5q0 -287 134 -455.5t362 -168.5q167 0 286.5 86t149.5 228h139q-31 -199 -188.5 -320
t-386.5 -121zM762 1646q-40 0 -68.5 28.5t-28.5 69.5q0 40 28.5 68.5t68.5 28.5t68.5 -28.5t28.5 -68.5q0 -41 -28.5 -69.5t-68.5 -28.5z" />
    <glyph glyph-name="cdotaccent" unicode="&#x10b;" horiz-adv-x="1145" 
d="M1042 760h-133q-26 96 -107.5 156.5t-201.5 60.5q-161 0 -255.5 -118t-94.5 -317q0 -202 95 -321.5t255 -119.5q120 0 201.5 55t106.5 154h133q-25 -148 -142 -238t-298 -90q-223 0 -354.5 151.5t-131.5 408.5q0 253 131.5 403t353.5 150q180 0 298.5 -94.5t143.5 -240.5
zM598 1301q-40 0 -68.5 28.5t-28.5 68.5t28.5 68.5t68.5 28.5t68.5 -28.5t28.5 -68.5t-28.5 -68.5t-68.5 -28.5z" />
    <glyph glyph-name="Ccaron" unicode="&#x10c;" horiz-adv-x="1455" 
d="M763 -30q-294 0 -465 202t-171 549t171 549.5t464 202.5q147 0 271.5 -60.5t205 -168t99.5 -242.5h-139q-31 153 -152.5 248.5t-284.5 95.5q-227 0 -361 -169.5t-134 -455.5q0 -287 134 -455.5t362 -168.5q167 0 286.5 86t149.5 228h139q-31 -199 -188.5 -320
t-386.5 -121zM824 1577h-124l-289 297h155l190 -202h12l190 202h155z" />
    <glyph glyph-name="ccaron" unicode="&#x10d;" horiz-adv-x="1145" 
d="M1042 760h-133q-26 96 -107.5 156.5t-201.5 60.5q-161 0 -255.5 -118t-94.5 -317q0 -202 95 -321.5t255 -119.5q120 0 201.5 55t106.5 154h133q-25 -148 -142 -238t-298 -90q-223 0 -354.5 151.5t-131.5 408.5q0 253 131.5 403t353.5 150q180 0 298.5 -94.5t143.5 -240.5
zM521 1228l-247 332h146l172 -243h12l172 243h146l-247 -332h-154z" />
    <glyph glyph-name="Dcaron" unicode="&#x10e;" horiz-adv-x="1472" 
d="M185 1443h475q327 0 506 -191t179 -530q0 -340 -178.5 -531t-506.5 -191h-475v1443zM322 1319v-1195h330q263 0 408 158t145 439t-145 439.5t-408 158.5h-330zM667 1577h-124l-289 297h155l190 -202h12l190 202h155z" />
    <glyph glyph-name="dcaron" unicode="&#x10f;" horiz-adv-x="1377" 
d="M1223 1560h137l-49 -453h-92zM571 -18q-206 0 -331 152.5t-125 403.5q0 250 125.5 403.5t330.5 153.5q123 0 220 -61t143 -167h12v639h131v-1506h-126v215h-12q-48 -108 -146.5 -170.5t-221.5 -62.5zM599 977q-160 0 -254.5 -119t-94.5 -319q0 -201 94.5 -319.5
t254.5 -118.5q159 0 254 119t95 319q0 198 -95.5 318t-253.5 120z" />
    <glyph glyph-name="Dcroat" unicode="&#x110;" horiz-adv-x="1472" 
d="M322 124h330q263 0 408 158t145 439t-145 439.5t-408 158.5h-330v-514h339v-123h-339v-558zM185 1443h475q327 0 506 -191t179 -530q0 -340 -178.5 -531t-506.5 -191h-475v682h-162v123h162v638z" />
    <glyph glyph-name="dcroat" unicode="&#x111;" horiz-adv-x="1256" 
d="M599 101q159 0 254 119t95 319q0 198 -95.5 318t-253.5 120q-160 0 -254.5 -119t-94.5 -319q0 -201 94.5 -319.5t254.5 -118.5zM1241 1390v-111h-164v-1279h-126v215h-12q-48 -108 -146.5 -170.5t-221.5 -62.5q-206 0 -331 152.5t-125 403.5q0 250 125.5 403.5
t330.5 153.5q123 0 220 -61t143 -167h12v412h-273v111h273v116h131v-116h164z" />
    <glyph glyph-name="Emacron" unicode="&#x112;" horiz-adv-x="1197" 
d="M1057 124v-124h-872v1443h872v-124h-735v-519h698v-122h-698v-554h735zM933 1796v-106h-624v106h624z" />
    <glyph glyph-name="emacron" unicode="&#x113;" horiz-adv-x="1174" 
d="M595 979q-147 0 -241 -100.5t-103 -266.5h671q-2 167 -91.5 267t-235.5 100zM909 266h133q-38 -131 -157 -207.5t-288 -76.5q-222 0 -352 150.5t-130 405.5q0 254 130.5 405.5t350.5 151.5q215 0 339 -143t124 -390v-58h-809v-6q5 -183 99.5 -291t250.5 -108
q114 0 194 43.5t115 123.5zM907 1450v-105h-624v105h624z" />
    <glyph glyph-name="Ebreve" unicode="&#x114;" horiz-adv-x="1197" 
d="M1057 124v-124h-872v1443h872v-124h-735v-519h698v-122h-698v-554h735zM298 1860h118q0 -82 54.5 -129t150.5 -47t150.5 47t54.5 129h118q0 -127 -86 -200.5t-237 -73.5t-237 73.5t-86 200.5z" />
    <glyph glyph-name="ebreve" unicode="&#x115;" horiz-adv-x="1174" 
d="M595 979q-147 0 -241 -100.5t-103 -266.5h671q-2 167 -91.5 267t-235.5 100zM909 266h133q-38 -131 -157 -207.5t-288 -76.5q-222 0 -352 150.5t-130 405.5q0 254 130.5 405.5t350.5 151.5q215 0 339 -143t124 -390v-58h-809v-6q5 -183 99.5 -291t250.5 -108
q114 0 194 43.5t115 123.5zM275 1546h119q0 -96 51 -151t150 -55t150 55t51 151h119q0 -140 -84 -223t-236 -83t-236 83t-84 223z" />
    <glyph glyph-name="Edotaccent" unicode="&#x116;" horiz-adv-x="1197" 
d="M1057 124v-124h-872v1443h872v-124h-735v-519h698v-122h-698v-554h735zM621 1646q-40 0 -68.5 28.5t-28.5 69.5q0 40 28.5 68.5t68.5 28.5t68.5 -28.5t28.5 -68.5q0 -41 -28.5 -69.5t-68.5 -28.5z" />
    <glyph glyph-name="edotaccent" unicode="&#x117;" horiz-adv-x="1174" 
d="M595 979q-147 0 -241 -100.5t-103 -266.5h671q-2 167 -91.5 267t-235.5 100zM909 266h133q-38 -131 -157 -207.5t-288 -76.5q-222 0 -352 150.5t-130 405.5q0 254 130.5 405.5t350.5 151.5q215 0 339 -143t124 -390v-58h-809v-6q5 -183 99.5 -291t250.5 -108
q114 0 194 43.5t115 123.5zM595 1301q-41 0 -69 28.5t-28 68.5t28 68.5t69 28.5t69 -28.5t28 -68.5t-28 -68.5t-69 -28.5z" />
    <glyph glyph-name="Eogonek" unicode="&#x118;" horiz-adv-x="1197" 
d="M1057 124v-124q-180 -107 -180 -208q0 -49 30.5 -74t81.5 -25q35 0 74 13v-105q-55 -19 -108 -19q-86 0 -146.5 45.5t-60.5 132.5q0 125 156 240h-719v1443h872v-124h-735v-519h698v-122h-698v-554h735z" />
    <glyph glyph-name="eogonek" unicode="&#x119;" horiz-adv-x="1174" 
d="M251 612h671q-2 167 -91.5 267t-235.5 100q-147 0 -241 -100.5t-103 -266.5zM1059 504h-809v-6q5 -183 99.5 -291t250.5 -108q114 0 194 43.5t115 123.5h133q-32 -107 -115 -176q-114 -111 -147 -151q-69 -85 -69 -150q0 -39 25.5 -68t82.5 -29q35 0 79 14v-105
q-55 -19 -108 -19q-86 0 -147 45t-61 130q0 109 135 236q-58 -11 -120 -11q-222 0 -352 150.5t-130 405.5q0 254 130.5 405.5t350.5 151.5q215 0 339 -143t124 -390v-58z" />
    <glyph glyph-name="Ecaron" unicode="&#x11a;" horiz-adv-x="1197" 
d="M1057 124v-124h-872v1443h872v-124h-735v-519h698v-122h-698v-554h735zM683 1577h-124l-289 297h155l190 -202h12l190 202h155z" />
    <glyph glyph-name="ecaron" unicode="&#x11b;" horiz-adv-x="1174" 
d="M595 979q-147 0 -241 -100.5t-103 -266.5h671q-2 167 -91.5 267t-235.5 100zM909 266h133q-38 -131 -157 -207.5t-288 -76.5q-222 0 -352 150.5t-130 405.5q0 254 130.5 405.5t350.5 151.5q215 0 339 -143t124 -390v-58h-809v-6q5 -183 99.5 -291t250.5 -108
q114 0 194 43.5t115 123.5zM518 1228l-247 332h146l172 -243h12l172 243h146l-247 -332h-154z" />
    <glyph glyph-name="Gcircumflex" unicode="&#x11c;" horiz-adv-x="1506" 
d="M1375 559q0 -268 -164 -428.5t-438 -160.5q-293 0 -469.5 205.5t-176.5 546.5q0 339 176 545t467 206q231 0 391.5 -123t199.5 -329h-139q-45 155 -163 240t-289 85q-229 0 -366 -170t-137 -454q0 -285 137.5 -455t368.5 -170q212 0 339 123.5t127 327.5v50h-440v121h576
v-160zM708 1874h124l289 -297h-155l-190 202h-12l-190 -202h-155z" />
    <glyph glyph-name="gcircumflex" unicode="&#x11d;" horiz-adv-x="1242" 
d="M595 128q161 0 255.5 115t94.5 307q0 193 -95.5 310t-254.5 117q-160 0 -252.5 -115.5t-92.5 -309.5q0 -193 92.5 -308.5t252.5 -115.5zM606 -404q-184 0 -301 75.5t-138 202.5h139q18 -75 98 -119t202 -44q156 0 246.5 76t90.5 207v242h-13q-48 -107 -142.5 -166
t-218.5 -59q-207 0 -330.5 148.5t-123.5 392.5t124 393.5t330 149.5q123 0 223 -63t144 -168h12v213h126v-1093q0 -176 -128 -282t-340 -106zM695 1560l247 -332h-146l-172 243h-12l-172 -243h-146l247 332h154z" />
    <glyph glyph-name="Gbreve" unicode="&#x11e;" horiz-adv-x="1506" 
d="M1375 559q0 -268 -164 -428.5t-438 -160.5q-293 0 -469.5 205.5t-176.5 546.5q0 339 176 545t467 206q231 0 391.5 -123t199.5 -329h-139q-45 155 -163 240t-289 85q-229 0 -366 -170t-137 -454q0 -285 137.5 -455t368.5 -170q212 0 339 123.5t127 327.5v50h-440v121h576
v-160zM447 1860h118q0 -82 54.5 -129t150.5 -47t150.5 47t54.5 129h118q0 -127 -86 -200.5t-237 -73.5t-237 73.5t-86 200.5z" />
    <glyph glyph-name="gbreve" unicode="&#x11f;" horiz-adv-x="1242" 
d="M595 128q161 0 255.5 115t94.5 307q0 193 -95.5 310t-254.5 117q-160 0 -252.5 -115.5t-92.5 -309.5q0 -193 92.5 -308.5t252.5 -115.5zM606 -404q-184 0 -301 75.5t-138 202.5h139q18 -75 98 -119t202 -44q156 0 246.5 76t90.5 207v242h-13q-48 -107 -142.5 -166
t-218.5 -59q-207 0 -330.5 148.5t-123.5 392.5t124 393.5t330 149.5q123 0 223 -63t144 -168h12v213h126v-1093q0 -176 -128 -282t-340 -106zM298 1546h119q0 -96 51 -151t150 -55t150 55t51 151h119q0 -140 -84 -223t-236 -83t-236 83t-84 223z" />
    <glyph glyph-name="Gdotaccent" unicode="&#x120;" horiz-adv-x="1506" 
d="M1375 559q0 -268 -164 -428.5t-438 -160.5q-293 0 -469.5 205.5t-176.5 546.5q0 339 176 545t467 206q231 0 391.5 -123t199.5 -329h-139q-45 155 -163 240t-289 85q-229 0 -366 -170t-137 -454q0 -285 137.5 -455t368.5 -170q212 0 339 123.5t127 327.5v50h-440v121h576
v-160zM770 1646q-40 0 -68.5 28.5t-28.5 69.5q0 40 28.5 68.5t68.5 28.5t68.5 -28.5t28.5 -68.5q0 -41 -28.5 -69.5t-68.5 -28.5z" />
    <glyph glyph-name="gdotaccent" unicode="&#x121;" horiz-adv-x="1242" 
d="M595 128q161 0 255.5 115t94.5 307q0 193 -95.5 310t-254.5 117q-160 0 -252.5 -115.5t-92.5 -309.5q0 -193 92.5 -308.5t252.5 -115.5zM606 -404q-184 0 -301 75.5t-138 202.5h139q18 -75 98 -119t202 -44q156 0 246.5 76t90.5 207v242h-13q-48 -107 -142.5 -166
t-218.5 -59q-207 0 -330.5 148.5t-123.5 392.5t124 393.5t330 149.5q123 0 223 -63t144 -168h12v213h126v-1093q0 -176 -128 -282t-340 -106zM618 1301q-40 0 -68.5 28.5t-28.5 68.5t28.5 68.5t68.5 28.5t68.5 -28.5t28.5 -68.5t-28.5 -68.5t-68.5 -28.5z" />
    <glyph glyph-name="Gcommaaccent" unicode="&#x122;" horiz-adv-x="1506" 
d="M1375 559q0 -268 -164 -428.5t-438 -160.5q-293 0 -469.5 205.5t-176.5 546.5q0 339 176 545t467 206q231 0 391.5 -123t199.5 -329h-139q-45 155 -163 240t-289 85q-229 0 -366 -170t-137 -454q0 -285 137.5 -455t368.5 -170q212 0 339 123.5t127 327.5v50h-440v121h576
v-160zM714 -489h-100l88 364h142z" />
    <glyph glyph-name="gcommaaccent" unicode="&#x123;" horiz-adv-x="1242" 
d="M677 1592h100l-88 -364h-141zM595 128q161 0 255.5 115t94.5 307q0 193 -95.5 310t-254.5 117q-160 0 -252.5 -115.5t-92.5 -309.5q0 -193 92.5 -308.5t252.5 -115.5zM606 -404q-184 0 -301 75.5t-138 202.5h139q18 -75 98 -119t202 -44q156 0 246.5 76t90.5 207v242h-13
q-48 -107 -142.5 -166t-218.5 -59q-207 0 -330.5 148.5t-123.5 392.5t124 393.5t330 149.5q123 0 223 -63t144 -168h12v213h126v-1093q0 -176 -128 -282t-340 -106z" />
    <glyph glyph-name="Hcircumflex" unicode="&#x124;" horiz-adv-x="1488" 
d="M1303 0h-137v677h-844v-677h-137v1443h137v-642h844v642h137v-1443zM682 1874h124l289 -297h-155l-190 202h-12l-190 -202h-155z" />
    <glyph glyph-name="hcircumflex" unicode="&#x125;" horiz-adv-x="1210" 
d="M179 0v1506h131v-623h12q44 101 135 156.5t219 55.5q174 0 274 -104.5t100 -290.5v-700h-131v667q0 152 -71.5 231t-206.5 79q-151 0 -241 -93.5t-90 -243.5v-640h-131zM182 1937h124l289 -297h-155l-190 202h-12l-190 -202h-155z" />
    <glyph glyph-name="Hbar" unicode="&#x126;" horiz-adv-x="1488" 
d="M1166 801v283h-844v-283h844zM1442 1208v-124h-139v-1084h-137v677h-844v-677h-137v1084h-139v124h139v235h137v-235h844v235h137v-235h139z" />
    <glyph glyph-name="hbar" unicode="&#x127;" horiz-adv-x="1210" 
d="M310 883h12q44 101 135 156.5t219 55.5q174 0 274 -104.5t100 -290.5v-700h-131v667q0 152 -71.5 231t-206.5 79q-151 0 -241 -93.5t-90 -243.5v-640h-131v1277h-151v111h151v118h131v-118h284v-111h-284v-394z" />
    <glyph glyph-name="Itilde" unicode="&#x128;" horiz-adv-x="507" 
d="M322 0h-137v1443h137v-1443zM381 1594q-43 0 -76.5 16t-54.5 38t-39.5 44.5t-40.5 38.5t-48 16q-42 0 -65.5 -39.5t-23.5 -116.5h-110q0 122 53.5 191t147.5 69q43 0 77 -16.5t55.5 -39.5t40.5 -46t41.5 -39.5t48.5 -16.5q88 0 88 160h110q0 -121 -54 -190t-150 -69z" />
    <glyph glyph-name="itilde" unicode="&#x129;" horiz-adv-x="480" 
d="M175 0v1077h131v-1077h-131zM367 1248q-43 0 -76.5 16t-54.5 38t-39.5 44.5t-40.5 38.5t-48 16q-42 0 -65.5 -39t-23.5 -116h-110q0 121 53.5 190.5t147.5 69.5q43 0 77 -16.5t55.5 -39.5t40.5 -46t41.5 -39.5t48.5 -16.5q88 0 88 160h110q0 -122 -54 -191t-150 -69z" />
    <glyph glyph-name="Imacron" unicode="&#x12a;" horiz-adv-x="507" 
d="M322 0h-137v1443h137v-1443zM566 1796v-106h-624v106h624z" />
    <glyph glyph-name="imacron" unicode="&#x12b;" horiz-adv-x="480" 
d="M175 0v1077h131v-1077h-131zM505 1450v-105h-530v105h530z" />
    <glyph glyph-name="Ibreve" unicode="&#x12c;" horiz-adv-x="507" 
d="M322 0h-137v1443h137v-1443zM-69 1860h118q0 -82 54.5 -129t150.5 -47t150.5 47t54.5 129h118q0 -127 -86 -200.5t-237 -73.5t-237 73.5t-86 200.5z" />
    <glyph glyph-name="ibreve" unicode="&#x12d;" horiz-adv-x="480" 
d="M175 0v1077h131v-1077h-131zM-80 1546h119q0 -96 51 -151t150 -55t150 55t51 151h119q0 -140 -84 -223t-236 -83t-236 83t-84 223z" />
    <glyph glyph-name="Iogonek" unicode="&#x12e;" horiz-adv-x="507" 
d="M322 1443v-1443q-180 -107 -180 -208q0 -49 30.5 -74t81.5 -25q35 0 74 13v-105q-55 -19 -108 -19q-86 0 -146.5 45.5t-60.5 132.5q0 132 172 251v1432h137z" />
    <glyph glyph-name="iogonek" unicode="&#x12f;" horiz-adv-x="480" 
d="M240 1301q-40 0 -68.5 28.5t-28.5 68.5t28.5 68.5t68.5 28.5t68.5 -28.5t28.5 -68.5t-28.5 -68.5t-68.5 -28.5zM306 1077v-1077q-180 -107 -180 -208q0 -49 30.5 -74t81.5 -25q35 0 74 13v-105q-55 -19 -108 -19q-86 0 -146.5 45.5t-60.5 132.5q0 134 178 255v1062h131z
" />
    <glyph glyph-name="Idotaccent" unicode="&#x130;" horiz-adv-x="507" 
d="M322 0h-137v1443h137v-1443zM254 1646q-40 0 -68.5 28.5t-28.5 69.5q0 40 28.5 68.5t68.5 28.5t68.5 -28.5t28.5 -68.5q0 -41 -28.5 -69.5t-68.5 -28.5z" />
    <glyph glyph-name="dotlessi" unicode="&#x131;" horiz-adv-x="480" 
d="M175 0v1077h131v-1077h-131z" />
    <glyph glyph-name="IJ" unicode="&#x132;" horiz-adv-x="1595" 
d="M322 0h-137v1443h137v-1443zM599 330h136q5 -103 78 -168t186 -65q131 0 202.5 78.5t71.5 222.5v1045h137v-1050q0 -197 -110 -310t-300 -113q-175 0 -287.5 100.5t-113.5 259.5z" />
    <glyph glyph-name="ij" unicode="&#x133;" horiz-adv-x="961" 
d="M175 0v1077h131v-1077h-131zM240 1301q-40 0 -68.5 28.5t-28.5 68.5t28.5 68.5t68.5 28.5t68.5 -28.5t28.5 -68.5t-28.5 -68.5t-68.5 -28.5zM786 1077v-1145q0 -156 -74.5 -227.5t-228.5 -71.5h-24v113h21q94 0 134.5 42.5t40.5 139.5v1149h131zM722 1301
q-40 0 -68.5 28.5t-28.5 68.5t28.5 68.5t68.5 28.5t68.5 -28.5t28.5 -68.5t-28.5 -68.5t-68.5 -28.5z" />
    <glyph glyph-name="Jcircumflex" unicode="&#x134;" horiz-adv-x="1088" 
d="M92 330h136q5 -103 78 -168t186 -65q131 0 202.5 78.5t71.5 222.5v1045h137v-1050q0 -197 -110 -310t-300 -113q-175 0 -287.5 100.5t-113.5 259.5zM773 1874h124l289 -297h-155l-190 202h-12l-190 -202h-155z" />
    <glyph glyph-name="jcircumflex" unicode="&#x135;" horiz-adv-x="480" 
d="M306 1077v-1145q0 -156 -74.5 -227.5t-228.5 -71.5h-24v113h21q94 0 134.5 42.5t40.5 139.5v1149h131zM319 1560l247 -332h-146l-172 243h-12l-172 -243h-146l247 332h154z" />
    <glyph glyph-name="Kcommaaccent" unicode="&#x136;" horiz-adv-x="1311" 
d="M322 0h-137v1443h137v-746h12l683 746h171l-578 -623l637 -820h-177l-555 725l-193 -210v-515zM578 -489h-100l88 364h142z" />
    <glyph glyph-name="kcommaaccent" unicode="&#x137;" horiz-adv-x="1092" 
d="M322 573l526 504h164l-481 -462l503 -615h-168l-434 531l-122 -113v-418h-131v1506h131v-933h12zM523 -489h-100l88 364h142z" />
    <glyph glyph-name="Lacute" unicode="&#x139;" horiz-adv-x="1139" 
d="M1044 124v-124h-859v1443h137v-1319h722zM318 1576h-119l185 298h164z" />
    <glyph glyph-name="lacute" unicode="&#x13a;" horiz-adv-x="489" 
d="M179 0v1506h131v-1506h-131zM308 1639h-119l185 298h164z" />
    <glyph glyph-name="Lcommaaccent" unicode="&#x13b;" horiz-adv-x="1139" 
d="M1044 124v-124h-859v1443h137v-1319h722zM556 -489h-100l88 364h142z" />
    <glyph glyph-name="lcommaaccent" unicode="&#x13c;" horiz-adv-x="489" 
d="M179 0v1506h131v-1506h-131zM185 -489h-100l88 364h142z" />
    <glyph glyph-name="Lcaron" unicode="&#x13d;" horiz-adv-x="1139" 
d="M1044 124v-124h-859v1443h137v-1319h722zM591 1560h133l-41 -492h-92v492z" />
    <glyph glyph-name="lcaron" unicode="&#x13e;" horiz-adv-x="610" 
d="M179 0v1506h131v-1506h-131zM457 1560h136l-48 -453h-92z" />
    <glyph glyph-name="Lslash" unicode="&#x141;" horiz-adv-x="1139" 
d="M322 124h722v-124h-859v724l-168 -83v110l168 83v609h137v-541l312 154v-111l-312 -154v-667z" />
    <glyph glyph-name="lslash" unicode="&#x142;" horiz-adv-x="489" 
d="M447 982v-113l-137 -72v-797h-131v727l-137 -72v113l137 72v666h131v-596z" />
    <glyph glyph-name="Nacute" unicode="&#x143;" horiz-adv-x="1494" 
d="M320 0h-135v1443h135l841 -1198h13v1198h135v-1443h-132l-844 1199h-13v-1199zM811 1576h-119l185 298h164z" />
    <glyph glyph-name="nacute" unicode="&#x144;" horiz-adv-x="1192" 
d="M169 0v1077h125v-194h13q43 101 132 156.5t216 55.5q180 0 278.5 -103.5t98.5 -291.5v-700h-131v667q0 310 -281 310q-143 0 -231.5 -92.5t-88.5 -244.5v-640h-131zM661 1228h-119l188 332h158z" />
    <glyph glyph-name="Ncommaaccent" unicode="&#x145;" horiz-adv-x="1494" 
d="M320 0h-135v1443h135l841 -1198h13v1198h135v-1443h-132l-844 1199h-13v-1199zM688 -489h-100l88 364h142z" />
    <glyph glyph-name="ncommaaccent" unicode="&#x146;" horiz-adv-x="1192" 
d="M169 0v1077h125v-194h13q43 101 132 156.5t216 55.5q180 0 278.5 -103.5t98.5 -291.5v-700h-131v667q0 310 -281 310q-143 0 -231.5 -92.5t-88.5 -244.5v-640h-131zM542 -489h-100l88 364h142z" />
    <glyph glyph-name="Ncaron" unicode="&#x147;" horiz-adv-x="1494" 
d="M320 0h-135v1443h135l841 -1198h13v1198h135v-1443h-132l-844 1199h-13v-1199zM809 1577h-124l-289 297h155l190 -202h12l190 202h155z" />
    <glyph glyph-name="ncaron" unicode="&#x148;" horiz-adv-x="1192" 
d="M169 0v1077h125v-194h13q43 101 132 156.5t216 55.5q180 0 278.5 -103.5t98.5 -291.5v-700h-131v667q0 310 -281 310q-143 0 -231.5 -92.5t-88.5 -244.5v-640h-131zM524 1228l-247 332h146l172 -243h12l172 243h146l-247 -332h-154z" />
    <glyph glyph-name="eng" unicode="&#x14b;" horiz-adv-x="1192" 
d="M169 0v1077h125v-194h13q43 101 132 156.5t216 55.5q180 0 278.5 -103.5t98.5 -291.5v-809q0 -258 -251 -258q-71 0 -121 26v107q36 -17 85 -17q75 0 115.5 34.5t40.5 123.5v760q0 310 -281 310q-143 0 -231.5 -92.5t-88.5 -244.5v-640h-131z" />
    <glyph glyph-name="Omacron" unicode="&#x14c;" horiz-adv-x="1561" 
d="M781 1473q302 0 477.5 -202.5t175.5 -548.5t-175 -549t-478 -203q-304 0 -479 202.5t-175 549.5t176 549t478 202zM781 1346q-236 0 -375 -168.5t-139 -455.5q0 -286 138 -455.5t376 -169.5q236 0 374.5 169.5t138.5 455.5q0 287 -138.5 455.5t-374.5 168.5zM1093 1796
v-106h-624v106h624z" />
    <glyph glyph-name="omacron" unicode="&#x14d;" horiz-adv-x="1208" 
d="M604 -18q-226 0 -357.5 149.5t-131.5 407.5t131.5 407t357.5 149t358 -149t132 -407t-132 -407.5t-358 -149.5zM604 101q166 0 260 116.5t94 321.5t-94 321.5t-260 116.5t-260 -116.5t-94 -321.5t94 -321.5t260 -116.5zM916 1450v-105h-624v105h624z" />
    <glyph glyph-name="Obreve" unicode="&#x14e;" horiz-adv-x="1561" 
d="M781 1473q302 0 477.5 -202.5t175.5 -548.5t-175 -549t-478 -203q-304 0 -479 202.5t-175 549.5t176 549t478 202zM781 1346q-236 0 -375 -168.5t-139 -455.5q0 -286 138 -455.5t376 -169.5q236 0 374.5 169.5t138.5 455.5q0 287 -138.5 455.5t-374.5 168.5zM458 1860
h118q0 -82 54.5 -129t150.5 -47t150.5 47t54.5 129h118q0 -127 -86 -200.5t-237 -73.5t-237 73.5t-86 200.5z" />
    <glyph glyph-name="obreve" unicode="&#x14f;" horiz-adv-x="1208" 
d="M604 -18q-226 0 -357.5 149.5t-131.5 407.5t131.5 407t357.5 149t358 -149t132 -407t-132 -407.5t-358 -149.5zM604 101q166 0 260 116.5t94 321.5t-94 321.5t-260 116.5t-260 -116.5t-94 -321.5t94 -321.5t260 -116.5zM284 1546h119q0 -96 51 -151t150 -55t150 55
t51 151h119q0 -140 -84 -223t-236 -83t-236 83t-84 223z" />
    <glyph glyph-name="Ohungarumlaut" unicode="&#x150;" horiz-adv-x="1561" 
d="M781 1473q302 0 477.5 -202.5t175.5 -548.5t-175 -549t-478 -203q-304 0 -479 202.5t-175 549.5t176 549t478 202zM781 1346q-236 0 -375 -168.5t-139 -455.5q0 -286 138 -455.5t376 -169.5q236 0 374.5 169.5t138.5 455.5q0 287 -138.5 455.5t-374.5 168.5zM563 1577
l145 297h147l-181 -297h-111zM869 1577l173 297h157l-219 -297h-111z" />
    <glyph glyph-name="ohungarumlaut" unicode="&#x151;" horiz-adv-x="1208" 
d="M604 -18q-226 0 -357.5 149.5t-131.5 407.5t131.5 407t357.5 149t358 -149t132 -407t-132 -407.5t-358 -149.5zM604 101q166 0 260 116.5t94 321.5t-94 321.5t-260 116.5t-260 -116.5t-94 -321.5t94 -321.5t260 -116.5zM397 1228l135 332h153l-183 -332h-105zM687 1228
l181 332h157l-227 -332h-111z" />
    <glyph glyph-name="OE" unicode="&#x152;" horiz-adv-x="2321" 
d="M788 1346q-240 0 -380.5 -168t-140.5 -456q0 -289 140 -457t381 -168q234 0 370 168t136 457t-136 456.5t-370 167.5zM1309 0v302h-12q-66 -153 -207 -242.5t-316 -89.5q-299 0 -473 202.5t-174 549.5q0 345 174.5 548t472.5 203q173 0 315 -88t208 -237h12v295h872v-124
h-748v-519h711v-122h-711v-554h748v-124h-872z" />
    <glyph glyph-name="oe" unicode="&#x153;" horiz-adv-x="2018" 
d="M1442 -18q-148 0 -261.5 78t-148.5 203h-12q-35 -126 -150 -203.5t-266 -77.5q-226 0 -357.5 150t-131.5 407t131.5 407t357.5 150q148 0 260 -77t156 -208h13q44 131 153.5 207.5t252.5 76.5q214 0 339 -143.5t125 -389.5v-57h-808v-6q4 -182 99 -291t250 -109
q114 0 194.5 43.5t114.5 123.5h133q-40 -132 -158 -208t-286 -76zM1766 613q-2 164 -92.5 265t-235.5 101q-146 0 -239.5 -100t-103.5 -266h671zM250 539q0 -205 94 -321.5t260 -116.5t260 116t94 320q0 206 -94.5 323t-259.5 117q-166 0 -260 -116.5t-94 -321.5z" />
    <glyph glyph-name="Racute" unicode="&#x154;" horiz-adv-x="1309" 
d="M322 1321v-608h369q157 0 244.5 80t87.5 224q0 142 -90 223t-248 81h-363zM322 591v-591h-137v1443h517q211 0 336 -114.5t125 -307.5q0 -153 -82 -261.5t-227 -146.5l350 -613h-160l-332 591h-21h-369zM655 1576h-119l185 298h164z" />
    <glyph glyph-name="racute" unicode="&#x155;" horiz-adv-x="764" 
d="M169 0v1077h125v-177h13q27 88 110 141.5t190 53.5q64 0 101 -9v-131q-45 13 -117 13q-125 0 -208 -84.5t-83 -211.5v-672h-131zM434 1228h-119l188 332h158z" />
    <glyph glyph-name="Rcommaaccent" unicode="&#x156;" horiz-adv-x="1309" 
d="M322 1321v-608h369q157 0 244.5 80t87.5 224q0 142 -90 223t-248 81h-363zM322 591v-591h-137v1443h517q211 0 336 -114.5t125 -307.5q0 -153 -82 -261.5t-227 -146.5l350 -613h-160l-332 591h-21h-369zM541 -489h-100l88 364h142z" />
    <glyph glyph-name="rcommaaccent" unicode="&#x157;" horiz-adv-x="764" 
d="M169 0v1077h125v-177h13q27 88 110 141.5t190 53.5q64 0 101 -9v-131q-45 13 -117 13q-125 0 -208 -84.5t-83 -211.5v-672h-131zM175 -489h-100l88 364h142z" />
    <glyph glyph-name="Rcaron" unicode="&#x158;" horiz-adv-x="1309" 
d="M322 1321v-608h369q157 0 244.5 80t87.5 224q0 142 -90 223t-248 81h-363zM322 591v-591h-137v1443h517q211 0 336 -114.5t125 -307.5q0 -153 -82 -261.5t-227 -146.5l350 -613h-160l-332 591h-21h-369zM653 1577h-124l-289 297h155l190 -202h12l190 202h155z" />
    <glyph glyph-name="rcaron" unicode="&#x159;" horiz-adv-x="764" 
d="M169 0v1077h125v-177h13q27 88 110 141.5t190 53.5q64 0 101 -9v-131q-45 13 -117 13q-125 0 -208 -84.5t-83 -211.5v-672h-131zM297 1228l-247 332h146l172 -243h12l172 243h146l-247 -332h-154z" />
    <glyph glyph-name="Sacute" unicode="&#x15a;" horiz-adv-x="1284" 
d="M115 375h138q14 -124 126.5 -202t277.5 -78q161 0 266 80t105 201q0 102 -77.5 170t-244.5 109l-165 42q-203 50 -294 139.5t-91 236.5q0 176 137.5 288t356.5 112q206 0 345 -108.5t150 -274.5h-138q-17 116 -114.5 187t-246.5 71q-155 0 -252.5 -76.5t-97.5 -194.5
q0 -94 72 -153.5t237 -100.5l143 -36q223 -55 321.5 -148.5t98.5 -247.5q0 -189 -143.5 -305t-379.5 -116q-224 0 -370.5 112t-159.5 293zM714 1576h-119l185 298h164z" />
    <glyph glyph-name="sacute" unicode="&#x15b;" horiz-adv-x="1058" 
d="M144 792q0 129 112.5 216t276.5 87q163 0 270 -75.5t125 -203.5h-129q-18 76 -89.5 121.5t-177.5 45.5q-107 0 -181.5 -53t-74.5 -133q0 -66 52 -107t162 -67l148 -35q159 -38 234 -106.5t75 -183.5q0 -138 -119 -227t-297 -89q-176 0 -290 77.5t-130 210.5h136
q22 -82 97 -129t191 -47q119 0 198 55t79 139q0 70 -51 113.5t-160 69.5l-163 39q-152 37 -223 103.5t-71 178.5zM590 1228h-119l188 332h158z" />
    <glyph glyph-name="Scircumflex" unicode="&#x15c;" horiz-adv-x="1284" 
d="M115 375h138q14 -124 126.5 -202t277.5 -78q161 0 266 80t105 201q0 102 -77.5 170t-244.5 109l-165 42q-203 50 -294 139.5t-91 236.5q0 176 137.5 288t356.5 112q206 0 345 -108.5t150 -274.5h-138q-17 116 -114.5 187t-246.5 71q-155 0 -252.5 -76.5t-97.5 -194.5
q0 -94 72 -153.5t237 -100.5l143 -36q223 -55 321.5 -148.5t98.5 -247.5q0 -189 -143.5 -305t-379.5 -116q-224 0 -370.5 112t-159.5 293zM588 1874h124l289 -297h-155l-190 202h-12l-190 -202h-155z" />
    <glyph glyph-name="scircumflex" unicode="&#x15d;" horiz-adv-x="1058" 
d="M144 792q0 129 112.5 216t276.5 87q163 0 270 -75.5t125 -203.5h-129q-18 76 -89.5 121.5t-177.5 45.5q-107 0 -181.5 -53t-74.5 -133q0 -66 52 -107t162 -67l148 -35q159 -38 234 -106.5t75 -183.5q0 -138 -119 -227t-297 -89q-176 0 -290 77.5t-130 210.5h136
q22 -82 97 -129t191 -47q119 0 198 55t79 139q0 70 -51 113.5t-160 69.5l-163 39q-152 37 -223 103.5t-71 178.5zM607 1560l247 -332h-146l-172 243h-12l-172 -243h-146l247 332h154z" />
    <glyph glyph-name="Scedilla" unicode="&#x15e;" horiz-adv-x="1284" 
d="M605 823l143 -36q223 -55 321.5 -148.5t98.5 -247.5q0 -177 -125.5 -290.5t-337.5 -128.5l-58 -107q101 0 160 -42t59 -118q0 -90 -69 -137.5t-173 -47.5q-67 0 -142 20v92q49 -17 121 -17q58 0 98 22t40 63q0 79 -155 79h-56v71l64 122q-204 13 -335.5 123t-143.5 280
h138q14 -124 126.5 -202t277.5 -78q161 0 266 80t105 201q0 102 -77.5 170t-244.5 109l-165 42q-203 50 -294 139.5t-91 236.5q0 176 137.5 288t356.5 112q206 0 345 -108.5t150 -274.5h-138q-17 116 -114.5 187t-246.5 71q-155 0 -252.5 -76.5t-97.5 -194.5
q0 -94 72 -153.5t237 -100.5z" />
    <glyph glyph-name="scedilla" unicode="&#x15f;" horiz-adv-x="1058" 
d="M490 623l148 -35q159 -38 234 -106.5t75 -183.5q0 -124 -97.5 -209.5t-251.5 -102.5l-65 -121q101 0 160 -42t59 -118q0 -90 -69 -137.5t-173 -47.5q-67 0 -142 20v92q49 -17 121 -17q58 0 98 22t40 63q0 79 -155 79h-56v71l70 133q-159 11 -259 87.5t-116 199.5h136
q22 -82 97 -129t191 -47q119 0 198 55t79 139q0 70 -51 113.5t-160 69.5l-163 39q-152 37 -223 103.5t-71 178.5q0 129 112.5 216t276.5 87q163 0 270 -75.5t125 -203.5h-129q-18 76 -89.5 121.5t-177.5 45.5q-107 0 -181.5 -53t-74.5 -133q0 -66 52 -107t162 -67z" />
    <glyph glyph-name="Scaron" unicode="&#x160;" horiz-adv-x="1284" 
d="M115 375h138q14 -124 126.5 -202t277.5 -78q161 0 266 80t105 201q0 102 -77.5 170t-244.5 109l-165 42q-203 50 -294 139.5t-91 236.5q0 176 137.5 288t356.5 112q206 0 345 -108.5t150 -274.5h-138q-17 116 -114.5 187t-246.5 71q-155 0 -252.5 -76.5t-97.5 -194.5
q0 -94 72 -153.5t237 -100.5l143 -36q223 -55 321.5 -148.5t98.5 -247.5q0 -189 -143.5 -305t-379.5 -116q-224 0 -370.5 112t-159.5 293zM712 1577h-124l-289 297h155l190 -202h12l190 202h155z" />
    <glyph glyph-name="scaron" unicode="&#x161;" horiz-adv-x="1058" 
d="M144 792q0 129 112.5 216t276.5 87q163 0 270 -75.5t125 -203.5h-129q-18 76 -89.5 121.5t-177.5 45.5q-107 0 -181.5 -53t-74.5 -133q0 -66 52 -107t162 -67l148 -35q159 -38 234 -106.5t75 -183.5q0 -138 -119 -227t-297 -89q-176 0 -290 77.5t-130 210.5h136
q22 -82 97 -129t191 -47q119 0 198 55t79 139q0 70 -51 113.5t-160 69.5l-163 39q-152 37 -223 103.5t-71 178.5zM453 1228l-247 332h146l172 -243h12l172 243h146l-247 -332h-154z" />
    <glyph glyph-name="Tcedilla" unicode="&#x162;" horiz-adv-x="1280" 
d="M708 20v-20l-72 -135q101 0 160 -42t59 -118q0 -90 -69 -137.5t-173 -47.5q-67 0 -142 20v92q46 -17 120 -17q58 0 98 22t40 63q0 79 -154 79h-57v71l79 150h-25v1319h-484v124h1104v-124h-484v-1299z" />
    <glyph glyph-name="tcedilla" unicode="&#x163;" horiz-adv-x="724" 
d="M480 -5l-70 -130q101 0 160 -42t59 -118q0 -90 -69 -137.5t-173 -47.5q-67 0 -142 20v92q49 -17 121 -17q58 0 98 22t40 63q0 79 -155 79h-56v71l86 164q-74 25 -108 86.5t-34 167.5v698h-176v111h176v280h131v-280h249v-111h-249v-668q0 -99 40 -143.5t131 -44.5
q45 0 78 3v-112q-40 -7 -92 -7q-30 0 -45 1z" />
    <glyph glyph-name="Tcaron" unicode="&#x164;" horiz-adv-x="1280" 
d="M708 0h-136v1319h-484v124h1104v-124h-484v-1319zM702 1577h-124l-289 297h155l190 -202h12l190 202h155z" />
    <glyph glyph-name="tcaron" unicode="&#x165;" horiz-adv-x="724" 
d="M237 1357h131v-280h249v-111h-249v-668q0 -99 40 -143.5t131 -44.5q45 0 78 3v-112q-40 -7 -92 -7q-155 0 -221.5 63.5t-66.5 210.5v698h-176v111h176v280zM508 1670h137l-48 -452h-92z" />
    <glyph glyph-name="Tbar" unicode="&#x166;" horiz-adv-x="1280" 
d="M1192 1319h-484v-535h346v-124h-346v-660h-136v660h-346v124h346v535h-484v124h1104v-124z" />
    <glyph glyph-name="tbar" unicode="&#x167;" horiz-adv-x="724" 
d="M617 966h-249v-312h244v-111h-244v-245q0 -99 40 -143.5t131 -44.5q45 0 78 3v-112q-40 -7 -92 -7q-155 0 -221.5 63.5t-66.5 210.5v275h-181v111h181v312h-176v111h176v280h131v-280h249v-111z" />
    <glyph glyph-name="Utilde" unicode="&#x168;" horiz-adv-x="1485" 
d="M320 1443v-934q0 -183 114 -296t308 -113t308 113t114 296v934h137v-943q0 -237 -151 -381.5t-408 -144.5q-256 0 -407 144.5t-151 381.5v943h136zM869 1594q-43 0 -76.5 16t-54.5 38t-39.5 44.5t-40.5 38.5t-48 16q-42 0 -65.5 -39.5t-23.5 -116.5h-110q0 122 53.5 191
t147.5 69q43 0 77 -16.5t55.5 -39.5t40.5 -46t41.5 -39.5t48.5 -16.5q88 0 88 160h110q0 -121 -54 -190t-150 -69z" />
    <glyph glyph-name="utilde" unicode="&#x169;" horiz-adv-x="1193" 
d="M1024 1077v-1077h-125v194h-12q-41 -101 -132 -156.5t-219 -55.5q-179 0 -277.5 104.5t-98.5 290.5v700h131v-667q0 -151 70.5 -229.5t208.5 -78.5q150 0 236.5 90.5t86.5 244.5v640h131zM719 1248q-43 0 -76.5 16t-54.5 38t-39.5 44.5t-40.5 38.5t-48 16
q-42 0 -65.5 -39t-23.5 -116h-110q0 121 53.5 190.5t147.5 69.5q43 0 77 -16.5t55.5 -39.5t40.5 -46t41.5 -39.5t48.5 -16.5q88 0 88 160h110q0 -122 -54 -191t-150 -69z" />
    <glyph glyph-name="Umacron" unicode="&#x16a;" horiz-adv-x="1485" 
d="M320 1443v-934q0 -183 114 -296t308 -113t308 113t114 296v934h137v-943q0 -237 -151 -381.5t-408 -144.5q-256 0 -407 144.5t-151 381.5v943h136zM1054 1796v-106h-624v106h624z" />
    <glyph glyph-name="umacron" unicode="&#x16b;" horiz-adv-x="1193" 
d="M1024 1077v-1077h-125v194h-12q-41 -101 -132 -156.5t-219 -55.5q-179 0 -277.5 104.5t-98.5 290.5v700h131v-667q0 -151 70.5 -229.5t208.5 -78.5q150 0 236.5 90.5t86.5 244.5v640h131zM904 1450v-105h-624v105h624z" />
    <glyph glyph-name="Ubreve" unicode="&#x16c;" horiz-adv-x="1485" 
d="M320 1443v-934q0 -183 114 -296t308 -113t308 113t114 296v934h137v-943q0 -237 -151 -381.5t-408 -144.5q-256 0 -407 144.5t-151 381.5v943h136zM419 1860h118q0 -82 54.5 -129t150.5 -47t150.5 47t54.5 129h118q0 -127 -86 -200.5t-237 -73.5t-237 73.5t-86 200.5z
" />
    <glyph glyph-name="ubreve" unicode="&#x16d;" horiz-adv-x="1193" 
d="M1024 1077v-1077h-125v194h-12q-41 -101 -132 -156.5t-219 -55.5q-179 0 -277.5 104.5t-98.5 290.5v700h131v-667q0 -151 70.5 -229.5t208.5 -78.5q150 0 236.5 90.5t86.5 244.5v640h131zM272 1546h119q0 -96 51 -151t150 -55t150 55t51 151h119q0 -140 -84 -223
t-236 -83t-236 83t-84 223z" />
    <glyph glyph-name="Uring" unicode="&#x16e;" horiz-adv-x="1485" 
d="M320 1443v-934q0 -183 114 -296t308 -113t308 113t114 296v934h137v-943q0 -237 -151 -381.5t-408 -144.5q-256 0 -407 144.5t-151 381.5v943h136zM742 1555q-77 0 -131 53t-54 130q0 78 53.5 131t131.5 53t131.5 -53t53.5 -131q0 -77 -54 -130t-131 -53zM742 1631
q47 0 77.5 30.5t30.5 76.5q0 47 -30 77.5t-78 30.5t-78 -30.5t-30 -77.5q0 -46 30.5 -76.5t77.5 -30.5z" />
    <glyph glyph-name="uring" unicode="&#x16f;" horiz-adv-x="1193" 
d="M1024 1077v-1077h-125v194h-12q-41 -101 -132 -156.5t-219 -55.5q-179 0 -277.5 104.5t-98.5 290.5v700h131v-667q0 -151 70.5 -229.5t208.5 -78.5q150 0 236.5 90.5t86.5 244.5v640h131zM592 1228q-89 0 -151 61t-62 150q0 88 62.5 149t150.5 61q89 0 151 -61t62 -149
q0 -89 -62 -150t-151 -61zM592 1313q53 0 89 36.5t36 89.5t-36 89t-89 36t-89 -36t-36 -89t36 -89.5t89 -36.5z" />
    <glyph glyph-name="Uhungarumlaut" unicode="&#x170;" horiz-adv-x="1485" 
d="M320 1443v-934q0 -183 114 -296t308 -113t308 113t114 296v934h137v-943q0 -237 -151 -381.5t-408 -144.5q-256 0 -407 144.5t-151 381.5v943h136zM524 1577l145 297h147l-181 -297h-111zM830 1577l173 297h157l-219 -297h-111z" />
    <glyph glyph-name="uhungarumlaut" unicode="&#x171;" horiz-adv-x="1193" 
d="M1024 1077v-1077h-125v194h-12q-41 -101 -132 -156.5t-219 -55.5q-179 0 -277.5 104.5t-98.5 290.5v700h131v-667q0 -151 70.5 -229.5t208.5 -78.5q150 0 236.5 90.5t86.5 244.5v640h131zM385 1228l135 332h153l-183 -332h-105zM675 1228l181 332h157l-227 -332h-111z
" />
    <glyph glyph-name="Uogonek" unicode="&#x172;" horiz-adv-x="1485" 
d="M1164 1443h137v-943q0 -242 -157 -387q-11 -10 -49.5 -47.5t-51 -50.5t-42.5 -44t-41.5 -48t-27.5 -43t-22 -47.5t-6 -43.5q0 -40 25 -68.5t82 -28.5q37 0 79 14v-105q-55 -19 -108 -19q-86 0 -146.5 45t-60.5 130q0 107 134 236q-75 -19 -167 -19q-256 0 -407 144.5
t-151 381.5v943h136v-934q0 -183 114 -296t308 -113t308 113t114 296v934z" />
    <glyph glyph-name="uogonek" unicode="&#x173;" horiz-adv-x="1193" 
d="M1024 1077v-1077q-180 -107 -180 -208q0 -49 30.5 -74t81.5 -25q35 0 74 13v-105q-55 -19 -107 -19q-86 0 -147 45.5t-61 132.5q0 137 184 259v175h-12q-41 -101 -132 -156.5t-219 -55.5q-179 0 -277.5 104.5t-98.5 290.5v700h131v-667q0 -151 70.5 -229.5t208.5 -78.5
q150 0 236.5 90.5t86.5 244.5v640h131z" />
    <glyph glyph-name="Wcircumflex" unicode="&#x174;" horiz-adv-x="1956" 
d="M973 1205l-354 -1205h-127l-397 1443h142l317 -1230h9l347 1230h136l347 -1230h9l317 1230h142l-397 -1443h-127l-354 1205h-10zM916 1874h124l289 -297h-155l-190 202h-12l-190 -202h-155z" />
    <glyph glyph-name="wcircumflex" unicode="&#x175;" horiz-adv-x="1566" 
d="M1499 1077l-307 -1077h-139l-265 894h-13l-265 -894h-138l-305 1077h133l239 -914h12l266 914h131l266 -914h12l241 914h132zM859 1560l247 -332h-146l-172 243h-12l-172 -243h-146l247 332h154z" />
    <glyph glyph-name="Ycircumflex" unicode="&#x176;" horiz-adv-x="1321" 
d="M729 0h-136v624l-518 819h157l423 -680h12l423 680h156l-517 -819v-624zM599 1874h124l289 -297h-155l-190 202h-12l-190 -202h-155z" />
    <glyph glyph-name="ycircumflex" unicode="&#x177;" horiz-adv-x="1079" 
d="M245 -381q-27 0 -61 4v114q20 -4 59 -4q74 0 120 43t86 150l22 67l-404 1084h142l326 -934h12l325 934h140l-419 -1129q-72 -194 -144 -261.5t-204 -67.5zM613 1560l247 -332h-146l-172 243h-12l-172 -243h-146l247 332h154z" />
    <glyph glyph-name="Ydieresis" unicode="&#x178;" horiz-adv-x="1321" 
d="M729 0h-136v624l-518 819h157l423 -680h12l423 680h156l-517 -819v-624zM469 1646q-40 0 -68.5 29t-28.5 69t28.5 68.5t68.5 28.5t69 -28.5t29 -68.5t-28.5 -69t-69.5 -29zM853 1646q-41 0 -69.5 29t-28.5 69t29 68.5t69 28.5t68.5 -28.5t28.5 -68.5t-28.5 -69t-68.5 -29
z" />
    <glyph glyph-name="Zacute" unicode="&#x179;" horiz-adv-x="1328" 
d="M138 0v99l863 1208v12h-834v124h1011v-100l-860 -1207v-12h872v-124h-1052zM728 1576h-119l185 298h164z" />
    <glyph glyph-name="zacute" unicode="&#x17a;" horiz-adv-x="1082" 
d="M131 0v100l660 854v12h-659v111h816v-101l-658 -853v-12h660v-111h-819zM596 1228h-119l188 332h158z" />
    <glyph glyph-name="Zdotaccent" unicode="&#x17b;" horiz-adv-x="1328" 
d="M138 0v99l863 1208v12h-834v124h1011v-100l-860 -1207v-12h872v-124h-1052zM664 1646q-40 0 -68.5 28.5t-28.5 69.5q0 40 28.5 68.5t68.5 28.5t68.5 -28.5t28.5 -68.5q0 -41 -28.5 -69.5t-68.5 -28.5z" />
    <glyph glyph-name="zdotaccent" unicode="&#x17c;" horiz-adv-x="1082" 
d="M131 0v100l660 854v12h-659v111h816v-101l-658 -853v-12h660v-111h-819zM536 1301q-40 0 -68.5 28.5t-28.5 68.5t28.5 68.5t68.5 28.5t68.5 -28.5t28.5 -68.5t-28.5 -68.5t-68.5 -28.5z" />
    <glyph glyph-name="Zcaron" unicode="&#x17d;" horiz-adv-x="1328" 
d="M138 0v99l863 1208v12h-834v124h1011v-100l-860 -1207v-12h872v-124h-1052zM726 1577h-124l-289 297h155l190 -202h12l190 202h155z" />
    <glyph glyph-name="zcaron" unicode="&#x17e;" horiz-adv-x="1082" 
d="M131 0v100l660 854v12h-659v111h816v-101l-658 -853v-12h660v-111h-819zM459 1228l-247 332h146l172 -243h12l172 243h146l-247 -332h-154z" />
    <glyph glyph-name="uni04D8" unicode="&#x4d8;" horiz-adv-x="1501" 
d="M737 -30q-282 0 -446.5 190t-166.5 518v67h1094v23q1 258 -137.5 418t-366.5 160q-153 0 -262 -65t-163 -191h-140q61 178 213 280.5t354 102.5q298 0 473 -202.5t175 -547.5q0 -224 -77.5 -395t-220 -264.5t-329.5 -93.5zM740 97q196 0 325.5 143.5t149.5 382.5h-942
q12 -245 137 -385.5t330 -140.5z" />
    <glyph glyph-name="uni04D8" unicode="&#x18f;" horiz-adv-x="1501" 
d="M737 -30q-282 0 -446.5 190t-166.5 518v67h1094v23q1 258 -137.5 418t-366.5 160q-153 0 -262 -65t-163 -191h-140q61 178 213 280.5t354 102.5q298 0 473 -202.5t175 -547.5q0 -224 -77.5 -395t-220 -264.5t-329.5 -93.5zM740 97q196 0 325.5 143.5t149.5 382.5h-942
q12 -245 137 -385.5t330 -140.5z" />
    <glyph glyph-name="florin" unicode="&#x192;" horiz-adv-x="1321" 
d="M1228 1435v-121q-69 26 -180 26q-118 0 -183 -60.5t-85 -187.5l-43 -277h385v-106h-402l-59 -381q-28 -179 -120 -261.5t-255 -82.5q-100 0 -198 29v128q86 -36 187 -36q109 0 172 55.5t82 177.5l58 371h-366v106h383l45 287q28 177 125 267.5t259 90.5q114 0 195 -25z
" />
    <glyph glyph-name="Ohorn" unicode="&#x1a0;" horiz-adv-x="1579" 
d="M781 -30q-304 0 -479 202.5t-175 549.5q0 346 176 548.5t478 202.5q70 0 195 -17t209 -17q80 0 110 23t30 84v129h122v-168q0 -84 -53.5 -127t-148.5 -43h-72v-9q118 -69 189 -234.5t71 -371.5q0 -347 -174.5 -549.5t-477.5 -202.5zM781 97q237 0 375 170t137 455
q0 287 -137.5 455.5t-374.5 168.5q-236 0 -375 -168.5t-139 -455.5q0 -286 138 -455.5t376 -169.5z" />
    <glyph glyph-name="ohorn" unicode="&#x1a1;" horiz-adv-x="1240" 
d="M604 101q166 0 260 116.5t94 321.5t-94 321.5t-260 116.5t-260 -116.5t-94 -321.5t94 -321.5t260 -116.5zM1094 539q0 -257 -132 -407t-358 -150t-357.5 150t-131.5 407t131.5 406.5t357.5 149.5q64 0 147 -11t134 -11q67 0 92 21.5t25 76.5v132h122v-171
q0 -75 -42.5 -114t-109.5 -39q-29 0 -67 2v-6q87 -50 138 -165.5t51 -270.5z" />
    <glyph glyph-name="Uhorn" unicode="&#x1af;" horiz-adv-x="1621" 
d="M742 -26q-254 0 -406 143.5t-152 382.5v943h136v-934q0 -186 115.5 -297.5t306.5 -111.5q192 0 307 111.5t115 297.5v934h163q101 0 101 94v158h122v-182q0 -82 -51 -126t-138 -44h-60v-843q0 -239 -152.5 -382.5t-406.5 -143.5z" />
    <glyph glyph-name="uhorn" unicode="&#x1b0;" horiz-adv-x="1317" 
d="M887 194q-41 -101 -132 -156.5t-219 -55.5q-179 0 -277.5 104.5t-98.5 290.5v700h131v-667q0 -151 70.5 -229.5t208.5 -78.5q150 0 236.5 90.5t86.5 244.5v640h137q100 0 100 94v143h123v-167q0 -82 -51 -126t-138 -44h-40v-977h-125v194h-12z" />
    <glyph glyph-name="dentalclick" unicode="&#x1c0;" horiz-adv-x="626" 
d="M256 -364v1807h114v-1807h-114z" />
    <glyph glyph-name="lateralclick" unicode="&#x1c1;" horiz-adv-x="995" 
d="M256 -364v1807h114v-1807h-114zM626 -364v1807h113v-1807h-113z" />
    <glyph glyph-name="alveolarclick" unicode="&#x1c2;" horiz-adv-x="856" 
d="M770 975h-285v-260h285v-103h-285v-968h-114v968h-285v103h285v260h-285v102h285v374h114v-374h285v-102z" />
    <glyph glyph-name="retroflexclick" unicode="&#x1c3;" horiz-adv-x="617" 
d="M233 1444h150l-11 -987h-127zM308 -14q-49 0 -80.5 31.5t-31.5 80.5t31.5 81t80.5 32t80.5 -31.5t31.5 -81.5q0 -49 -31.5 -80.5t-80.5 -31.5z" />
    <glyph glyph-name="uni01C4" unicode="&#x1c4;" horiz-adv-x="2800" 
d="M185 1443h475q327 0 506 -191t179 -530q0 -340 -178.5 -531t-506.5 -191h-475v1443zM322 1319v-1195h330q263 0 408 158t145 439t-145 439.5t-408 158.5h-330zM1610 0v99l863 1208v12h-834v124h1011v-100l-860 -1207v-12h872v-124h-1052zM2198 1577h-124l-289 297h155
l190 -202h12l190 202h155z" />
    <glyph glyph-name="uni01C5" unicode="&#x1c5;" horiz-adv-x="2554" 
d="M185 1443h475q327 0 506 -191t179 -530q0 -340 -178.5 -531t-506.5 -191h-475v1443zM322 1319v-1195h330q263 0 408 158t145 439t-145 439.5t-408 158.5h-330zM1603 0v100l660 854v12h-659v111h816v-101l-658 -853v-12h660v-111h-819zM1931 1228l-247 332h146l172 -243
h12l172 243h146l-247 -332h-154z" />
    <glyph glyph-name="uni01C6" unicode="&#x1c6;" horiz-adv-x="2337" 
d="M571 -18q-206 0 -331 152.5t-125 403.5q0 250 125.5 403.5t330.5 153.5q123 0 220 -61t143 -167h12v639h131v-1506h-126v215h-12q-48 -108 -146.5 -170.5t-221.5 -62.5zM599 977q-160 0 -254.5 -119t-94.5 -319q0 -201 94.5 -319.5t254.5 -118.5q159 0 254 119t95 319
q0 198 -95.5 318t-253.5 120zM1387 0v100l660 854v12h-659v111h816v-101l-658 -853v-12h660v-111h-819zM1715 1228l-247 332h146l172 -243h12l172 243h146l-247 -332h-154z" />
    <glyph glyph-name="uni01C7" unicode="&#x1c7;" horiz-adv-x="2227" 
d="M1044 124v-124h-859v1443h137v-1319h722zM1231 330h136q5 -103 78 -168t186 -65q131 0 202.5 78.5t71.5 222.5v1045h137v-1050q0 -197 -110 -310t-300 -113q-175 0 -287.5 100.5t-113.5 259.5z" />
    <glyph glyph-name="uni01C8" unicode="&#x1c8;" horiz-adv-x="1619" 
d="M1044 124v-124h-859v1443h137v-1319h722zM1445 1077v-1145q0 -156 -74.5 -227.5t-228.5 -71.5h-24v113h21q94 0 134.5 42.5t40.5 139.5v1149h131zM1381 1301q-41 0 -69 28.5t-28 68.5t28 68.5t69 28.5t69 -28.5t28 -68.5t-28 -68.5t-69 -28.5z" />
    <glyph glyph-name="uni01C9" unicode="&#x1c9;" horiz-adv-x="969" 
d="M179 0v1506h131v-1506h-131zM795 1077v-1145q0 -156 -74.5 -227.5t-228.5 -71.5h-24v113h21q94 0 134.5 42.5t40.5 139.5v1149h131zM731 1301q-41 0 -69 28.5t-28 68.5t28 68.5t69 28.5t69 -28.5t28 -68.5t-28 -68.5t-69 -28.5z" />
    <glyph glyph-name="uni01CA" unicode="&#x1ca;" horiz-adv-x="2582" 
d="M320 0h-135v1443h135l841 -1198h13v1198h135v-1443h-132l-844 1199h-13v-1199zM1586 330h136q5 -103 78 -168t186 -65q131 0 202.5 78.5t71.5 222.5v1045h137v-1050q0 -197 -110 -310t-300 -113q-175 0 -287.5 100.5t-113.5 259.5z" />
    <glyph glyph-name="uni01CB" unicode="&#x1cb;" horiz-adv-x="1974" 
d="M320 0h-135v1443h135l841 -1198h13v1198h135v-1443h-132l-844 1199h-13v-1199zM1800 1077v-1145q0 -156 -74.5 -227.5t-228.5 -71.5h-24v113h21q94 0 134.5 42.5t40.5 139.5v1149h131zM1736 1301q-40 0 -68.5 28.5t-28.5 68.5t28.5 68.5t68.5 28.5t68.5 -28.5t28.5 -68.5
t-28.5 -68.5t-68.5 -28.5z" />
    <glyph glyph-name="uni01CC" unicode="&#x1cc;" horiz-adv-x="1673" 
d="M169 0v1077h125v-194h13q43 101 132 156.5t216 55.5q180 0 278.5 -103.5t98.5 -291.5v-700h-131v667q0 310 -281 310q-143 0 -231.5 -92.5t-88.5 -244.5v-640h-131zM1498 1077v-1145q0 -156 -74.5 -227.5t-228.5 -71.5h-24v113h21q94 0 134.5 42.5t40.5 139.5v1149h131z
M1434 1301q-40 0 -68.5 28.5t-28.5 68.5t28.5 68.5t68.5 28.5t68.5 -28.5t28.5 -68.5t-28.5 -68.5t-68.5 -28.5z" />
    <glyph glyph-name="Acaron" unicode="&#x1cd;" horiz-adv-x="1363" 
d="M1145 0l-160 442h-606l-160 -442h-145l540 1443h136l539 -1443h-144zM675 1264l-255 -704h524l-256 704h-13zM744 1577h-124l-289 297h155l190 -202h12l190 202h155z" />
    <glyph glyph-name="acaron" unicode="&#x1ce;" horiz-adv-x="1125" 
d="M491 98q145 0 242.5 87.5t97.5 215.5v126l-319 -23q-271 -19 -271 -204q0 -92 70 -147t180 -55zM469 -18q-160 0 -261.5 86.5t-101.5 229.5q0 140 100 220.5t288 93.5l337 22v101q0 118 -70 180.5t-201 62.5q-111 0 -185 -44t-93 -123h-133q19 130 133 207t282 77
q189 0 294 -94.5t105 -264.5v-736h-126v185h-12q-49 -96 -143 -149.5t-213 -53.5zM487 1228l-247 332h146l172 -243h12l172 243h146l-247 -332h-154z" />
    <glyph glyph-name="Icaron" unicode="&#x1cf;" horiz-adv-x="507" 
d="M322 0h-137v1443h137v-1443zM316 1577h-124l-289 297h155l190 -202h12l190 202h155z" />
    <glyph glyph-name="icaron" unicode="&#x1d0;" horiz-adv-x="480" 
d="M175 0v1077h131v-1077h-131zM163 1228l-247 332h146l172 -243h12l172 243h146l-247 -332h-154z" />
    <glyph glyph-name="Ocaron" unicode="&#x1d1;" horiz-adv-x="1561" 
d="M781 1473q302 0 477.5 -202.5t175.5 -548.5t-175 -549t-478 -203q-304 0 -479 202.5t-175 549.5t176 549t478 202zM781 1346q-236 0 -375 -168.5t-139 -455.5q0 -286 138 -455.5t376 -169.5q236 0 374.5 169.5t138.5 455.5q0 287 -138.5 455.5t-374.5 168.5zM843 1577
h-124l-289 297h155l190 -202h12l190 202h155z" />
    <glyph glyph-name="ocaron" unicode="&#x1d2;" horiz-adv-x="1208" 
d="M604 -18q-226 0 -357.5 149.5t-131.5 407.5t131.5 407t357.5 149t358 -149t132 -407t-132 -407.5t-358 -149.5zM604 101q166 0 260 116.5t94 321.5t-94 321.5t-260 116.5t-260 -116.5t-94 -321.5t94 -321.5t260 -116.5zM527 1228l-247 332h146l172 -243h12l172 243h146
l-247 -332h-154z" />
    <glyph glyph-name="Ucaron" unicode="&#x1d3;" horiz-adv-x="1485" 
d="M320 1443v-934q0 -183 114 -296t308 -113t308 113t114 296v934h137v-943q0 -237 -151 -381.5t-408 -144.5q-256 0 -407 144.5t-151 381.5v943h136zM804 1577h-124l-289 297h155l190 -202h12l190 202h155z" />
    <glyph glyph-name="ucaron" unicode="&#x1d4;" horiz-adv-x="1193" 
d="M1024 1077v-1077h-125v194h-12q-41 -101 -132 -156.5t-219 -55.5q-179 0 -277.5 104.5t-98.5 290.5v700h131v-667q0 -151 70.5 -229.5t208.5 -78.5q150 0 236.5 90.5t86.5 244.5v640h131zM515 1228l-247 332h146l172 -243h12l172 243h146l-247 -332h-154z" />
    <glyph glyph-name="Udieresismacron" unicode="&#x1d5;" horiz-adv-x="1485" 
d="M320 1443v-934q0 -183 114 -296t308 -113t308 113t114 296v934h137v-943q0 -237 -151 -381.5t-408 -144.5q-256 0 -407 144.5t-151 381.5v943h136zM560 1778q41 0 70 -29t29 -70t-29 -70t-70 -29t-70 29t-29 70t29 70t70 29zM423 2016h638v-101h-638v101zM924 1778
q41 0 70 -29t29 -70t-29 -70t-70 -29t-70 29t-29 70t29 70t70 29z" />
    <glyph glyph-name="udieresismacron" unicode="&#x1d6;" horiz-adv-x="1193" 
d="M1024 1077v-1077h-125v194h-12q-41 -101 -132 -156.5t-219 -55.5q-179 0 -277.5 104.5t-98.5 290.5v700h131v-667q0 -151 70.5 -229.5t208.5 -78.5q150 0 236.5 90.5t86.5 244.5v640h131zM410 1240q-41 0 -70 29t-29 70q0 42 29 70.5t70 28.5t70 -28.5t29 -70.5
q0 -41 -29 -70t-70 -29zM774 1240q-41 0 -70 29t-29 70q0 42 29 70.5t70 28.5t70 -28.5t29 -70.5q0 -41 -29 -70t-70 -29zM906 1737v-105h-624v105h624z" />
    <glyph glyph-name="Udieresisacute" unicode="&#x1d7;" horiz-adv-x="1485" 
d="M320 1443v-934q0 -183 114 -296t308 -113t308 113t114 296v934h137v-943q0 -237 -151 -381.5t-408 -144.5q-256 0 -407 144.5t-151 381.5v943h136zM668 1839l231 217h174l-267 -217h-138zM560 1568q-42 0 -72 29.5t-30 72.5t30 72.5t72 29.5q43 0 72.5 -29.5t29.5 -72.5
t-29.5 -72.5t-72.5 -29.5zM924 1568q-43 0 -72.5 29.5t-29.5 72.5t29.5 72.5t72.5 29.5q42 0 72 -29.5t30 -72.5t-30 -72.5t-72 -29.5z" />
    <glyph glyph-name="udieresisacute" unicode="&#x1d8;" horiz-adv-x="1193" 
d="M1024 1077v-1077h-125v194h-12q-41 -101 -132 -156.5t-219 -55.5q-179 0 -277.5 104.5t-98.5 290.5v700h131v-667q0 -151 70.5 -229.5t208.5 -78.5q150 0 236.5 90.5t86.5 244.5v640h131zM510 1567l207 297h154l-229 -297h-132zM400 1301q-40 0 -68.5 28.5t-28.5 68.5
t28.5 68.5t68.5 28.5q41 0 69.5 -28.5t28.5 -68.5t-28.5 -68.5t-69.5 -28.5zM784 1301q-41 0 -69.5 28.5t-28.5 68.5t28.5 68.5t69.5 28.5q40 0 68.5 -28.5t28.5 -68.5t-28.5 -68.5t-68.5 -28.5z" />
    <glyph glyph-name="Udieresiscaron" unicode="&#x1d9;" horiz-adv-x="1485" 
d="M320 1443v-934q0 -183 114 -296t308 -113t308 113t114 296v934h137v-943q0 -237 -151 -381.5t-408 -144.5q-256 0 -407 144.5t-151 381.5v943h136zM669 1832l-285 224h172l180 -146h12l180 146h172l-285 -224h-146zM560 1778q41 0 70 -29t29 -70t-29 -70t-70 -29t-70 29
t-29 70t29 70t70 29zM924 1778q41 0 70 -29t29 -70t-29 -70t-70 -29t-70 29t-29 70t29 70t70 29z" />
    <glyph glyph-name="udieresiscaron" unicode="&#x1da;" horiz-adv-x="1193" 
d="M1024 1077v-1077h-125v194h-12q-41 -101 -132 -156.5t-219 -55.5q-179 0 -277.5 104.5t-98.5 290.5v700h131v-667q0 -151 70.5 -229.5t208.5 -78.5q150 0 236.5 90.5t86.5 244.5v640h131zM410 1228q-41 0 -70 29t-29 70q0 42 29 71t70 29t70 -29t29 -71q0 -41 -29 -70
t-70 -29zM774 1228q-41 0 -70 29t-29 70q0 42 29 71t70 29t70 -29t29 -71q0 -41 -29 -70t-70 -29zM669 1548h-154l-275 306h154l192 -217h12l192 217h154z" />
    <glyph glyph-name="Udieresisgrave" unicode="&#x1db;" horiz-adv-x="1485" 
d="M320 1443v-934q0 -183 114 -296t308 -113t308 113t114 296v934h137v-943q0 -237 -151 -381.5t-408 -144.5q-256 0 -407 144.5t-151 381.5v943h136zM828 1839h-138l-267 217h175zM560 1568q-42 0 -72 29.5t-30 72.5t30 72.5t72 29.5q43 0 72.5 -29.5t29.5 -72.5
t-29.5 -72.5t-72.5 -29.5zM924 1568q-43 0 -72.5 29.5t-29.5 72.5t29.5 72.5t72.5 29.5q42 0 72 -29.5t30 -72.5t-30 -72.5t-72 -29.5z" />
    <glyph glyph-name="udieresisgrave" unicode="&#x1dc;" horiz-adv-x="1193" 
d="M1024 1077v-1077h-125v194h-12q-41 -101 -132 -156.5t-219 -55.5q-179 0 -277.5 104.5t-98.5 290.5v700h131v-667q0 -151 70.5 -229.5t208.5 -78.5q150 0 236.5 90.5t86.5 244.5v640h131zM674 1567h-132l-229 297h154zM400 1301q-40 0 -68.5 28.5t-28.5 68.5t28.5 68.5
t68.5 28.5q41 0 69.5 -28.5t28.5 -68.5t-28.5 -68.5t-69.5 -28.5zM784 1301q-41 0 -69.5 28.5t-28.5 68.5t28.5 68.5t69.5 28.5q40 0 68.5 -28.5t28.5 -68.5t-28.5 -68.5t-68.5 -28.5z" />
    <glyph glyph-name="uni04D9" unicode="&#x4d9;" horiz-adv-x="1193" 
d="M589 99q148 0 241.5 101.5t102.5 271.5h-672q2 -170 91 -271.5t237 -101.5zM274 808h-133q45 134 160 210.5t279 76.5q226 0 357.5 -150t131.5 -405q0 -254 -131 -406t-351 -152q-215 0 -339 144.5t-124 395.5l2 57h807v6q0 177 -98 285.5t-255 108.5q-222 0 -306 -171z
" />
    <glyph glyph-name="uni04D9" unicode="&#x259;" horiz-adv-x="1193" 
d="M589 99q148 0 241.5 101.5t102.5 271.5h-672q2 -170 91 -271.5t237 -101.5zM274 808h-133q45 134 160 210.5t279 76.5q226 0 357.5 -150t131.5 -405q0 -254 -131 -406t-351 -152q-215 0 -339 144.5t-124 395.5l2 57h807v6q0 177 -98 285.5t-255 108.5q-222 0 -306 -171z
" />
    <glyph glyph-name="uni04D9" unicode="&#x1dd;" horiz-adv-x="1193" 
d="M589 99q148 0 241.5 101.5t102.5 271.5h-672q2 -170 91 -271.5t237 -101.5zM274 808h-133q45 134 160 210.5t279 76.5q226 0 357.5 -150t131.5 -405q0 -254 -131 -406t-351 -152q-215 0 -339 144.5t-124 395.5l2 57h807v6q0 177 -98 285.5t-255 108.5q-222 0 -306 -171z
" />
    <glyph glyph-name="Adieresismacron" unicode="&#x1de;" horiz-adv-x="1363" 
d="M1145 0l-160 442h-606l-160 -442h-145l540 1443h136l539 -1443h-144zM675 1264l-255 -704h524l-256 704h-13zM500 1778q41 0 70 -29t29 -70t-29 -70t-70 -29t-70 29t-29 70t29 70t70 29zM363 2016h638v-101h-638v101zM864 1778q41 0 70 -29t29 -70t-29 -70t-70 -29
t-70 29t-29 70t29 70t70 29z" />
    <glyph glyph-name="adieresismacron" unicode="&#x1df;" horiz-adv-x="1125" 
d="M491 98q145 0 242.5 87.5t97.5 215.5v126l-319 -23q-271 -19 -271 -204q0 -92 70 -147t180 -55zM469 -18q-160 0 -261.5 86.5t-101.5 229.5q0 140 100 220.5t288 93.5l337 22v101q0 118 -70 180.5t-201 62.5q-111 0 -185 -44t-93 -123h-133q19 130 133 207t282 77
q189 0 294 -94.5t105 -264.5v-736h-126v185h-12q-49 -96 -143 -149.5t-213 -53.5zM382 1240q-41 0 -70 29t-29 70q0 42 29 70.5t70 28.5t70 -28.5t29 -70.5q0 -41 -29 -70t-70 -29zM746 1240q-41 0 -70 29t-29 70q0 42 29 70.5t70 28.5t70 -28.5t29 -70.5q0 -41 -29 -70
t-70 -29zM878 1737v-105h-624v105h624z" />
    <glyph glyph-name="Adotmacron" unicode="&#x1e0;" horiz-adv-x="1363" 
d="M1145 0l-160 442h-606l-160 -442h-145l540 1443h136l539 -1443h-144zM675 1264l-255 -704h524l-256 704h-13zM682 1578q-43 0 -73.5 30.5t-30.5 73.5t30.5 73.5t73.5 30.5t73.5 -30.5t30.5 -73.5t-30.5 -73.5t-73.5 -30.5zM1004 2016v-101h-644v101h644z" />
    <glyph glyph-name="adotmacron" unicode="&#x1e1;" horiz-adv-x="1125" 
d="M491 98q145 0 242.5 87.5t97.5 215.5v126l-319 -23q-271 -19 -271 -204q0 -92 70 -147t180 -55zM469 -18q-160 0 -261.5 86.5t-101.5 229.5q0 140 100 220.5t288 93.5l337 22v101q0 118 -70 180.5t-201 62.5q-111 0 -185 -44t-93 -123h-133q19 130 133 207t282 77
q189 0 294 -94.5t105 -264.5v-736h-126v185h-12q-49 -96 -143 -149.5t-213 -53.5zM564 1228q-44 0 -73.5 30t-29.5 73t29.5 73t73.5 30t73.5 -30t29.5 -73t-29.5 -73t-73.5 -30zM878 1709v-105h-624v105h624z" />
    <glyph glyph-name="AEmacron" unicode="&#x1e2;" horiz-adv-x="1955" 
d="M841 1327l-365 -766h526v766h-161zM1002 0v443h-581l-208 -443h-139l678 1443h1063v-124h-677v-526h640v-122h-640v-547h677v-124h-813zM1601 1796v-106h-624v106h624z" />
    <glyph glyph-name="aemacron" unicode="&#x1e3;" horiz-adv-x="1880" 
d="M1314 -18q-140 0 -249.5 71.5t-154.5 191.5h-12q-48 -123 -158 -193t-260 -70q-167 0 -270.5 85.5t-103.5 227.5q0 139 99.5 218t287.5 91l338 21v113q0 116 -68.5 178t-199.5 62q-111 0 -186.5 -44.5t-94.5 -122.5h-133q19 128 133.5 206t284.5 78q135 0 228 -60.5
t123 -164.5h13q46 99 148.5 162t231.5 63q212 0 333.5 -139.5t121.5 -382.5v-58h-804v-15q5 -182 101 -291.5t253 -109.5q226 0 300 167h133q-40 -134 -155 -209t-280 -75zM1305 979q-148 0 -240.5 -97t-102.5 -260h667q-2 158 -92 257.5t-232 99.5zM497 98q142 0 238 90
t96 219v111l-321 -21q-269 -19 -269 -199q0 -91 71 -145.5t185 -54.5zM1262 1450v-105h-624v105h624z" />
    <glyph glyph-name="Gcaron" unicode="&#x1e6;" horiz-adv-x="1506" 
d="M1375 559q0 -268 -164 -428.5t-438 -160.5q-293 0 -469.5 205.5t-176.5 546.5q0 339 176 545t467 206q231 0 391.5 -123t199.5 -329h-139q-45 155 -163 240t-289 85q-229 0 -366 -170t-137 -454q0 -285 137.5 -455t368.5 -170q212 0 339 123.5t127 327.5v50h-440v121h576
v-160zM832 1577h-124l-289 297h155l190 -202h12l190 202h155z" />
    <glyph glyph-name="gcaron" unicode="&#x1e7;" horiz-adv-x="1242" 
d="M595 128q161 0 255.5 115t94.5 307q0 193 -95.5 310t-254.5 117q-160 0 -252.5 -115.5t-92.5 -309.5q0 -193 92.5 -308.5t252.5 -115.5zM606 -404q-184 0 -301 75.5t-138 202.5h139q18 -75 98 -119t202 -44q156 0 246.5 76t90.5 207v242h-13q-48 -107 -142.5 -166
t-218.5 -59q-207 0 -330.5 148.5t-123.5 392.5t124 393.5t330 149.5q123 0 223 -63t144 -168h12v213h126v-1093q0 -176 -128 -282t-340 -106zM541 1228l-247 332h146l172 -243h12l172 243h146l-247 -332h-154z" />
    <glyph glyph-name="Kcaron" unicode="&#x1e8;" horiz-adv-x="1311" 
d="M322 0h-137v1443h137v-746h12l683 746h171l-578 -623l637 -820h-177l-555 725l-193 -210v-515zM699 1577h-124l-289 297h155l190 -202h12l190 202h155z" />
    <glyph glyph-name="kcaron" unicode="&#x1e9;" horiz-adv-x="1092" 
d="M322 573l526 504h164l-481 -462l503 -615h-168l-434 531l-122 -113v-418h-131v1506h131v-933h12zM306 1640h-124l-289 297h155l190 -202h12l190 202h155z" />
    <glyph glyph-name="Oogonek" unicode="&#x1ea;" horiz-adv-x="1561" 
d="M267 722q0 -286 138 -455.5t376 -169.5q236 0 374.5 169.5t138.5 455.5q0 287 -138.5 455.5t-374.5 168.5t-375 -168.5t-139 -455.5zM1146 -294v-105q-55 -19 -107 -19q-86 0 -147 45t-61 130q0 107 135 236q-87 -23 -185 -23q-304 0 -479 202.5t-175 549.5t176 549
t478 202t477.5 -202.5t175.5 -548.5q0 -198 -59 -352.5t-170 -251.5q-16 -16 -51 -49.5t-51.5 -50t-44 -45.5t-41 -48t-29 -44t-22 -47.5t-6.5 -44.5q0 -40 25 -68.5t82 -28.5q37 0 79 14z" />
    </font>
</defs>
</svg>
