<svg width="0" height="0" class="hidden">
    <symbol viewBox="0 0 16 14" fill="none" xmlns="http://www.w3.org/2000/svg" id="arrow">
        <path d="M9.3.3L7.9 1.7 12.2 6H0v2h12.2l-4.3 4.3 1.4 1.4L16 7 9.3.3z" fill="currentColor"></path>
    </symbol>
    <symbol id="twitter" fill="none" xmlns="http://www.w3.org/2000/svg"><path d="M24 2.6c-.9.4-1.8.7-2.8.8 1-.6 1.8-1.6 2.2-2.7-1 .6-2 1-3.1 1.2-.9-1-2.2-1.6-3.6-1.6-2.7 0-4.9 2.2-4.9 4.9 0 .4 0 .8.1 1.1-4.2-.2-7.8-2.2-10.2-5.2-.5.8-.7 1.6-.7 2.5 0 1.7.9 3.2 2.2 4.1-.8 0-1.6-.2-2.2-.6v.1c0 2.4 1.7 4.4 3.9 4.8-.4.1-.8.2-1.3.2-.3 0-.6 0-.9-.1.6 2 2.4 3.4 4.6 3.4-1.7 1.3-3.8 2.1-6.1 2.1-.4 0-.8 0-1.2-.1 2.2 1.4 4.8 2.2 7.5 2.2 9.1 0 14-7.5 14-14v-.6c1-.7 1.8-1.6 2.5-2.5z" fill="currentColor"/></symbol>
    <symbol id="facebook" fill="none" xmlns="http://www.w3.org/2000/svg" viewBox="0 0 14 23"><path d="M4.032 22.063L4 12.39H0V8.52h4V6.105C4 2.514 6.298.784 9.61.784c1.585 0 2.948.115 3.345.166V4.7l-2.296.001c-1.8 0-2.15.828-2.15 2.042v1.778h5.241l-2 3.869H8.51v9.671H4.032z" fill="currentColor"/></symbol>
    <symbol id="instagram" fill="none" xmlns="http://www.w3.org/2000/svg" viewBox="0 0 24 24"><path d="M12 2.162c3.204 0 3.584.012 4.849.07 1.366.062 2.633.336 3.608 1.311.975.975 1.249 2.242 1.311 3.608.058 1.265.07 1.645.07 4.849s-.012 3.584-.07 4.849c-.062 1.366-.336 2.633-1.311 3.608-.975.975-2.242 1.249-3.608 1.311-1.265.058-1.645.07-4.849.07s-3.584-.012-4.849-.07c-1.366-.062-2.633-.336-3.608-1.311-.975-.975-1.249-2.242-1.311-3.608-.058-1.265-.07-1.645-.07-4.849s.012-3.584.07-4.849c.062-1.366.336-2.633 1.311-3.608.975-.975 2.242-1.249 3.608-1.311 1.265-.058 1.645-.07 4.849-.07zM12 0C8.741 0 8.332.014 7.052.072c-1.95.089-3.663.567-5.038 1.942C.639 3.389.161 5.102.072 7.052.014 8.332 0 8.741 0 12c0 3.259.014 3.668.072 4.948.089 1.95.567 3.663 1.942 5.038 1.375 1.375 3.088 1.853 5.038 1.942C8.332 23.986 8.741 24 12 24c3.259 0 3.668-.014 4.948-.072 1.95-.089 3.663-.567 5.038-1.942 1.375-1.375 1.853-3.088 1.942-5.038.058-1.28.072-1.689.072-4.948 0-3.259-.014-3.668-.072-4.948-.089-1.95-.567-3.663-1.942-5.038C20.611.639 18.898.161 16.948.072 15.668.014 15.259 0 12 0z" fill="currentColor"/><path d="M12 5.838a6.162 6.162 0 100 12.324 6.162 6.162 0 000-12.324zM12 16a4 4 0 110-8 4 4 0 010 8zM18.406 7.034a1.44 1.44 0 100-2.88 1.44 1.44 0 000 2.88z" fill="currentColor"/></symbol>
    <symbol fill="none" xmlns="http://www.w3.org/2000/svg" viewBox="0 0 16 16" id="search"><path d="M14.213 13.352l-4.058-4.058c.63-.814.97-1.81.97-2.857a4.66 4.66 0 00-1.373-3.314A4.653 4.653 0 006.437 1.75a4.66 4.66 0 00-3.314 1.373A4.65 4.65 0 001.75 6.437c0 1.252.49 2.43 1.373 3.315a4.65 4.65 0 003.314 1.373c1.047 0 2.041-.34 2.855-.969l4.058 4.056a.129.129 0 00.181 0l.681-.68a.129.129 0 000-.18zm-5.3-4.44a3.481 3.481 0 01-2.476 1.025 3.481 3.481 0 01-2.475-1.024 3.481 3.481 0 01-1.025-2.476c0-.934.365-1.814 1.026-2.475a3.481 3.481 0 012.474-1.025c.935 0 1.815.363 2.475 1.026a3.481 3.481 0 011.025 2.474c0 .935-.364 1.815-1.024 2.475z" fill="currentColor"/></symbol>
</svg>
